<?xml version="1.0" encoding="UTF-8" standalone="no"?>
<!-- Created with Inkscape (http://www.inkscape.org/) -->

<svg
   xmlns:dc="http://purl.org/dc/elements/1.1/"
   xmlns:cc="http://creativecommons.org/ns#"
   xmlns:rdf="http://www.w3.org/1999/02/22-rdf-syntax-ns#"
   xmlns:svg="http://www.w3.org/2000/svg"
   xmlns="http://www.w3.org/2000/svg"
   xmlns:sodipodi="http://sodipodi.sourceforge.net/DTD/sodipodi-0.dtd"
   xmlns:inkscape="http://www.inkscape.org/namespaces/inkscape"
   width="117.19566mm"
   height="26.575882mm"
   viewBox="0 0 117.19566 26.575882"
   version="1.1"
   id="svg5051"
   inkscape:version="0.92.3 (2405546, 2018-03-11)"
   sodipodi:docname="move_rochade.svg">
  <defs
     id="defs5045">
    <filter
       inkscape:collect="always"
       id="filter4054-5-3-1-8"
       x="-0.025609033"
       width="1.0512182"
       y="-0.16676886"
       height="1.3335377"
       style="color-interpolation-filters:sRGB">
      <feGaussianBlur
         inkscape:collect="always"
         stdDeviation="2.40981"
         id="feGaussianBlur4056-9-7-8-9" />
    </filter>
    <filter
       inkscape:collect="always"
       id="filter4054-5-3-1-3-6"
       x="-0.025609033"
       width="1.0512182"
       y="-0.16676886"
       height="1.3335377"
       style="color-interpolation-filters:sRGB">
      <feGaussianBlur
         inkscape:collect="always"
         stdDeviation="2.40981"
         id="feGaussianBlur4056-9-7-8-1-6" />
    </filter>
    <filter
       inkscape:collect="always"
       id="filter4054-5-3-1-4-2"
       x="-0.025609033"
       width="1.0512182"
       y="-0.16676886"
       height="1.3335377"
       style="color-interpolation-filters:sRGB">
      <feGaussianBlur
         inkscape:collect="always"
         stdDeviation="2.40981"
         id="feGaussianBlur4056-9-7-8-5-2" />
    </filter>
    <filter
       inkscape:collect="always"
       id="filter4054-5-3-1-5-00"
       x="-0.025609033"
       width="1.0512182"
       y="-0.16676886"
       height="1.3335377"
       style="color-interpolation-filters:sRGB">
      <feGaussianBlur
         inkscape:collect="always"
         stdDeviation="2.40981"
         id="feGaussianBlur4056-9-7-8-4-4" />
    </filter>
    <filter
       inkscape:collect="always"
       id="filter4054-5-3-1-0-2"
       x="-0.025609033"
       width="1.0512182"
       y="-0.16676886"
       height="1.3335377"
       style="color-interpolation-filters:sRGB">
      <feGaussianBlur
         inkscape:collect="always"
         stdDeviation="2.40981"
         id="feGaussianBlur4056-9-7-8-78-9" />
    </filter>
    <filter
       inkscape:collect="always"
       id="filter4054-5-3-1-99-2-2"
       x="-0.025609033"
       width="1.0512182"
       y="-0.16676886"
       height="1.3335377"
       style="color-interpolation-filters:sRGB">
      <feGaussianBlur
         inkscape:collect="always"
         stdDeviation="2.40981"
         id="feGaussianBlur4056-9-7-8-2-7-2" />
    </filter>
    <filter
       inkscape:collect="always"
       id="filter4054-5-3-1-5-0-9"
       x="-0.025609033"
       width="1.0512182"
       y="-0.16676886"
       height="1.3335377"
       style="color-interpolation-filters:sRGB">
      <feGaussianBlur
         inkscape:collect="always"
         stdDeviation="2.40981"
         id="feGaussianBlur4056-9-7-8-4-1-6" />
    </filter>
    <filter
       inkscape:collect="always"
       id="filter4054-5-3-1-5-0-2-0"
       x="-0.025609033"
       width="1.0512182"
       y="-0.16676886"
       height="1.3335377"
       style="color-interpolation-filters:sRGB">
      <feGaussianBlur
         inkscape:collect="always"
         stdDeviation="2.40981"
         id="feGaussianBlur4056-9-7-8-4-1-0-3" />
    </filter>
  </defs>
  <sodipodi:namedview
     id="base"
     pagecolor="#ffffff"
     bordercolor="#666666"
     borderopacity="1.0"
     inkscape:pageopacity="0.0"
     inkscape:pageshadow="2"
     inkscape:zoom="0.35"
     inkscape:cx="435.75783"
     inkscape:cy="50.222127"
     inkscape:document-units="mm"
     inkscape:current-layer="layer1"
     showgrid="false"
     inkscape:window-width="1920"
     inkscape:window-height="1046"
     inkscape:window-x="-11"
     inkscape:window-y="-11"
     inkscape:window-maximized="1" />
  <metadata
     id="metadata5048">
    <rdf:RDF>
      <cc:Work
         rdf:about="">
        <dc:format>image/svg+xml</dc:format>
        <dc:type
           rdf:resource="http://purl.org/dc/dcmitype/StillImage" />
        <dc:title></dc:title>
      </cc:Work>
    </rdf:RDF>
  </metadata>
  <g
     inkscape:label="Ebene 1"
     inkscape:groupmode="layer"
     id="layer1"
     transform="translate(336.41033,-135.54539)">
    <g
       transform="matrix(0.28222223,0,0,0.28222223,-738.97102,269.95834)"
       id="g19621">
      <path
         inkscape:connector-curvature="0"
         id="path3065-5-07"
         d="m 1634.0263,-422.53939 23.0144,-13.2874 23.0145,13.2874 v 26.5748 l -23.0145,13.2874 -23.0144,-13.2874 z"
         style="fill:#f4edde;fill-opacity:1;stroke:#000000;stroke-width:1px;stroke-linecap:butt;stroke-linejoin:miter;stroke-opacity:1" />
      <path
         inkscape:connector-curvature="0"
         id="path3065-30"
         d="m 1726.0841,-422.53939 23.0144,-13.2874 23.0145,13.2874 v 26.5748 l -23.0145,13.2874 -23.0144,-13.2874 z"
         style="fill:#352411;fill-opacity:1;stroke:#000000;stroke-width:1px;stroke-linecap:butt;stroke-linejoin:miter;stroke-opacity:1" />
      <path
         inkscape:connector-curvature="0"
         id="path3065-5-46"
         d="m 1772.113,-422.53939 23.0145,-13.2874 23.0144,13.2874 v 26.5748 l -23.0144,13.2874 -23.0145,-13.2874 z"
         style="fill:#f4edde;fill-opacity:1;stroke:#000000;stroke-width:1px;stroke-linecap:butt;stroke-linejoin:miter;stroke-opacity:1" />
      <path
         inkscape:connector-curvature="0"
         id="path3065-7-9"
         d="m 1518.9539,-462.4016 23.0144,-13.2874 23.0145,13.2874 v 26.5748 l -23.0145,13.2874 -23.0144,-13.2874 z"
         style="fill:#352411;fill-opacity:1;stroke:#000000;stroke-width:1px;stroke-linecap:butt;stroke-linejoin:miter;stroke-opacity:1" />
      <path
         inkscape:connector-curvature="0"
         id="path3065-3-84-6"
         d="m 1611.0118,-462.4016 23.0144,-13.2874 23.0145,13.2874 v 26.5748 l -23.0145,13.2874 -23.0144,-13.2874 z"
         style="fill:#c48240;fill-opacity:1;stroke:#000000;stroke-width:1px;stroke-linecap:butt;stroke-linejoin:miter;stroke-opacity:1" />
      <path
         inkscape:connector-curvature="0"
         id="path3065-5-44-3"
         d="m 1564.9828,-462.4016 23.0145,-13.2874 23.0145,13.2874 v 26.5748 l -23.0145,13.2874 -23.0145,-13.2874 z"
         style="fill:#f4edde;fill-opacity:1;stroke:#000000;stroke-width:1px;stroke-linecap:butt;stroke-linejoin:miter;stroke-opacity:1" />
      <path
         inkscape:connector-curvature="0"
         id="path3065-47-6"
         d="m 1657.0407,-462.4016 23.0143,-13.2874 23.0145,13.2874 v 26.5748 l -23.0145,13.2874 -23.0143,-13.2874 z"
         style="fill:#352411;fill-opacity:1;stroke:#000000;stroke-width:1px;stroke-linecap:butt;stroke-linejoin:miter;stroke-opacity:1" />
      <path
         inkscape:connector-curvature="0"
         id="path3065-3-64-1"
         d="m 1749.0985,-462.4016 23.0144,-13.2874 23.0145,13.2874 v 26.5748 l -23.0145,13.2874 -23.0144,-13.2874 z"
         style="fill:#c48240;fill-opacity:1;stroke:#000000;stroke-width:1px;stroke-linecap:butt;stroke-linejoin:miter;stroke-opacity:1" />
      <path
         inkscape:connector-curvature="0"
         id="path3065-5-07-0"
         d="m 1703.0695,-462.4016 23.0145,-13.2874 23.0145,13.2874 v 26.5748 l -23.0145,13.2874 -23.0145,-13.2874 z"
         style="fill:#f4edde;fill-opacity:1;stroke:#000000;stroke-width:1px;stroke-linecap:butt;stroke-linejoin:miter;stroke-opacity:1" />
      <path
         inkscape:connector-curvature="0"
         id="path3065-30-9"
         d="m 1795.1274,-462.4016 23.0144,-13.2874 23.0145,13.2874 v 26.5748 l -23.0145,13.2874 -23.0144,-13.2874 z"
         style="fill:#352411;fill-opacity:1;stroke:#000000;stroke-width:1px;stroke-linecap:butt;stroke-linejoin:miter;stroke-opacity:1" />
      <path
         inkscape:connector-curvature="0"
         id="path3065-3-7-1-4"
         d="m 1472.925,-462.4016 23.0145,-13.2874 23.0144,13.2874 v 26.5748 l -23.0144,13.2874 -23.0145,-13.2874 z"
         style="fill:#c48240;fill-opacity:1;stroke:#000000;stroke-width:1px;stroke-linecap:butt;stroke-linejoin:miter;stroke-opacity:1" />
      <path
         inkscape:connector-curvature="0"
         id="path3065-5-46-4"
         d="m 1426.8961,-462.4016 23.0145,-13.2874 23.0144,13.2874 v 26.5748 l -23.0144,13.2874 -23.0145,-13.2874 z"
         style="fill:#f4edde;fill-opacity:1;stroke:#000000;stroke-width:1px;stroke-linecap:butt;stroke-linejoin:miter;stroke-opacity:1" />
      <path
         inkscape:connector-curvature="0"
         id="path3065-7"
         d="m 1449.9106,-422.53939 23.0144,-13.2874 23.0145,13.2874 v 26.5748 l -23.0145,13.2874 -23.0144,-13.2874 z"
         style="fill:#352411;fill-opacity:1;stroke:#000000;stroke-width:1px;stroke-linecap:butt;stroke-linejoin:miter;stroke-opacity:1" />
      <path
         inkscape:connector-curvature="0"
         id="path3065-3-84"
         d="m 1541.9685,-422.53939 23.0145,-13.2874 23.0144,13.2874 v 26.5748 l -23.0144,13.2874 -23.0145,-13.2874 z"
         style="fill:#c48240;fill-opacity:1;stroke:#000000;stroke-width:1px;stroke-linecap:butt;stroke-linejoin:miter;stroke-opacity:1" />
      <path
         inkscape:connector-curvature="0"
         id="path3065-5-44"
         d="m 1495.9396,-422.53939 23.0144,-13.2874 23.0145,13.2874 v 26.5748 l -23.0145,13.2874 -23.0144,-13.2874 z"
         style="fill:#f4edde;fill-opacity:1;stroke:#000000;stroke-width:1px;stroke-linecap:butt;stroke-linejoin:miter;stroke-opacity:1" />
      <path
         inkscape:connector-curvature="0"
         id="path3065-47"
         d="m 1587.9974,-422.53939 23.0144,-13.2874 23.0145,13.2874 v 26.5748 l -23.0145,13.2874 -23.0144,-13.2874 z"
         style="fill:#352411;fill-opacity:1;stroke:#000000;stroke-width:1px;stroke-linecap:butt;stroke-linejoin:miter;stroke-opacity:1" />
      <path
         inkscape:connector-curvature="0"
         id="path3065-3-64"
         d="m 1680.0552,-422.53939 23.0144,-13.2874 23.0145,13.2874 v 26.5748 l -23.0145,13.2874 -23.0144,-13.2874 z"
         style="fill:#c48240;fill-opacity:1;stroke:#000000;stroke-width:1px;stroke-linecap:butt;stroke-linejoin:miter;stroke-opacity:1" />
      <g
         id="g4178-5-5-8-6"
         transform="translate(1534.312,-583.36847)">
        <path
           d="m 75.779916,186.43646 c -6.640014,0 -10.013344,-1.11999 -10.12,-3.36 -0.106677,-2.45332 -0.426677,-4.37332 -0.96,-5.76 -0.373342,-0.93332 -1.080008,-2.09332 -2.12,-3.48 -0.720006,-0.95998 -1.186673,-1.67998 -1.4,-2.16 -0.373339,-0.74665 -0.560005,-1.57331 -0.56,-2.48 -5e-6,-1.25331 0.373328,-2.38664 1.12,-3.4 0.74666,-1.03997 1.706659,-1.77331 2.88,-2.2 0.826657,-0.29331 1.573323,-0.42664 2.24,-0.4 1.73332,0.0267 3.373318,0.66669 4.92,1.92 l 0.04,0.04 c -1.6e-5,-0.90664 0.03998,-1.66664 0.12,-2.28 -1.7e-5,-0.23997 0.10665,-0.54664 0.32,-0.92 0.26665,-0.66664 1.039982,-1.43997 2.32,-2.32 v -1.2 l -2.04,-1.2 v -1.8 h 1.84 l 0.64,-1.88 h 1.52 l 0.64,1.88 h 1.84 v 1.8 l -2.04,1.2 v 1.2 c 1.199977,0.80003 1.986643,1.57336 2.36,2.32 0.186643,0.42669 0.279976,0.76003 0.28,1 0.02664,0.21336 0.05331,0.57336 0.08,1.08 0.02664,0.48003 0.03998,0.85336 0.04,1.12 l 0.04,-0.04 c 1.519974,-1.25331 3.159972,-1.89331 4.92,-1.92 1.173303,-0.0266 2.293302,0.29336 3.36,0.96 1.0933,0.66669 1.879965,1.54669 2.36,2.64 0.34663,0.74669 0.51996,1.54669 0.52,2.4 -4e-5,1.41335 -0.64003,2.96002 -1.92,4.64 -0.560033,0.74668 -0.960033,1.30668 -1.2,1.68 -0.400032,0.58668 -0.706698,1.18668 -0.92,1.8 -0.586698,1.44001 -0.920031,3.36001 -1,5.76 -0.05336,2.24001 -3.426694,3.36 -10.12,3.36"
           id="path3879-5-7-5-7-4"
           inkscape:connector-curvature="0"
           sodipodi:nodetypes="cccccsccccccccccccccccccccccccccccccccc"
           style="font-style:normal;font-variant:normal;font-weight:normal;font-stretch:normal;font-size:40px;line-height:125%;font-family:'Chess Cases';-inkscape-font-specification:'Chess Cases';text-align:start;letter-spacing:0px;word-spacing:0px;writing-mode:lr-tb;text-anchor:start;fill:#000000;fill-opacity:0.50196078;stroke:none;filter:url(#filter4054-5-3-1-8)" />
        <path
           d="m 75.779916,186.43646 c -6.640014,0 -10.013344,-1.11999 -10.12,-3.36 -0.106677,-2.45332 -0.426677,-4.37332 -0.96,-5.76 -0.373342,-0.93332 -1.080008,-2.09332 -2.12,-3.48 -0.720006,-0.95998 -1.186673,-1.67998 -1.4,-2.16 -0.373339,-0.74665 -0.560005,-1.57331 -0.56,-2.48 -5e-6,-1.25331 0.373328,-2.38664 1.12,-3.4 0.74666,-1.03997 1.706659,-1.77331 2.88,-2.2 0.826657,-0.29331 1.573323,-0.42664 2.24,-0.4 1.73332,0.0267 3.373318,0.66669 4.92,1.92 l 0.04,0.04 c -1.6e-5,-0.90664 0.03998,-1.66664 0.12,-2.28 -1.7e-5,-0.23997 0.10665,-0.54664 0.32,-0.92 0.26665,-0.66664 1.039982,-1.43997 2.32,-2.32 v -1.2 l -2.04,-1.2 v -1.8 h 1.84 l 0.64,-1.88 h 1.52 l 0.64,1.88 h 1.84 v 1.8 l -2.04,1.2 v 1.2 c 1.199977,0.80003 1.986643,1.57336 2.36,2.32 0.186643,0.42669 0.279976,0.76003 0.28,1 0.02664,0.21336 0.05331,0.57336 0.08,1.08 0.02664,0.48003 0.03998,0.85336 0.04,1.12 l 0.04,-0.04 c 1.519974,-1.25331 3.159972,-1.89331 4.92,-1.92 1.173303,-0.0266 2.293302,0.29336 3.36,0.96 1.0933,0.66669 1.879965,1.54669 2.36,2.64 0.34663,0.74669 0.51996,1.54669 0.52,2.4 -4e-5,1.41335 -0.64003,2.96002 -1.92,4.64 -0.560033,0.74668 -0.960033,1.30668 -1.2,1.68 -0.400032,0.58668 -0.706698,1.18668 -0.92,1.8 -0.586698,1.44001 -0.920031,3.36001 -1,5.76 -0.05336,2.24001 -3.426694,3.36 -10.12,3.36"
           id="path3879-1-3-8-6"
           inkscape:connector-curvature="0"
           sodipodi:nodetypes="cccccsccccccccccccccccccccccccccccccccc"
           style="font-style:normal;font-variant:normal;font-weight:normal;font-stretch:normal;font-size:40px;line-height:125%;font-family:'Chess Cases';-inkscape-font-specification:'Chess Cases';text-align:start;letter-spacing:0px;word-spacing:0px;writing-mode:lr-tb;text-anchor:start;fill:#efd6a2;fill-opacity:1;stroke:none" />
        <path
           d="m 75.779917,186.43646 c -6.640015,0 -10.013345,-1.12 -10.120001,-3.36 -0.106677,-2.45333 -0.426677,-4.37333 -0.96,-5.76 -0.373342,-0.93332 -1.080008,-2.09332 -2.12,-3.48 -0.720006,-0.95999 -1.186673,-1.67999 -1.4,-2.16 -0.373339,-0.74665 -0.560005,-1.57332 -0.56,-2.48 -5e-6,-1.25331 0.373328,-2.38665 1.12,-3.4 0.74666,-1.03998 1.706659,-1.77331 2.88,-2.2 0.826657,-0.29331 1.573323,-0.42664 2.24,-0.4 1.73332,0.0267 3.373318,0.66669 4.92,1.92 l 0.04,0.04 c -1.6e-5,-0.90664 0.03998,-1.66664 0.12,-2.28 -1.7e-5,-0.23998 0.10665,-0.54664 0.32,-0.92 0.26665,-0.66664 1.039982,-1.43997 2.320001,-2.32 v -1.2 l -2.040001,-1.2 v -1.8 h 1.840001 l 0.64,-1.88 h 1.52 l 0.64,1.88 h 1.84 v 1.8 l -2.04,1.2 v 1.2 c 1.19998,0.80003 1.98664,1.57336 2.36,2.32 0.18664,0.42669 0.27997,0.76002 0.28,1 0.0266,0.21336 0.0533,0.57336 0.08,1.08 0.0266,0.48002 0.04,0.85335 0.04,1.12 l 0.04,-0.04 c 1.51997,-1.25331 3.15997,-1.89331 4.92,-1.92 1.1733,-0.0266 2.2933,0.29336 3.36,0.96 1.0933,0.66669 1.87996,1.54669 2.36,2.64 0.34663,0.74669 0.51996,1.54668 0.52,2.4 -4e-5,1.41335 -0.64003,2.96001 -1.92,4.64 -0.56003,0.74668 -0.96003,1.30668 -1.2,1.68 -0.40003,0.58668 -0.7067,1.18668 -0.92,1.8 -0.5867,1.44001 -0.92003,3.36001 -1,5.76 -0.0534,2.24 -3.4267,3.36 -10.12,3.36 m 0,-16.84 c 0.0267,-0.0533 0.13331,-0.22665 0.32,-0.52 0.45331,-0.63998 0.81331,-1.21331 1.08,-1.72 0.26664,-0.50665 0.46664,-0.99998 0.6,-1.48 0.08,-0.71998 0.11998,-1.19998 0.12,-1.44 -2e-5,-1.97331 -0.69336,-2.95998 -2.08,-2.96 -1.44002,2e-5 -2.160019,0.98669 -2.160001,2.96 -1.8e-5,0.34669 0.03998,0.82669 0.120001,1.44 0.26665,0.93335 0.82665,2.00002 1.68,3.2 0.21331,0.29335 0.31998,0.46668 0.32,0.52 m 13.36,-0.08 c -4e-5,-1.49331 -0.5067,-2.65331 -1.52,-3.48 -0.85337,-0.69331 -1.8267,-1.03998 -2.92,-1.04 -1.4667,2e-5 -3.02669,0.73335 -4.68,2.2 -1.97336,1.70668 -3.08002,4.01335 -3.32,6.92 -2e-5,0.24001 0.61331,0.49335 1.84,0.76 1.03997,0.21334 2.78664,0.34668 5.24,0.4 0.42664,0.0267 0.8133,0.04 1.16,0.04 h 0.16 0.72 c 0.1333,-0.21332 0.31997,-0.46666 0.56,-0.76 0.26663,-0.31999 0.58663,-0.70665 0.96,-1.16 0.71997,-1.03999 1.22663,-1.90665 1.52,-2.6 0.18663,-0.50665 0.27996,-0.93332 0.28,-1.28 m -13.36,6.72 c -0.66669,0.29334 -1.86669,0.52001 -3.600001,0.68 -0.906683,0.0533 -2.266681,0.14668 -4.08,0.28 l -1.48,0.12 c 0.346655,1.30667 0.573322,2.70667 0.68,4.2 2.319986,-0.74666 5.14665,-1.11999 8.480001,-1.12 3.35997,1e-5 6.19997,0.37334 8.52,1.12 0.08,-1.62666 0.2933,-3.02666 0.64,-4.2 l -1.44,-0.12 c -0.93336,-0.0533 -2.30669,-0.14666 -4.12,-0.28 -0.96002,-0.10666 -1.57336,-0.17332 -1.84,-0.2 -0.69336,-0.10666 -1.28002,-0.26666 -1.76,-0.48 m -13.360001,-6.72 c -7e-6,0.66668 0.346659,1.56002 1.04,2.68 0.346658,0.53335 0.626658,0.93335 0.84,1.2 l 0.4,0.56 c 0.346657,0.37335 0.693323,0.82668 1.04,1.36 h 0.88 c 1.386654,1e-5 3.133319,-0.10666 5.24,-0.32 2.026651,-0.18666 3.039981,-0.47999 3.040001,-0.88 -0.26669,-2.90665 -1.386686,-5.21332 -3.360001,-6.92 -1.626681,-1.46665 -3.18668,-2.19998 -4.68,-2.2 -0.453344,2e-5 -0.946677,0.0933 -1.48,0.28 -1.146676,0.29335 -1.986675,1.02669 -2.52,2.2 -0.293341,0.61335 -0.440007,1.29335 -0.44,2.04 m 13.360001,15.12 c 1.65331,0 3.29331,-0.10666 4.92,-0.32 1.35997,-0.16 2.03997,-0.37333 2.04,-0.64 -3e-5,-0.42666 -0.61336,-0.73333 -1.84,-0.92 -1.78669,-0.24 -3.48002,-0.36 -5.08,-0.36 -1.62669,0 -3.333351,0.12 -5.120001,0.36 -1.253347,0.18667 -1.880013,0.49334 -1.88,0.92 -1.3e-5,0.37334 1.426652,0.66667 4.28,0.88 0.826651,0.0533 1.719981,0.08 2.680001,0.08"
           id="path3892-4-9-7-0"
           inkscape:connector-curvature="0"
           style="font-style:normal;font-variant:normal;font-weight:normal;font-stretch:normal;font-size:40px;line-height:125%;font-family:'Chess Cases';-inkscape-font-specification:'Chess Cases';text-align:start;letter-spacing:0px;word-spacing:0px;writing-mode:lr-tb;text-anchor:start;fill:#000000;fill-opacity:1;stroke:none" />
      </g>
      <g
         transform="translate(1305.8118,-578.62847)"
         id="g4188-1-7-1-8">
        <path
           d="m 155.51334,184.03646 -0.96,-0.96 v -3.44 l 5.12,-5.16 v -10 l -4.4,-3.84 v -4.52 l 1.44,-1.4 h 4.48 l 0.88,0.84 v 1.28 h 1.44 v -1.28 l 0.84,-0.84 h 5.52 l 0.84,0.84 v 1.28 h 1.4 v -1.28 l 0.88,-0.84 h 4.52 l 1.44,1.4 v 4.52 l -4.4,3.84 v 10 l 5.12,5.16 v 3.44 l -0.96,0.96 h -23.2"
           id="path3883-4-02-1-4-1"
           inkscape:connector-curvature="0"
           sodipodi:nodetypes="ccccccccccccccccccccccccccccc"
           style="font-style:normal;font-variant:normal;font-weight:normal;font-stretch:normal;font-size:40px;line-height:125%;font-family:'Chess Cases';-inkscape-font-specification:'Chess Cases';text-align:start;letter-spacing:0px;word-spacing:0px;writing-mode:lr-tb;text-anchor:start;fill:#000000;fill-opacity:0.50196078;stroke:none;filter:url(#filter4054-5-3-1-8)" />
        <path
           d="m 155.51334,184.03646 -0.96,-0.96 v -3.44 l 5.12,-5.16 v -10 l -4.4,-3.84 v -4.52 l 1.44,-1.4 h 4.48 l 0.88,0.84 v 1.28 h 1.44 v -1.28 l 0.84,-0.84 h 5.52 l 0.84,0.84 v 1.28 h 1.4 v -1.28 l 0.88,-0.84 h 4.52 l 1.44,1.4 v 4.52 l -4.4,3.84 v 10 l 5.12,5.16 v 3.44 l -0.96,0.96 h -23.2"
           id="path3883-6-7-4-1"
           inkscape:connector-curvature="0"
           sodipodi:nodetypes="ccccccccccccccccccccccccccccc"
           style="font-style:normal;font-variant:normal;font-weight:normal;font-stretch:normal;font-size:40px;line-height:125%;font-family:'Chess Cases';-inkscape-font-specification:'Chess Cases';text-align:start;letter-spacing:0px;word-spacing:0px;writing-mode:lr-tb;text-anchor:start;fill:#efd6a2;fill-opacity:1;stroke:none" />
        <path
           d="m 161.39334,164.63646 v 8.88 h 11.4 v -8.88 h -11.4 m -5.88,19.4 -0.96,-0.96 v -3.44 l 5.12,-5.16 v -10 l -4.4,-3.84 v -4.52 l 1.44,-1.4 h 4.48 l 0.88,0.84 v 1.28 h 1.44 v -1.28 l 0.84,-0.84 h 5.52 l 0.84,0.84 v 1.28 h 1.4 v -1.28 l 0.88,-0.84 h 4.52 l 1.44,1.4 v 4.52 l -4.4,3.84 v 10 l 5.12,5.16 v 3.44 l -0.96,0.96 h -23.2 m 0.8,-3.92 v 1.92 h 21.6 v -1.92 h -21.6 m 4.88,-4.96 -3.28,3.2 h 18.4 l -3.28,-3.2 h -11.84 m 4,-18.36 v 1.28 l -0.72,0.72 h -3.24 l -0.76,-0.72 v -1.36 h -2.8 l -0.64,0.68 v 2.8 l 3.4,2.76 h 13.36 l 3.4,-2.76 v -2.8 l -0.64,-0.68 h -2.8 v 1.36 l -0.76,0.72 h -3.24 l -0.72,-0.72 v -1.28 h -3.84"
           id="path3896-0-3-8-7"
           inkscape:connector-curvature="0"
           style="font-style:normal;font-variant:normal;font-weight:normal;font-stretch:normal;font-size:40px;line-height:125%;font-family:'Chess Cases';-inkscape-font-specification:'Chess Cases';text-align:start;letter-spacing:0px;word-spacing:0px;writing-mode:lr-tb;text-anchor:start;fill:#000000;fill-opacity:1;stroke:none" />
      </g>
      <g
         transform="translate(1151.8223,-617.47069)"
         id="g4203-0-6-0-7">
        <path
           d="m 287.3884,183.07646 c -0.0267,-0.61333 -0.04,-1.38666 -0.04,-2.32 -1e-5,-2.45332 0.42666,-4.55999 1.28,-6.32 0.95999,-1.89332 2.75999,-3.50665 5.4,-4.84 -0.88002,-0.26665 -1.57335,-0.85331 -2.08,-1.76 -0.48001,-0.79998 -0.72001,-1.69331 -0.72,-2.68 -1e-5,-2.26664 1.13332,-3.86664 3.4,-4.8 -0.56002,-0.98664 -0.84002,-1.9333 -0.84,-2.84 -2e-5,-1.14664 0.42665,-2.07997 1.28,-2.8 0.87998,-0.71997 1.89331,-1.07997 3.04,-1.08 1.14665,3e-5 2.14664,0.37337 3,1.12 0.85331,0.72003 1.27998,1.64003 1.28,2.76 -2e-5,0.9067 -0.29336,1.85336 -0.88,2.84 2.29331,0.93336 3.43997,2.53336 3.44,4.8 -3e-5,0.93335 -0.24003,1.82669 -0.72,2.68 -0.56003,0.90669 -1.26669,1.49335 -2.12,1.76 2.66664,1.36002 4.47997,2.98668 5.44,4.88 0.8533,1.70668 1.27997,3.80001 1.28,6.28 -3e-5,0.85334 -0.0267,1.62667 -0.08,2.32 h -21.36"
           id="path3889-0-7-4-8-3"
           inkscape:connector-curvature="0"
           sodipodi:nodetypes="cscccccccccccccccccc"
           style="font-style:normal;font-variant:normal;font-weight:normal;font-stretch:normal;font-size:40px;line-height:125%;font-family:'Chess Cases';-inkscape-font-specification:'Chess Cases';text-align:start;letter-spacing:0px;word-spacing:0px;writing-mode:lr-tb;text-anchor:start;fill:#000000;fill-opacity:0.50196078;stroke:none;filter:url(#filter4054-5-3-1-8)" />
        <path
           d="m 287.3884,183.07646 c -0.0267,-0.61333 -0.04,-1.38666 -0.04,-2.32 -1e-5,-2.45332 0.42666,-4.55999 1.28,-6.32 0.95999,-1.89332 2.75999,-3.50665 5.4,-4.84 -0.88002,-0.26665 -1.57335,-0.85331 -2.08,-1.76 -0.48001,-0.79998 -0.72001,-1.69331 -0.72,-2.68 -1e-5,-2.26664 1.13332,-3.86664 3.4,-4.8 -0.56002,-0.98664 -0.84002,-1.9333 -0.84,-2.84 -2e-5,-1.14664 0.42665,-2.07997 1.28,-2.8 0.87998,-0.71997 1.89331,-1.07997 3.04,-1.08 1.14665,3e-5 2.14664,0.37337 3,1.12 0.85331,0.72003 1.27998,1.64003 1.28,2.76 -2e-5,0.9067 -0.29336,1.85336 -0.88,2.84 2.29331,0.93336 3.43997,2.53336 3.44,4.8 -3e-5,0.93335 -0.24003,1.82669 -0.72,2.68 -0.56003,0.90669 -1.26669,1.49335 -2.12,1.76 2.66664,1.36002 4.47997,2.98668 5.44,4.88 0.8533,1.70668 1.27997,3.80001 1.28,6.28 -3e-5,0.85334 -0.0267,1.62667 -0.08,2.32 h -21.36"
           id="path3889-4-3-8-3"
           inkscape:connector-curvature="0"
           sodipodi:nodetypes="cscccccccccccccccccc"
           style="font-style:normal;font-variant:normal;font-weight:normal;font-stretch:normal;font-size:40px;line-height:125%;font-family:'Chess Cases';-inkscape-font-specification:'Chess Cases';text-align:start;letter-spacing:0px;word-spacing:0px;writing-mode:lr-tb;text-anchor:start;fill:#efd6a2;fill-opacity:1;stroke:none" />
        <path
           d="m 307.0284,181.07646 c -3e-5,-2.82666 -0.5867,-5.05333 -1.76,-6.68 -0.72003,-1.01332 -1.86669,-1.97332 -3.44,-2.88 -1.30669,-0.77332 -1.96002,-1.47999 -1.96,-2.12 -2e-5,-0.23999 0.0666,-0.42665 0.2,-0.56 0.15998,-0.13332 0.42664,-0.30665 0.8,-0.52 0.71998,-0.42665 1.22664,-0.85332 1.52,-1.28 0.29331,-0.42665 0.43997,-1.03998 0.44,-1.84 -3e-5,-1.46665 -0.78669,-2.66665 -2.36,-3.6 -0.42669,-0.26664 -0.73336,-0.46664 -0.92,-0.6 -0.16002,-0.15998 -0.24002,-0.35998 -0.24,-0.6 -2e-5,-0.61331 0.17331,-1.13331 0.52,-1.56 0.21331,-0.31998 0.34664,-0.54664 0.4,-0.68 0.0533,-0.15997 0.08,-0.41331 0.08,-0.76 -2e-5,-0.55997 -0.24002,-1.03997 -0.72,-1.44 -0.45335,-0.39997 -0.97335,-0.59997 -1.56,-0.6 -0.56002,3e-5 -1.06669,0.20003 -1.52,0.6 -0.45335,0.40003 -0.68002,0.88003 -0.68,1.44 -2e-5,0.50669 0.15998,0.98669 0.48,1.44 0.34665,0.42669 0.51998,0.94669 0.52,1.56 -2e-5,0.24002 -0.0933,0.45336 -0.28,0.64 -0.18669,0.16002 -0.48002,0.34669 -0.88,0.56 -1.54668,0.93335 -2.32002,2.13335 -2.32,3.6 -2e-5,1.30668 0.65332,2.34668 1.96,3.12 0.26665,0.16001 0.49332,0.33335 0.68,0.52 0.18665,0.18668 0.27998,0.37335 0.28,0.56 -2e-5,0.64001 -0.65335,1.34668 -1.96,2.12 -1.60001,0.96001 -2.74668,1.93334 -3.44,2.92 -1.14668,1.62667 -1.72001,3.84001 -1.72,6.64 h 17.88 m -19.64,2 c -0.0267,-0.61333 -0.04,-1.38667 -0.04,-2.32 -1e-5,-2.45333 0.42666,-4.55999 1.28,-6.32 0.95999,-1.89332 2.75999,-3.50665 5.4,-4.84 -0.88002,-0.26665 -1.57335,-0.85332 -2.08,-1.76 -0.48001,-0.79998 -0.72001,-1.69332 -0.72,-2.68 -1e-5,-2.26665 1.13332,-3.86664 3.4,-4.8 -0.56002,-0.98664 -0.84002,-1.93331 -0.84,-2.84 -2e-5,-1.14664 0.42665,-2.07997 1.28,-2.8 0.87998,-0.71997 1.89331,-1.07997 3.04,-1.08 1.14665,3e-5 2.14664,0.37336 3,1.12 0.85331,0.72003 1.27998,1.64003 1.28,2.76 -2e-5,0.90669 -0.29336,1.85336 -0.88,2.84 2.29331,0.93336 3.43997,2.53335 3.44,4.8 -3e-5,0.93335 -0.24003,1.82668 -0.72,2.68 -0.56003,0.90668 -1.26669,1.49335 -2.12,1.76 2.66664,1.36001 4.47997,2.98668 5.44,4.88 0.8533,1.70667 1.27997,3.80001 1.28,6.28 -3e-5,0.85334 -0.0267,1.62667 -0.08,2.32 h -21.36"
           id="path3902-9-9-5-57"
           inkscape:connector-curvature="0"
           style="font-style:normal;font-variant:normal;font-weight:normal;font-stretch:normal;font-size:40px;line-height:125%;font-family:'Chess Cases';-inkscape-font-specification:'Chess Cases';text-align:start;letter-spacing:0px;word-spacing:0px;writing-mode:lr-tb;text-anchor:start;fill:#000000;fill-opacity:1;stroke:none" />
      </g>
      <g
         transform="translate(1628.0142,-578.62847)"
         id="g4188-1-7-1-9-1">
        <path
           d="m 155.51334,184.03646 -0.96,-0.96 v -3.44 l 5.12,-5.16 v -10 l -4.4,-3.84 v -4.52 l 1.44,-1.4 h 4.48 l 0.88,0.84 v 1.28 h 1.44 v -1.28 l 0.84,-0.84 h 5.52 l 0.84,0.84 v 1.28 h 1.4 v -1.28 l 0.88,-0.84 h 4.52 l 1.44,1.4 v 4.52 l -4.4,3.84 v 10 l 5.12,5.16 v 3.44 l -0.96,0.96 h -23.2"
           id="path3883-4-02-1-4-0-6"
           inkscape:connector-curvature="0"
           sodipodi:nodetypes="ccccccccccccccccccccccccccccc"
           style="font-style:normal;font-variant:normal;font-weight:normal;font-stretch:normal;font-size:40px;line-height:125%;font-family:'Chess Cases';-inkscape-font-specification:'Chess Cases';text-align:start;letter-spacing:0px;word-spacing:0px;writing-mode:lr-tb;text-anchor:start;fill:#000000;fill-opacity:0.50196078;stroke:none;filter:url(#filter4054-5-3-1-3-6)" />
        <path
           d="m 155.51334,184.03646 -0.96,-0.96 v -3.44 l 5.12,-5.16 v -10 l -4.4,-3.84 v -4.52 l 1.44,-1.4 h 4.48 l 0.88,0.84 v 1.28 h 1.44 v -1.28 l 0.84,-0.84 h 5.52 l 0.84,0.84 v 1.28 h 1.4 v -1.28 l 0.88,-0.84 h 4.52 l 1.44,1.4 v 4.52 l -4.4,3.84 v 10 l 5.12,5.16 v 3.44 l -0.96,0.96 h -23.2"
           id="path3883-6-7-4-5-1"
           inkscape:connector-curvature="0"
           sodipodi:nodetypes="ccccccccccccccccccccccccccccc"
           style="font-style:normal;font-variant:normal;font-weight:normal;font-stretch:normal;font-size:40px;line-height:125%;font-family:'Chess Cases';-inkscape-font-specification:'Chess Cases';text-align:start;letter-spacing:0px;word-spacing:0px;writing-mode:lr-tb;text-anchor:start;fill:#efd6a2;fill-opacity:1;stroke:none" />
        <path
           d="m 161.39334,164.63646 v 8.88 h 11.4 v -8.88 h -11.4 m -5.88,19.4 -0.96,-0.96 v -3.44 l 5.12,-5.16 v -10 l -4.4,-3.84 v -4.52 l 1.44,-1.4 h 4.48 l 0.88,0.84 v 1.28 h 1.44 v -1.28 l 0.84,-0.84 h 5.52 l 0.84,0.84 v 1.28 h 1.4 v -1.28 l 0.88,-0.84 h 4.52 l 1.44,1.4 v 4.52 l -4.4,3.84 v 10 l 5.12,5.16 v 3.44 l -0.96,0.96 h -23.2 m 0.8,-3.92 v 1.92 h 21.6 v -1.92 h -21.6 m 4.88,-4.96 -3.28,3.2 h 18.4 l -3.28,-3.2 h -11.84 m 4,-18.36 v 1.28 l -0.72,0.72 h -3.24 l -0.76,-0.72 v -1.36 h -2.8 l -0.64,0.68 v 2.8 l 3.4,2.76 h 13.36 l 3.4,-2.76 v -2.8 l -0.64,-0.68 h -2.8 v 1.36 l -0.76,0.72 h -3.24 l -0.72,-0.72 v -1.28 h -3.84"
           id="path3896-0-3-8-6-4"
           inkscape:connector-curvature="0"
           style="font-style:normal;font-variant:normal;font-weight:normal;font-stretch:normal;font-size:40px;line-height:125%;font-family:'Chess Cases';-inkscape-font-specification:'Chess Cases';text-align:start;letter-spacing:0px;word-spacing:0px;writing-mode:lr-tb;text-anchor:start;fill:#000000;fill-opacity:1;stroke:none" />
      </g>
      <g
         transform="translate(1197.8512,-617.47069)"
         id="g4203-0-6-0-8-6">
        <path
           d="m 287.3884,183.07646 c -0.0267,-0.61333 -0.04,-1.38666 -0.04,-2.32 -1e-5,-2.45332 0.42666,-4.55999 1.28,-6.32 0.95999,-1.89332 2.75999,-3.50665 5.4,-4.84 -0.88002,-0.26665 -1.57335,-0.85331 -2.08,-1.76 -0.48001,-0.79998 -0.72001,-1.69331 -0.72,-2.68 -1e-5,-2.26664 1.13332,-3.86664 3.4,-4.8 -0.56002,-0.98664 -0.84002,-1.9333 -0.84,-2.84 -2e-5,-1.14664 0.42665,-2.07997 1.28,-2.8 0.87998,-0.71997 1.89331,-1.07997 3.04,-1.08 1.14665,3e-5 2.14664,0.37337 3,1.12 0.85331,0.72003 1.27998,1.64003 1.28,2.76 -2e-5,0.9067 -0.29336,1.85336 -0.88,2.84 2.29331,0.93336 3.43997,2.53336 3.44,4.8 -3e-5,0.93335 -0.24003,1.82669 -0.72,2.68 -0.56003,0.90669 -1.26669,1.49335 -2.12,1.76 2.66664,1.36002 4.47997,2.98668 5.44,4.88 0.8533,1.70668 1.27997,3.80001 1.28,6.28 -3e-5,0.85334 -0.0267,1.62667 -0.08,2.32 h -21.36"
           id="path3889-0-7-4-8-2-82"
           inkscape:connector-curvature="0"
           sodipodi:nodetypes="cscccccccccccccccccc"
           style="font-style:normal;font-variant:normal;font-weight:normal;font-stretch:normal;font-size:40px;line-height:125%;font-family:'Chess Cases';-inkscape-font-specification:'Chess Cases';text-align:start;letter-spacing:0px;word-spacing:0px;writing-mode:lr-tb;text-anchor:start;fill:#000000;fill-opacity:0.50196078;stroke:none;filter:url(#filter4054-5-3-1-4-2)" />
        <path
           d="m 287.3884,183.07646 c -0.0267,-0.61333 -0.04,-1.38666 -0.04,-2.32 -1e-5,-2.45332 0.42666,-4.55999 1.28,-6.32 0.95999,-1.89332 2.75999,-3.50665 5.4,-4.84 -0.88002,-0.26665 -1.57335,-0.85331 -2.08,-1.76 -0.48001,-0.79998 -0.72001,-1.69331 -0.72,-2.68 -1e-5,-2.26664 1.13332,-3.86664 3.4,-4.8 -0.56002,-0.98664 -0.84002,-1.9333 -0.84,-2.84 -2e-5,-1.14664 0.42665,-2.07997 1.28,-2.8 0.87998,-0.71997 1.89331,-1.07997 3.04,-1.08 1.14665,3e-5 2.14664,0.37337 3,1.12 0.85331,0.72003 1.27998,1.64003 1.28,2.76 -2e-5,0.9067 -0.29336,1.85336 -0.88,2.84 2.29331,0.93336 3.43997,2.53336 3.44,4.8 -3e-5,0.93335 -0.24003,1.82669 -0.72,2.68 -0.56003,0.90669 -1.26669,1.49335 -2.12,1.76 2.66664,1.36002 4.47997,2.98668 5.44,4.88 0.8533,1.70668 1.27997,3.80001 1.28,6.28 -3e-5,0.85334 -0.0267,1.62667 -0.08,2.32 h -21.36"
           id="path3889-4-3-8-2-18"
           inkscape:connector-curvature="0"
           sodipodi:nodetypes="cscccccccccccccccccc"
           style="font-style:normal;font-variant:normal;font-weight:normal;font-stretch:normal;font-size:40px;line-height:125%;font-family:'Chess Cases';-inkscape-font-specification:'Chess Cases';text-align:start;letter-spacing:0px;word-spacing:0px;writing-mode:lr-tb;text-anchor:start;fill:#efd6a2;fill-opacity:1;stroke:none" />
        <path
           d="m 307.0284,181.07646 c -3e-5,-2.82666 -0.5867,-5.05333 -1.76,-6.68 -0.72003,-1.01332 -1.86669,-1.97332 -3.44,-2.88 -1.30669,-0.77332 -1.96002,-1.47999 -1.96,-2.12 -2e-5,-0.23999 0.0666,-0.42665 0.2,-0.56 0.15998,-0.13332 0.42664,-0.30665 0.8,-0.52 0.71998,-0.42665 1.22664,-0.85332 1.52,-1.28 0.29331,-0.42665 0.43997,-1.03998 0.44,-1.84 -3e-5,-1.46665 -0.78669,-2.66665 -2.36,-3.6 -0.42669,-0.26664 -0.73336,-0.46664 -0.92,-0.6 -0.16002,-0.15998 -0.24002,-0.35998 -0.24,-0.6 -2e-5,-0.61331 0.17331,-1.13331 0.52,-1.56 0.21331,-0.31998 0.34664,-0.54664 0.4,-0.68 0.0533,-0.15997 0.08,-0.41331 0.08,-0.76 -2e-5,-0.55997 -0.24002,-1.03997 -0.72,-1.44 -0.45335,-0.39997 -0.97335,-0.59997 -1.56,-0.6 -0.56002,3e-5 -1.06669,0.20003 -1.52,0.6 -0.45335,0.40003 -0.68002,0.88003 -0.68,1.44 -2e-5,0.50669 0.15998,0.98669 0.48,1.44 0.34665,0.42669 0.51998,0.94669 0.52,1.56 -2e-5,0.24002 -0.0933,0.45336 -0.28,0.64 -0.18669,0.16002 -0.48002,0.34669 -0.88,0.56 -1.54668,0.93335 -2.32002,2.13335 -2.32,3.6 -2e-5,1.30668 0.65332,2.34668 1.96,3.12 0.26665,0.16001 0.49332,0.33335 0.68,0.52 0.18665,0.18668 0.27998,0.37335 0.28,0.56 -2e-5,0.64001 -0.65335,1.34668 -1.96,2.12 -1.60001,0.96001 -2.74668,1.93334 -3.44,2.92 -1.14668,1.62667 -1.72001,3.84001 -1.72,6.64 h 17.88 m -19.64,2 c -0.0267,-0.61333 -0.04,-1.38667 -0.04,-2.32 -1e-5,-2.45333 0.42666,-4.55999 1.28,-6.32 0.95999,-1.89332 2.75999,-3.50665 5.4,-4.84 -0.88002,-0.26665 -1.57335,-0.85332 -2.08,-1.76 -0.48001,-0.79998 -0.72001,-1.69332 -0.72,-2.68 -1e-5,-2.26665 1.13332,-3.86664 3.4,-4.8 -0.56002,-0.98664 -0.84002,-1.93331 -0.84,-2.84 -2e-5,-1.14664 0.42665,-2.07997 1.28,-2.8 0.87998,-0.71997 1.89331,-1.07997 3.04,-1.08 1.14665,3e-5 2.14664,0.37336 3,1.12 0.85331,0.72003 1.27998,1.64003 1.28,2.76 -2e-5,0.90669 -0.29336,1.85336 -0.88,2.84 2.29331,0.93336 3.43997,2.53335 3.44,4.8 -3e-5,0.93335 -0.24003,1.82668 -0.72,2.68 -0.56003,0.90668 -1.26669,1.49335 -2.12,1.76 2.66664,1.36001 4.47997,2.98668 5.44,4.88 0.8533,1.70667 1.27997,3.80001 1.28,6.28 -3e-5,0.85334 -0.0267,1.62667 -0.08,2.32 h -21.36"
           id="path3902-9-9-5-5-6"
           inkscape:connector-curvature="0"
           style="font-style:normal;font-variant:normal;font-weight:normal;font-stretch:normal;font-size:40px;line-height:125%;font-family:'Chess Cases';-inkscape-font-specification:'Chess Cases';text-align:start;letter-spacing:0px;word-spacing:0px;writing-mode:lr-tb;text-anchor:start;fill:#000000;fill-opacity:1;stroke:none" />
      </g>
      <g
         transform="translate(1289.909,-617.47069)"
         id="g4203-0-6-0-89-1">
        <path
           d="m 287.3884,183.07646 c -0.0267,-0.61333 -0.04,-1.38666 -0.04,-2.32 -1e-5,-2.45332 0.42666,-4.55999 1.28,-6.32 0.95999,-1.89332 2.75999,-3.50665 5.4,-4.84 -0.88002,-0.26665 -1.57335,-0.85331 -2.08,-1.76 -0.48001,-0.79998 -0.72001,-1.69331 -0.72,-2.68 -1e-5,-2.26664 1.13332,-3.86664 3.4,-4.8 -0.56002,-0.98664 -0.84002,-1.9333 -0.84,-2.84 -2e-5,-1.14664 0.42665,-2.07997 1.28,-2.8 0.87998,-0.71997 1.89331,-1.07997 3.04,-1.08 1.14665,3e-5 2.14664,0.37337 3,1.12 0.85331,0.72003 1.27998,1.64003 1.28,2.76 -2e-5,0.9067 -0.29336,1.85336 -0.88,2.84 2.29331,0.93336 3.43997,2.53336 3.44,4.8 -3e-5,0.93335 -0.24003,1.82669 -0.72,2.68 -0.56003,0.90669 -1.26669,1.49335 -2.12,1.76 2.66664,1.36002 4.47997,2.98668 5.44,4.88 0.8533,1.70668 1.27997,3.80001 1.28,6.28 -3e-5,0.85334 -0.0267,1.62667 -0.08,2.32 h -21.36"
           id="path3889-0-7-4-8-8-9"
           inkscape:connector-curvature="0"
           sodipodi:nodetypes="cscccccccccccccccccc"
           style="font-style:normal;font-variant:normal;font-weight:normal;font-stretch:normal;font-size:40px;line-height:125%;font-family:'Chess Cases';-inkscape-font-specification:'Chess Cases';text-align:start;letter-spacing:0px;word-spacing:0px;writing-mode:lr-tb;text-anchor:start;fill:#000000;fill-opacity:0.50196078;stroke:none;filter:url(#filter4054-5-3-1-5-00)" />
        <path
           d="m 287.3884,183.07646 c -0.0267,-0.61333 -0.04,-1.38666 -0.04,-2.32 -1e-5,-2.45332 0.42666,-4.55999 1.28,-6.32 0.95999,-1.89332 2.75999,-3.50665 5.4,-4.84 -0.88002,-0.26665 -1.57335,-0.85331 -2.08,-1.76 -0.48001,-0.79998 -0.72001,-1.69331 -0.72,-2.68 -1e-5,-2.26664 1.13332,-3.86664 3.4,-4.8 -0.56002,-0.98664 -0.84002,-1.9333 -0.84,-2.84 -2e-5,-1.14664 0.42665,-2.07997 1.28,-2.8 0.87998,-0.71997 1.89331,-1.07997 3.04,-1.08 1.14665,3e-5 2.14664,0.37337 3,1.12 0.85331,0.72003 1.27998,1.64003 1.28,2.76 -2e-5,0.9067 -0.29336,1.85336 -0.88,2.84 2.29331,0.93336 3.43997,2.53336 3.44,4.8 -3e-5,0.93335 -0.24003,1.82669 -0.72,2.68 -0.56003,0.90669 -1.26669,1.49335 -2.12,1.76 2.66664,1.36002 4.47997,2.98668 5.44,4.88 0.8533,1.70668 1.27997,3.80001 1.28,6.28 -3e-5,0.85334 -0.0267,1.62667 -0.08,2.32 h -21.36"
           id="path3889-4-3-8-99-5"
           inkscape:connector-curvature="0"
           sodipodi:nodetypes="cscccccccccccccccccc"
           style="font-style:normal;font-variant:normal;font-weight:normal;font-stretch:normal;font-size:40px;line-height:125%;font-family:'Chess Cases';-inkscape-font-specification:'Chess Cases';text-align:start;letter-spacing:0px;word-spacing:0px;writing-mode:lr-tb;text-anchor:start;fill:#efd6a2;fill-opacity:1;stroke:none" />
        <path
           d="m 307.0284,181.07646 c -3e-5,-2.82666 -0.5867,-5.05333 -1.76,-6.68 -0.72003,-1.01332 -1.86669,-1.97332 -3.44,-2.88 -1.30669,-0.77332 -1.96002,-1.47999 -1.96,-2.12 -2e-5,-0.23999 0.0666,-0.42665 0.2,-0.56 0.15998,-0.13332 0.42664,-0.30665 0.8,-0.52 0.71998,-0.42665 1.22664,-0.85332 1.52,-1.28 0.29331,-0.42665 0.43997,-1.03998 0.44,-1.84 -3e-5,-1.46665 -0.78669,-2.66665 -2.36,-3.6 -0.42669,-0.26664 -0.73336,-0.46664 -0.92,-0.6 -0.16002,-0.15998 -0.24002,-0.35998 -0.24,-0.6 -2e-5,-0.61331 0.17331,-1.13331 0.52,-1.56 0.21331,-0.31998 0.34664,-0.54664 0.4,-0.68 0.0533,-0.15997 0.08,-0.41331 0.08,-0.76 -2e-5,-0.55997 -0.24002,-1.03997 -0.72,-1.44 -0.45335,-0.39997 -0.97335,-0.59997 -1.56,-0.6 -0.56002,3e-5 -1.06669,0.20003 -1.52,0.6 -0.45335,0.40003 -0.68002,0.88003 -0.68,1.44 -2e-5,0.50669 0.15998,0.98669 0.48,1.44 0.34665,0.42669 0.51998,0.94669 0.52,1.56 -2e-5,0.24002 -0.0933,0.45336 -0.28,0.64 -0.18669,0.16002 -0.48002,0.34669 -0.88,0.56 -1.54668,0.93335 -2.32002,2.13335 -2.32,3.6 -2e-5,1.30668 0.65332,2.34668 1.96,3.12 0.26665,0.16001 0.49332,0.33335 0.68,0.52 0.18665,0.18668 0.27998,0.37335 0.28,0.56 -2e-5,0.64001 -0.65335,1.34668 -1.96,2.12 -1.60001,0.96001 -2.74668,1.93334 -3.44,2.92 -1.14668,1.62667 -1.72001,3.84001 -1.72,6.64 h 17.88 m -19.64,2 c -0.0267,-0.61333 -0.04,-1.38667 -0.04,-2.32 -1e-5,-2.45333 0.42666,-4.55999 1.28,-6.32 0.95999,-1.89332 2.75999,-3.50665 5.4,-4.84 -0.88002,-0.26665 -1.57335,-0.85332 -2.08,-1.76 -0.48001,-0.79998 -0.72001,-1.69332 -0.72,-2.68 -1e-5,-2.26665 1.13332,-3.86664 3.4,-4.8 -0.56002,-0.98664 -0.84002,-1.93331 -0.84,-2.84 -2e-5,-1.14664 0.42665,-2.07997 1.28,-2.8 0.87998,-0.71997 1.89331,-1.07997 3.04,-1.08 1.14665,3e-5 2.14664,0.37336 3,1.12 0.85331,0.72003 1.27998,1.64003 1.28,2.76 -2e-5,0.90669 -0.29336,1.85336 -0.88,2.84 2.29331,0.93336 3.43997,2.53335 3.44,4.8 -3e-5,0.93335 -0.24003,1.82668 -0.72,2.68 -0.56003,0.90668 -1.26669,1.49335 -2.12,1.76 2.66664,1.36001 4.47997,2.98668 5.44,4.88 0.8533,1.70667 1.27997,3.80001 1.28,6.28 -3e-5,0.85334 -0.0267,1.62667 -0.08,2.32 h -21.36"
           id="path3902-9-9-5-9-6"
           inkscape:connector-curvature="0"
           style="font-style:normal;font-variant:normal;font-weight:normal;font-stretch:normal;font-size:40px;line-height:125%;font-family:'Chess Cases';-inkscape-font-specification:'Chess Cases';text-align:start;letter-spacing:0px;word-spacing:0px;writing-mode:lr-tb;text-anchor:start;fill:#000000;fill-opacity:1;stroke:none" />
      </g>
      <g
         transform="translate(1335.9379,-617.47069)"
         id="g4203-0-6-0-4-2">
        <path
           d="m 287.3884,183.07646 c -0.0267,-0.61333 -0.04,-1.38666 -0.04,-2.32 -1e-5,-2.45332 0.42666,-4.55999 1.28,-6.32 0.95999,-1.89332 2.75999,-3.50665 5.4,-4.84 -0.88002,-0.26665 -1.57335,-0.85331 -2.08,-1.76 -0.48001,-0.79998 -0.72001,-1.69331 -0.72,-2.68 -1e-5,-2.26664 1.13332,-3.86664 3.4,-4.8 -0.56002,-0.98664 -0.84002,-1.9333 -0.84,-2.84 -2e-5,-1.14664 0.42665,-2.07997 1.28,-2.8 0.87998,-0.71997 1.89331,-1.07997 3.04,-1.08 1.14665,3e-5 2.14664,0.37337 3,1.12 0.85331,0.72003 1.27998,1.64003 1.28,2.76 -2e-5,0.9067 -0.29336,1.85336 -0.88,2.84 2.29331,0.93336 3.43997,2.53336 3.44,4.8 -3e-5,0.93335 -0.24003,1.82669 -0.72,2.68 -0.56003,0.90669 -1.26669,1.49335 -2.12,1.76 2.66664,1.36002 4.47997,2.98668 5.44,4.88 0.8533,1.70668 1.27997,3.80001 1.28,6.28 -3e-5,0.85334 -0.0267,1.62667 -0.08,2.32 h -21.36"
           id="path3889-0-7-4-8-1-2"
           inkscape:connector-curvature="0"
           sodipodi:nodetypes="cscccccccccccccccccc"
           style="font-style:normal;font-variant:normal;font-weight:normal;font-stretch:normal;font-size:40px;line-height:125%;font-family:'Chess Cases';-inkscape-font-specification:'Chess Cases';text-align:start;letter-spacing:0px;word-spacing:0px;writing-mode:lr-tb;text-anchor:start;fill:#000000;fill-opacity:0.50196078;stroke:none;filter:url(#filter4054-5-3-1-0-2)" />
        <path
           d="m 287.3884,183.07646 c -0.0267,-0.61333 -0.04,-1.38666 -0.04,-2.32 -1e-5,-2.45332 0.42666,-4.55999 1.28,-6.32 0.95999,-1.89332 2.75999,-3.50665 5.4,-4.84 -0.88002,-0.26665 -1.57335,-0.85331 -2.08,-1.76 -0.48001,-0.79998 -0.72001,-1.69331 -0.72,-2.68 -1e-5,-2.26664 1.13332,-3.86664 3.4,-4.8 -0.56002,-0.98664 -0.84002,-1.9333 -0.84,-2.84 -2e-5,-1.14664 0.42665,-2.07997 1.28,-2.8 0.87998,-0.71997 1.89331,-1.07997 3.04,-1.08 1.14665,3e-5 2.14664,0.37337 3,1.12 0.85331,0.72003 1.27998,1.64003 1.28,2.76 -2e-5,0.9067 -0.29336,1.85336 -0.88,2.84 2.29331,0.93336 3.43997,2.53336 3.44,4.8 -3e-5,0.93335 -0.24003,1.82669 -0.72,2.68 -0.56003,0.90669 -1.26669,1.49335 -2.12,1.76 2.66664,1.36002 4.47997,2.98668 5.44,4.88 0.8533,1.70668 1.27997,3.80001 1.28,6.28 -3e-5,0.85334 -0.0267,1.62667 -0.08,2.32 h -21.36"
           id="path3889-4-3-8-8-4"
           inkscape:connector-curvature="0"
           sodipodi:nodetypes="cscccccccccccccccccc"
           style="font-style:normal;font-variant:normal;font-weight:normal;font-stretch:normal;font-size:40px;line-height:125%;font-family:'Chess Cases';-inkscape-font-specification:'Chess Cases';text-align:start;letter-spacing:0px;word-spacing:0px;writing-mode:lr-tb;text-anchor:start;fill:#efd6a2;fill-opacity:1;stroke:none" />
        <path
           d="m 307.0284,181.07646 c -3e-5,-2.82666 -0.5867,-5.05333 -1.76,-6.68 -0.72003,-1.01332 -1.86669,-1.97332 -3.44,-2.88 -1.30669,-0.77332 -1.96002,-1.47999 -1.96,-2.12 -2e-5,-0.23999 0.0666,-0.42665 0.2,-0.56 0.15998,-0.13332 0.42664,-0.30665 0.8,-0.52 0.71998,-0.42665 1.22664,-0.85332 1.52,-1.28 0.29331,-0.42665 0.43997,-1.03998 0.44,-1.84 -3e-5,-1.46665 -0.78669,-2.66665 -2.36,-3.6 -0.42669,-0.26664 -0.73336,-0.46664 -0.92,-0.6 -0.16002,-0.15998 -0.24002,-0.35998 -0.24,-0.6 -2e-5,-0.61331 0.17331,-1.13331 0.52,-1.56 0.21331,-0.31998 0.34664,-0.54664 0.4,-0.68 0.0533,-0.15997 0.08,-0.41331 0.08,-0.76 -2e-5,-0.55997 -0.24002,-1.03997 -0.72,-1.44 -0.45335,-0.39997 -0.97335,-0.59997 -1.56,-0.6 -0.56002,3e-5 -1.06669,0.20003 -1.52,0.6 -0.45335,0.40003 -0.68002,0.88003 -0.68,1.44 -2e-5,0.50669 0.15998,0.98669 0.48,1.44 0.34665,0.42669 0.51998,0.94669 0.52,1.56 -2e-5,0.24002 -0.0933,0.45336 -0.28,0.64 -0.18669,0.16002 -0.48002,0.34669 -0.88,0.56 -1.54668,0.93335 -2.32002,2.13335 -2.32,3.6 -2e-5,1.30668 0.65332,2.34668 1.96,3.12 0.26665,0.16001 0.49332,0.33335 0.68,0.52 0.18665,0.18668 0.27998,0.37335 0.28,0.56 -2e-5,0.64001 -0.65335,1.34668 -1.96,2.12 -1.60001,0.96001 -2.74668,1.93334 -3.44,2.92 -1.14668,1.62667 -1.72001,3.84001 -1.72,6.64 h 17.88 m -19.64,2 c -0.0267,-0.61333 -0.04,-1.38667 -0.04,-2.32 -1e-5,-2.45333 0.42666,-4.55999 1.28,-6.32 0.95999,-1.89332 2.75999,-3.50665 5.4,-4.84 -0.88002,-0.26665 -1.57335,-0.85332 -2.08,-1.76 -0.48001,-0.79998 -0.72001,-1.69332 -0.72,-2.68 -1e-5,-2.26665 1.13332,-3.86664 3.4,-4.8 -0.56002,-0.98664 -0.84002,-1.93331 -0.84,-2.84 -2e-5,-1.14664 0.42665,-2.07997 1.28,-2.8 0.87998,-0.71997 1.89331,-1.07997 3.04,-1.08 1.14665,3e-5 2.14664,0.37336 3,1.12 0.85331,0.72003 1.27998,1.64003 1.28,2.76 -2e-5,0.90669 -0.29336,1.85336 -0.88,2.84 2.29331,0.93336 3.43997,2.53335 3.44,4.8 -3e-5,0.93335 -0.24003,1.82668 -0.72,2.68 -0.56003,0.90668 -1.26669,1.49335 -2.12,1.76 2.66664,1.36001 4.47997,2.98668 5.44,4.88 0.8533,1.70667 1.27997,3.80001 1.28,6.28 -3e-5,0.85334 -0.0267,1.62667 -0.08,2.32 h -21.36"
           id="path3902-9-9-5-6-7"
           inkscape:connector-curvature="0"
           style="font-style:normal;font-variant:normal;font-weight:normal;font-stretch:normal;font-size:40px;line-height:125%;font-family:'Chess Cases';-inkscape-font-specification:'Chess Cases';text-align:start;letter-spacing:0px;word-spacing:0px;writing-mode:lr-tb;text-anchor:start;fill:#000000;fill-opacity:1;stroke:none" />
      </g>
      <g
         transform="translate(1427.9958,-617.47069)"
         id="g4203-0-6-0-9-6-3">
        <path
           d="m 287.3884,183.07646 c -0.0267,-0.61333 -0.04,-1.38666 -0.04,-2.32 -1e-5,-2.45332 0.42666,-4.55999 1.28,-6.32 0.95999,-1.89332 2.75999,-3.50665 5.4,-4.84 -0.88002,-0.26665 -1.57335,-0.85331 -2.08,-1.76 -0.48001,-0.79998 -0.72001,-1.69331 -0.72,-2.68 -1e-5,-2.26664 1.13332,-3.86664 3.4,-4.8 -0.56002,-0.98664 -0.84002,-1.9333 -0.84,-2.84 -2e-5,-1.14664 0.42665,-2.07997 1.28,-2.8 0.87998,-0.71997 1.89331,-1.07997 3.04,-1.08 1.14665,3e-5 2.14664,0.37337 3,1.12 0.85331,0.72003 1.27998,1.64003 1.28,2.76 -2e-5,0.9067 -0.29336,1.85336 -0.88,2.84 2.29331,0.93336 3.43997,2.53336 3.44,4.8 -3e-5,0.93335 -0.24003,1.82669 -0.72,2.68 -0.56003,0.90669 -1.26669,1.49335 -2.12,1.76 2.66664,1.36002 4.47997,2.98668 5.44,4.88 0.8533,1.70668 1.27997,3.80001 1.28,6.28 -3e-5,0.85334 -0.0267,1.62667 -0.08,2.32 h -21.36"
           id="path3889-0-7-4-8-0-1-5"
           inkscape:connector-curvature="0"
           sodipodi:nodetypes="cscccccccccccccccccc"
           style="font-style:normal;font-variant:normal;font-weight:normal;font-stretch:normal;font-size:40px;line-height:125%;font-family:'Chess Cases';-inkscape-font-specification:'Chess Cases';text-align:start;letter-spacing:0px;word-spacing:0px;writing-mode:lr-tb;text-anchor:start;fill:#000000;fill-opacity:0.50196078;stroke:none;filter:url(#filter4054-5-3-1-99-2-2)" />
        <path
           d="m 287.3884,183.07646 c -0.0267,-0.61333 -0.04,-1.38666 -0.04,-2.32 -1e-5,-2.45332 0.42666,-4.55999 1.28,-6.32 0.95999,-1.89332 2.75999,-3.50665 5.4,-4.84 -0.88002,-0.26665 -1.57335,-0.85331 -2.08,-1.76 -0.48001,-0.79998 -0.72001,-1.69331 -0.72,-2.68 -1e-5,-2.26664 1.13332,-3.86664 3.4,-4.8 -0.56002,-0.98664 -0.84002,-1.9333 -0.84,-2.84 -2e-5,-1.14664 0.42665,-2.07997 1.28,-2.8 0.87998,-0.71997 1.89331,-1.07997 3.04,-1.08 1.14665,3e-5 2.14664,0.37337 3,1.12 0.85331,0.72003 1.27998,1.64003 1.28,2.76 -2e-5,0.9067 -0.29336,1.85336 -0.88,2.84 2.29331,0.93336 3.43997,2.53336 3.44,4.8 -3e-5,0.93335 -0.24003,1.82669 -0.72,2.68 -0.56003,0.90669 -1.26669,1.49335 -2.12,1.76 2.66664,1.36002 4.47997,2.98668 5.44,4.88 0.8533,1.70668 1.27997,3.80001 1.28,6.28 -3e-5,0.85334 -0.0267,1.62667 -0.08,2.32 h -21.36"
           id="path3889-4-3-8-9-9-4"
           inkscape:connector-curvature="0"
           sodipodi:nodetypes="cscccccccccccccccccc"
           style="font-style:normal;font-variant:normal;font-weight:normal;font-stretch:normal;font-size:40px;line-height:125%;font-family:'Chess Cases';-inkscape-font-specification:'Chess Cases';text-align:start;letter-spacing:0px;word-spacing:0px;writing-mode:lr-tb;text-anchor:start;fill:#efd6a2;fill-opacity:1;stroke:none" />
        <path
           d="m 307.0284,181.07646 c -3e-5,-2.82666 -0.5867,-5.05333 -1.76,-6.68 -0.72003,-1.01332 -1.86669,-1.97332 -3.44,-2.88 -1.30669,-0.77332 -1.96002,-1.47999 -1.96,-2.12 -2e-5,-0.23999 0.0666,-0.42665 0.2,-0.56 0.15998,-0.13332 0.42664,-0.30665 0.8,-0.52 0.71998,-0.42665 1.22664,-0.85332 1.52,-1.28 0.29331,-0.42665 0.43997,-1.03998 0.44,-1.84 -3e-5,-1.46665 -0.78669,-2.66665 -2.36,-3.6 -0.42669,-0.26664 -0.73336,-0.46664 -0.92,-0.6 -0.16002,-0.15998 -0.24002,-0.35998 -0.24,-0.6 -2e-5,-0.61331 0.17331,-1.13331 0.52,-1.56 0.21331,-0.31998 0.34664,-0.54664 0.4,-0.68 0.0533,-0.15997 0.08,-0.41331 0.08,-0.76 -2e-5,-0.55997 -0.24002,-1.03997 -0.72,-1.44 -0.45335,-0.39997 -0.97335,-0.59997 -1.56,-0.6 -0.56002,3e-5 -1.06669,0.20003 -1.52,0.6 -0.45335,0.40003 -0.68002,0.88003 -0.68,1.44 -2e-5,0.50669 0.15998,0.98669 0.48,1.44 0.34665,0.42669 0.51998,0.94669 0.52,1.56 -2e-5,0.24002 -0.0933,0.45336 -0.28,0.64 -0.18669,0.16002 -0.48002,0.34669 -0.88,0.56 -1.54668,0.93335 -2.32002,2.13335 -2.32,3.6 -2e-5,1.30668 0.65332,2.34668 1.96,3.12 0.26665,0.16001 0.49332,0.33335 0.68,0.52 0.18665,0.18668 0.27998,0.37335 0.28,0.56 -2e-5,0.64001 -0.65335,1.34668 -1.96,2.12 -1.60001,0.96001 -2.74668,1.93334 -3.44,2.92 -1.14668,1.62667 -1.72001,3.84001 -1.72,6.64 h 17.88 m -19.64,2 c -0.0267,-0.61333 -0.04,-1.38667 -0.04,-2.32 -1e-5,-2.45333 0.42666,-4.55999 1.28,-6.32 0.95999,-1.89332 2.75999,-3.50665 5.4,-4.84 -0.88002,-0.26665 -1.57335,-0.85332 -2.08,-1.76 -0.48001,-0.79998 -0.72001,-1.69332 -0.72,-2.68 -1e-5,-2.26665 1.13332,-3.86664 3.4,-4.8 -0.56002,-0.98664 -0.84002,-1.93331 -0.84,-2.84 -2e-5,-1.14664 0.42665,-2.07997 1.28,-2.8 0.87998,-0.71997 1.89331,-1.07997 3.04,-1.08 1.14665,3e-5 2.14664,0.37336 3,1.12 0.85331,0.72003 1.27998,1.64003 1.28,2.76 -2e-5,0.90669 -0.29336,1.85336 -0.88,2.84 2.29331,0.93336 3.43997,2.53335 3.44,4.8 -3e-5,0.93335 -0.24003,1.82668 -0.72,2.68 -0.56003,0.90668 -1.26669,1.49335 -2.12,1.76 2.66664,1.36001 4.47997,2.98668 5.44,4.88 0.8533,1.70667 1.27997,3.80001 1.28,6.28 -3e-5,0.85334 -0.0267,1.62667 -0.08,2.32 h -21.36"
           id="path3902-9-9-5-1-5-2"
           inkscape:connector-curvature="0"
           style="font-style:normal;font-variant:normal;font-weight:normal;font-stretch:normal;font-size:40px;line-height:125%;font-family:'Chess Cases';-inkscape-font-specification:'Chess Cases';text-align:start;letter-spacing:0px;word-spacing:0px;writing-mode:lr-tb;text-anchor:start;fill:#000000;fill-opacity:1;stroke:none" />
      </g>
      <g
         transform="translate(1474.0247,-617.47069)"
         id="g4203-0-6-0-89-5-4">
        <path
           d="m 287.3884,183.07646 c -0.0267,-0.61333 -0.04,-1.38666 -0.04,-2.32 -1e-5,-2.45332 0.42666,-4.55999 1.28,-6.32 0.95999,-1.89332 2.75999,-3.50665 5.4,-4.84 -0.88002,-0.26665 -1.57335,-0.85331 -2.08,-1.76 -0.48001,-0.79998 -0.72001,-1.69331 -0.72,-2.68 -1e-5,-2.26664 1.13332,-3.86664 3.4,-4.8 -0.56002,-0.98664 -0.84002,-1.9333 -0.84,-2.84 -2e-5,-1.14664 0.42665,-2.07997 1.28,-2.8 0.87998,-0.71997 1.89331,-1.07997 3.04,-1.08 1.14665,3e-5 2.14664,0.37337 3,1.12 0.85331,0.72003 1.27998,1.64003 1.28,2.76 -2e-5,0.9067 -0.29336,1.85336 -0.88,2.84 2.29331,0.93336 3.43997,2.53336 3.44,4.8 -3e-5,0.93335 -0.24003,1.82669 -0.72,2.68 -0.56003,0.90669 -1.26669,1.49335 -2.12,1.76 2.66664,1.36002 4.47997,2.98668 5.44,4.88 0.8533,1.70668 1.27997,3.80001 1.28,6.28 -3e-5,0.85334 -0.0267,1.62667 -0.08,2.32 h -21.36"
           id="path3889-0-7-4-8-8-0-2"
           inkscape:connector-curvature="0"
           sodipodi:nodetypes="cscccccccccccccccccc"
           style="font-style:normal;font-variant:normal;font-weight:normal;font-stretch:normal;font-size:40px;line-height:125%;font-family:'Chess Cases';-inkscape-font-specification:'Chess Cases';text-align:start;letter-spacing:0px;word-spacing:0px;writing-mode:lr-tb;text-anchor:start;fill:#000000;fill-opacity:0.50196078;stroke:none;filter:url(#filter4054-5-3-1-5-0-9)" />
        <path
           d="m 287.3884,183.07646 c -0.0267,-0.61333 -0.04,-1.38666 -0.04,-2.32 -1e-5,-2.45332 0.42666,-4.55999 1.28,-6.32 0.95999,-1.89332 2.75999,-3.50665 5.4,-4.84 -0.88002,-0.26665 -1.57335,-0.85331 -2.08,-1.76 -0.48001,-0.79998 -0.72001,-1.69331 -0.72,-2.68 -1e-5,-2.26664 1.13332,-3.86664 3.4,-4.8 -0.56002,-0.98664 -0.84002,-1.9333 -0.84,-2.84 -2e-5,-1.14664 0.42665,-2.07997 1.28,-2.8 0.87998,-0.71997 1.89331,-1.07997 3.04,-1.08 1.14665,3e-5 2.14664,0.37337 3,1.12 0.85331,0.72003 1.27998,1.64003 1.28,2.76 -2e-5,0.9067 -0.29336,1.85336 -0.88,2.84 2.29331,0.93336 3.43997,2.53336 3.44,4.8 -3e-5,0.93335 -0.24003,1.82669 -0.72,2.68 -0.56003,0.90669 -1.26669,1.49335 -2.12,1.76 2.66664,1.36002 4.47997,2.98668 5.44,4.88 0.8533,1.70668 1.27997,3.80001 1.28,6.28 -3e-5,0.85334 -0.0267,1.62667 -0.08,2.32 h -21.36"
           id="path3889-4-3-8-99-2-9"
           inkscape:connector-curvature="0"
           sodipodi:nodetypes="cscccccccccccccccccc"
           style="font-style:normal;font-variant:normal;font-weight:normal;font-stretch:normal;font-size:40px;line-height:125%;font-family:'Chess Cases';-inkscape-font-specification:'Chess Cases';text-align:start;letter-spacing:0px;word-spacing:0px;writing-mode:lr-tb;text-anchor:start;fill:#efd6a2;fill-opacity:1;stroke:none" />
        <path
           d="m 307.0284,181.07646 c -3e-5,-2.82666 -0.5867,-5.05333 -1.76,-6.68 -0.72003,-1.01332 -1.86669,-1.97332 -3.44,-2.88 -1.30669,-0.77332 -1.96002,-1.47999 -1.96,-2.12 -2e-5,-0.23999 0.0666,-0.42665 0.2,-0.56 0.15998,-0.13332 0.42664,-0.30665 0.8,-0.52 0.71998,-0.42665 1.22664,-0.85332 1.52,-1.28 0.29331,-0.42665 0.43997,-1.03998 0.44,-1.84 -3e-5,-1.46665 -0.78669,-2.66665 -2.36,-3.6 -0.42669,-0.26664 -0.73336,-0.46664 -0.92,-0.6 -0.16002,-0.15998 -0.24002,-0.35998 -0.24,-0.6 -2e-5,-0.61331 0.17331,-1.13331 0.52,-1.56 0.21331,-0.31998 0.34664,-0.54664 0.4,-0.68 0.0533,-0.15997 0.08,-0.41331 0.08,-0.76 -2e-5,-0.55997 -0.24002,-1.03997 -0.72,-1.44 -0.45335,-0.39997 -0.97335,-0.59997 -1.56,-0.6 -0.56002,3e-5 -1.06669,0.20003 -1.52,0.6 -0.45335,0.40003 -0.68002,0.88003 -0.68,1.44 -2e-5,0.50669 0.15998,0.98669 0.48,1.44 0.34665,0.42669 0.51998,0.94669 0.52,1.56 -2e-5,0.24002 -0.0933,0.45336 -0.28,0.64 -0.18669,0.16002 -0.48002,0.34669 -0.88,0.56 -1.54668,0.93335 -2.32002,2.13335 -2.32,3.6 -2e-5,1.30668 0.65332,2.34668 1.96,3.12 0.26665,0.16001 0.49332,0.33335 0.68,0.52 0.18665,0.18668 0.27998,0.37335 0.28,0.56 -2e-5,0.64001 -0.65335,1.34668 -1.96,2.12 -1.60001,0.96001 -2.74668,1.93334 -3.44,2.92 -1.14668,1.62667 -1.72001,3.84001 -1.72,6.64 h 17.88 m -19.64,2 c -0.0267,-0.61333 -0.04,-1.38667 -0.04,-2.32 -1e-5,-2.45333 0.42666,-4.55999 1.28,-6.32 0.95999,-1.89332 2.75999,-3.50665 5.4,-4.84 -0.88002,-0.26665 -1.57335,-0.85332 -2.08,-1.76 -0.48001,-0.79998 -0.72001,-1.69332 -0.72,-2.68 -1e-5,-2.26665 1.13332,-3.86664 3.4,-4.8 -0.56002,-0.98664 -0.84002,-1.93331 -0.84,-2.84 -2e-5,-1.14664 0.42665,-2.07997 1.28,-2.8 0.87998,-0.71997 1.89331,-1.07997 3.04,-1.08 1.14665,3e-5 2.14664,0.37336 3,1.12 0.85331,0.72003 1.27998,1.64003 1.28,2.76 -2e-5,0.90669 -0.29336,1.85336 -0.88,2.84 2.29331,0.93336 3.43997,2.53335 3.44,4.8 -3e-5,0.93335 -0.24003,1.82668 -0.72,2.68 -0.56003,0.90668 -1.26669,1.49335 -2.12,1.76 2.66664,1.36001 4.47997,2.98668 5.44,4.88 0.8533,1.70667 1.27997,3.80001 1.28,6.28 -3e-5,0.85334 -0.0267,1.62667 -0.08,2.32 h -21.36"
           id="path3902-9-9-5-9-8-9"
           inkscape:connector-curvature="0"
           style="font-style:normal;font-variant:normal;font-weight:normal;font-stretch:normal;font-size:40px;line-height:125%;font-family:'Chess Cases';-inkscape-font-specification:'Chess Cases';text-align:start;letter-spacing:0px;word-spacing:0px;writing-mode:lr-tb;text-anchor:start;fill:#000000;fill-opacity:1;stroke:none" />
      </g>
      <g
         transform="translate(1520.0536,-617.47069)"
         id="g4203-0-6-0-89-5-3-8">
        <path
           d="m 287.3884,183.07646 c -0.0267,-0.61333 -0.04,-1.38666 -0.04,-2.32 -1e-5,-2.45332 0.42666,-4.55999 1.28,-6.32 0.95999,-1.89332 2.75999,-3.50665 5.4,-4.84 -0.88002,-0.26665 -1.57335,-0.85331 -2.08,-1.76 -0.48001,-0.79998 -0.72001,-1.69331 -0.72,-2.68 -1e-5,-2.26664 1.13332,-3.86664 3.4,-4.8 -0.56002,-0.98664 -0.84002,-1.9333 -0.84,-2.84 -2e-5,-1.14664 0.42665,-2.07997 1.28,-2.8 0.87998,-0.71997 1.89331,-1.07997 3.04,-1.08 1.14665,3e-5 2.14664,0.37337 3,1.12 0.85331,0.72003 1.27998,1.64003 1.28,2.76 -2e-5,0.9067 -0.29336,1.85336 -0.88,2.84 2.29331,0.93336 3.43997,2.53336 3.44,4.8 -3e-5,0.93335 -0.24003,1.82669 -0.72,2.68 -0.56003,0.90669 -1.26669,1.49335 -2.12,1.76 2.66664,1.36002 4.47997,2.98668 5.44,4.88 0.8533,1.70668 1.27997,3.80001 1.28,6.28 -3e-5,0.85334 -0.0267,1.62667 -0.08,2.32 h -21.36"
           id="path3889-0-7-4-8-8-0-5-5"
           inkscape:connector-curvature="0"
           sodipodi:nodetypes="cscccccccccccccccccc"
           style="font-style:normal;font-variant:normal;font-weight:normal;font-stretch:normal;font-size:40px;line-height:125%;font-family:'Chess Cases';-inkscape-font-specification:'Chess Cases';text-align:start;letter-spacing:0px;word-spacing:0px;writing-mode:lr-tb;text-anchor:start;fill:#000000;fill-opacity:0.50196078;stroke:none;filter:url(#filter4054-5-3-1-5-0-2-0)" />
        <path
           d="m 287.3884,183.07646 c -0.0267,-0.61333 -0.04,-1.38666 -0.04,-2.32 -1e-5,-2.45332 0.42666,-4.55999 1.28,-6.32 0.95999,-1.89332 2.75999,-3.50665 5.4,-4.84 -0.88002,-0.26665 -1.57335,-0.85331 -2.08,-1.76 -0.48001,-0.79998 -0.72001,-1.69331 -0.72,-2.68 -1e-5,-2.26664 1.13332,-3.86664 3.4,-4.8 -0.56002,-0.98664 -0.84002,-1.9333 -0.84,-2.84 -2e-5,-1.14664 0.42665,-2.07997 1.28,-2.8 0.87998,-0.71997 1.89331,-1.07997 3.04,-1.08 1.14665,3e-5 2.14664,0.37337 3,1.12 0.85331,0.72003 1.27998,1.64003 1.28,2.76 -2e-5,0.9067 -0.29336,1.85336 -0.88,2.84 2.29331,0.93336 3.43997,2.53336 3.44,4.8 -3e-5,0.93335 -0.24003,1.82669 -0.72,2.68 -0.56003,0.90669 -1.26669,1.49335 -2.12,1.76 2.66664,1.36002 4.47997,2.98668 5.44,4.88 0.8533,1.70668 1.27997,3.80001 1.28,6.28 -3e-5,0.85334 -0.0267,1.62667 -0.08,2.32 h -21.36"
           id="path3889-4-3-8-99-2-8-9"
           inkscape:connector-curvature="0"
           sodipodi:nodetypes="cscccccccccccccccccc"
           style="font-style:normal;font-variant:normal;font-weight:normal;font-stretch:normal;font-size:40px;line-height:125%;font-family:'Chess Cases';-inkscape-font-specification:'Chess Cases';text-align:start;letter-spacing:0px;word-spacing:0px;writing-mode:lr-tb;text-anchor:start;fill:#efd6a2;fill-opacity:1;stroke:none" />
        <path
           d="m 307.0284,181.07646 c -3e-5,-2.82666 -0.5867,-5.05333 -1.76,-6.68 -0.72003,-1.01332 -1.86669,-1.97332 -3.44,-2.88 -1.30669,-0.77332 -1.96002,-1.47999 -1.96,-2.12 -2e-5,-0.23999 0.0666,-0.42665 0.2,-0.56 0.15998,-0.13332 0.42664,-0.30665 0.8,-0.52 0.71998,-0.42665 1.22664,-0.85332 1.52,-1.28 0.29331,-0.42665 0.43997,-1.03998 0.44,-1.84 -3e-5,-1.46665 -0.78669,-2.66665 -2.36,-3.6 -0.42669,-0.26664 -0.73336,-0.46664 -0.92,-0.6 -0.16002,-0.15998 -0.24002,-0.35998 -0.24,-0.6 -2e-5,-0.61331 0.17331,-1.13331 0.52,-1.56 0.21331,-0.31998 0.34664,-0.54664 0.4,-0.68 0.0533,-0.15997 0.08,-0.41331 0.08,-0.76 -2e-5,-0.55997 -0.24002,-1.03997 -0.72,-1.44 -0.45335,-0.39997 -0.97335,-0.59997 -1.56,-0.6 -0.56002,3e-5 -1.06669,0.20003 -1.52,0.6 -0.45335,0.40003 -0.68002,0.88003 -0.68,1.44 -2e-5,0.50669 0.15998,0.98669 0.48,1.44 0.34665,0.42669 0.51998,0.94669 0.52,1.56 -2e-5,0.24002 -0.0933,0.45336 -0.28,0.64 -0.18669,0.16002 -0.48002,0.34669 -0.88,0.56 -1.54668,0.93335 -2.32002,2.13335 -2.32,3.6 -2e-5,1.30668 0.65332,2.34668 1.96,3.12 0.26665,0.16001 0.49332,0.33335 0.68,0.52 0.18665,0.18668 0.27998,0.37335 0.28,0.56 -2e-5,0.64001 -0.65335,1.34668 -1.96,2.12 -1.60001,0.96001 -2.74668,1.93334 -3.44,2.92 -1.14668,1.62667 -1.72001,3.84001 -1.72,6.64 h 17.88 m -19.64,2 c -0.0267,-0.61333 -0.04,-1.38667 -0.04,-2.32 -1e-5,-2.45333 0.42666,-4.55999 1.28,-6.32 0.95999,-1.89332 2.75999,-3.50665 5.4,-4.84 -0.88002,-0.26665 -1.57335,-0.85332 -2.08,-1.76 -0.48001,-0.79998 -0.72001,-1.69332 -0.72,-2.68 -1e-5,-2.26665 1.13332,-3.86664 3.4,-4.8 -0.56002,-0.98664 -0.84002,-1.93331 -0.84,-2.84 -2e-5,-1.14664 0.42665,-2.07997 1.28,-2.8 0.87998,-0.71997 1.89331,-1.07997 3.04,-1.08 1.14665,3e-5 2.14664,0.37336 3,1.12 0.85331,0.72003 1.27998,1.64003 1.28,2.76 -2e-5,0.90669 -0.29336,1.85336 -0.88,2.84 2.29331,0.93336 3.43997,2.53335 3.44,4.8 -3e-5,0.93335 -0.24003,1.82668 -0.72,2.68 -0.56003,0.90668 -1.26669,1.49335 -2.12,1.76 2.66664,1.36001 4.47997,2.98668 5.44,4.88 0.8533,1.70667 1.27997,3.80001 1.28,6.28 -3e-5,0.85334 -0.0267,1.62667 -0.08,2.32 h -21.36"
           id="path3902-9-9-5-9-8-6-0"
           inkscape:connector-curvature="0"
           style="font-style:normal;font-variant:normal;font-weight:normal;font-stretch:normal;font-size:40px;line-height:125%;font-family:'Chess Cases';-inkscape-font-specification:'Chess Cases';text-align:start;letter-spacing:0px;word-spacing:0px;writing-mode:lr-tb;text-anchor:start;fill:#000000;fill-opacity:1;stroke:none" />
      </g>
      <g
         id="g10167-0-6-54"
         style="stroke:#0050ac;stroke-width:2.8125;stroke-miterlimit:4;stroke-dasharray:none;stroke-opacity:1"
         transform="translate(1425.6738,-929.99151)">
        <path
           sodipodi:nodetypes="cc"
           inkscape:connector-curvature="0"
           id="path10159-4-4-3"
           d="M 204.2163,520.81962 321.85165,520.648"
           style="fill:none;fill-opacity:1;stroke:#0050ac;stroke-width:2.8125;stroke-linecap:butt;stroke-linejoin:miter;stroke-miterlimit:4;stroke-dasharray:none;stroke-opacity:1" />
        <path
           sodipodi:nodetypes="ccc"
           inkscape:connector-curvature="0"
           id="path10163-7-4-8"
           d="m 313.12882,526.06699 9.0531,-5.27567 -9.29406,-5.37934"
           style="fill:none;fill-opacity:1;stroke:#0050ac;stroke-width:2.8125;stroke-linecap:round;stroke-linejoin:round;stroke-miterlimit:4;stroke-dasharray:none;stroke-opacity:1" />
      </g>
      <g
         id="g10167-0-6-54-6"
         style="stroke:#0050ac;stroke-width:2.8125;stroke-miterlimit:4;stroke-dasharray:none;stroke-opacity:1"
         transform="rotate(180,920.90936,55.832541)">
        <path
           sodipodi:nodetypes="cc"
           inkscape:connector-curvature="0"
           id="path10159-4-4-3-7"
           d="M 250.62018,520.81962 321.85165,520.648"
           style="fill:none;fill-opacity:1;stroke:#0050ac;stroke-width:2.8125;stroke-linecap:butt;stroke-linejoin:miter;stroke-miterlimit:4;stroke-dasharray:none;stroke-opacity:1" />
        <path
           sodipodi:nodetypes="ccc"
           inkscape:connector-curvature="0"
           id="path10163-7-4-8-9"
           d="m 313.12882,526.06699 9.0531,-5.27567 -9.29406,-5.37934"
           style="fill:none;fill-opacity:1;stroke:#0050ac;stroke-width:2.8125;stroke-linecap:round;stroke-linejoin:round;stroke-miterlimit:4;stroke-dasharray:none;stroke-opacity:1" />
      </g>
      <g
         id="g10167-0-6-54-8"
         style="stroke:#0050ac;stroke-width:2.8125;stroke-miterlimit:4;stroke-dasharray:none;stroke-opacity:1"
         transform="translate(1241.8953,-940.61542)">
        <path
           sodipodi:nodetypes="cc"
           inkscape:connector-curvature="0"
           id="path10159-4-4-3-71"
           d="m 243.7543,521.29313 c 31.2516,-11.36422 58.92024,-7.98452 78.09735,-0.64513"
           style="fill:none;fill-opacity:1;stroke:#0050ac;stroke-width:2.8125;stroke-linecap:butt;stroke-linejoin:miter;stroke-miterlimit:4;stroke-dasharray:none;stroke-opacity:1" />
        <path
           sodipodi:nodetypes="ccc"
           inkscape:connector-curvature="0"
           id="path10163-7-4-8-3"
           d="m 312.65531,522.27892 9.52661,-1.4876 -5.26923,-8.45715"
           style="fill:none;fill-opacity:1;stroke:#0050ac;stroke-width:2.8125;stroke-linecap:round;stroke-linejoin:round;stroke-miterlimit:4;stroke-dasharray:none;stroke-opacity:1" />
      </g>
      <g
         id="g10167-0-6-54-8-1"
         style="stroke:#0050ac;stroke-width:2.8125;stroke-miterlimit:4;stroke-dasharray:none;stroke-opacity:1"
         transform="matrix(-1,0,0,1,2025.7503,-940.7598)">
        <path
           sodipodi:nodetypes="cc"
           inkscape:connector-curvature="0"
           id="path10159-4-4-3-71-5"
           d="m 243.7543,521.29313 c 31.2516,-11.36422 58.92024,-7.98452 78.09735,-0.64513"
           style="fill:none;fill-opacity:1;stroke:#0050ac;stroke-width:2.8125;stroke-linecap:butt;stroke-linejoin:miter;stroke-miterlimit:4;stroke-dasharray:none;stroke-opacity:1" />
        <path
           sodipodi:nodetypes="ccc"
           inkscape:connector-curvature="0"
           id="path10163-7-4-8-3-2"
           d="m 312.65531,522.27892 9.52661,-1.4876 -5.26923,-8.45715"
           style="fill:none;fill-opacity:1;stroke:#0050ac;stroke-width:2.8125;stroke-linecap:round;stroke-linejoin:round;stroke-miterlimit:4;stroke-dasharray:none;stroke-opacity:1" />
      </g>
    </g>
  </g>
</svg>
