<?xml version="1.0" encoding="UTF-8" standalone="no"?>
<!-- Created with Inkscape (http://www.inkscape.org/) -->

<svg
   xmlns:dc="http://purl.org/dc/elements/1.1/"
   xmlns:cc="http://creativecommons.org/ns#"
   xmlns:rdf="http://www.w3.org/1999/02/22-rdf-syntax-ns#"
   xmlns:svg="http://www.w3.org/2000/svg"
   xmlns="http://www.w3.org/2000/svg"
   xmlns:sodipodi="http://sodipodi.sourceforge.net/DTD/sodipodi-0.dtd"
   xmlns:inkscape="http://www.inkscape.org/namespaces/inkscape"
   width="52.243736mm"
   height="60.325874mm"
   viewBox="0 0 52.243736 60.325874"
   version="1.1"
   id="svg4426"
   inkscape:version="0.92.3 (2405546, 2018-03-11)"
   sodipodi:docname="move_king.svg">
  <defs
     id="defs4420">
    <filter
       inkscape:collect="always"
       id="filter4054-5-3-9-8"
       x="-0.025609033"
       width="1.0512182"
       y="-0.16676886"
       height="1.3335377"
       style="color-interpolation-filters:sRGB">
      <feGaussianBlur
         inkscape:collect="always"
         stdDeviation="2.40981"
         id="feGaussianBlur4056-9-7-1-80" />
    </filter>
  </defs>
  <sodipodi:namedview
     id="base"
     pagecolor="#ffffff"
     bordercolor="#666666"
     borderopacity="1.0"
     inkscape:pageopacity="0.0"
     inkscape:pageshadow="2"
     inkscape:zoom="0.35"
     inkscape:cx="413.88027"
     inkscape:cy="466.21356"
     inkscape:document-units="mm"
     inkscape:current-layer="layer1"
     showgrid="false"
     inkscape:window-width="1920"
     inkscape:window-height="1046"
     inkscape:window-x="-11"
     inkscape:window-y="-11"
     inkscape:window-maximized="1" />
  <metadata
     id="metadata4423">
    <rdf:RDF>
      <cc:Work
         rdf:about="">
        <dc:format>image/svg+xml</dc:format>
        <dc:type
           rdf:resource="http://purl.org/dc/dcmitype/StillImage" />
        <dc:title></dc:title>
      </cc:Work>
    </rdf:RDF>
  </metadata>
  <g
     inkscape:label="Ebene 1"
     inkscape:groupmode="layer"
     id="layer1"
     transform="translate(23.854016,-206.36087)">
    <g
       transform="matrix(0.28222223,0,0,0.28222223,-348.47246,269.52382)"
       id="g12941">
      <path
         inkscape:connector-curvature="0"
         id="path3065-5-3-4"
         d="m 1219.7661,-209.94097 23.0144,-13.2874 23.0145,13.2874 v 26.5748 l -23.0145,13.2874 -23.0144,-13.2874 z"
         style="fill:#f4edde;fill-opacity:1;stroke:#000000;stroke-width:1px;stroke-linecap:butt;stroke-linejoin:miter;stroke-opacity:1" />
      <path
         inkscape:connector-curvature="0"
         id="path3065-3-0-1"
         d="m 1196.7517,-170.07877 23.0144,-13.2874 23.0145,13.2874 v 26.5748 l -23.0145,13.2874 -23.0144,-13.2874 z"
         style="fill:#c48240;fill-opacity:1;stroke:#000000;stroke-width:1px;stroke-linecap:butt;stroke-linejoin:miter;stroke-opacity:1" />
      <path
         inkscape:connector-curvature="0"
         id="path3065-5-84-2"
         d="m 1150.7228,-170.07877 23.0144,-13.2874 23.0145,13.2874 v 26.5748 l -23.0145,13.2874 -23.0144,-13.2874 z"
         style="fill:#f4edde;fill-opacity:1;stroke:#000000;stroke-width:1px;stroke-linecap:butt;stroke-linejoin:miter;stroke-opacity:1" />
      <path
         inkscape:connector-curvature="0"
         id="path3065-88-3"
         d="m 1242.7806,-170.07877 23.0144,-13.2874 23.0145,13.2874 v 26.5748 l -23.0145,13.2874 -23.0144,-13.2874 z"
         style="fill:#352411;fill-opacity:1;stroke:#000000;stroke-width:1px;stroke-linecap:butt;stroke-linejoin:miter;stroke-opacity:1" />
      <path
         inkscape:connector-curvature="0"
         id="path3065-5-25-3"
         d="m 1288.8095,-170.07877 23.0144,-13.2874 23.0145,13.2874 v 26.5748 l -23.0145,13.2874 -23.0144,-13.2874 z"
         style="fill:#f4edde;fill-opacity:1;stroke:#000000;stroke-width:1px;stroke-linecap:butt;stroke-linejoin:miter;stroke-opacity:1" />
      <path
         inkscape:connector-curvature="0"
         id="path3065-41-1"
         d="m 1173.7372,-130.21657 23.0145,-13.2874 23.0144,13.2874 v 26.5748 l -23.0144,13.2874 -23.0145,-13.2874 z"
         style="fill:#352411;fill-opacity:1;stroke:#000000;stroke-width:1px;stroke-linecap:butt;stroke-linejoin:miter;stroke-opacity:1" />
      <path
         inkscape:connector-curvature="0"
         id="path3065-3-80-6"
         d="m 1265.795,-130.21657 23.0145,-13.2874 23.0144,13.2874 v 26.5748 l -23.0144,13.2874 -23.0145,-13.2874 z"
         style="fill:#c48240;fill-opacity:1;stroke:#000000;stroke-width:1px;stroke-linecap:butt;stroke-linejoin:miter;stroke-opacity:1" />
      <path
         inkscape:connector-curvature="0"
         id="path3065-3-52-5"
         d="m 1196.7517,-90.35437 23.0144,-13.2874 23.0145,13.2874 v 26.574795 l -23.0145,13.2874 -23.0144,-13.2874 z"
         style="fill:#c48240;fill-opacity:1;stroke:#000000;stroke-width:1px;stroke-linecap:butt;stroke-linejoin:miter;stroke-opacity:1" />
      <path
         inkscape:connector-curvature="0"
         id="path3065-5-91-6"
         d="m 1150.7228,-90.35437 23.0144,-13.2874 23.0145,13.2874 v 26.574795 l -23.0145,13.2874 -23.0144,-13.2874 z"
         style="fill:#f4edde;fill-opacity:1;stroke:#000000;stroke-width:1px;stroke-linecap:butt;stroke-linejoin:miter;stroke-opacity:1" />
      <path
         inkscape:connector-curvature="0"
         id="path3065-60-3"
         d="m 1242.7806,-90.35437 23.0144,-13.2874 23.0145,13.2874 v 26.574795 l -23.0145,13.2874 -23.0144,-13.2874 z"
         style="fill:#352411;fill-opacity:1;stroke:#000000;stroke-width:1px;stroke-linecap:butt;stroke-linejoin:miter;stroke-opacity:1" />
      <path
         inkscape:connector-curvature="0"
         id="path3065-5-0-2"
         d="m 1288.8095,-90.35437 23.0144,-13.2874 23.0145,13.2874 v 26.574795 l -23.0145,13.2874 -23.0144,-13.2874 z"
         style="fill:#f4edde;fill-opacity:1;stroke:#000000;stroke-width:1px;stroke-linecap:butt;stroke-linejoin:miter;stroke-opacity:1" />
      <path
         inkscape:connector-curvature="0"
         id="path3065-5-69-9"
         d="m 1219.7661,-50.492175 23.0145,-13.2874 23.0144,13.2874 v 26.5748 l -23.0144,13.2874 -23.0145,-13.2874 z"
         style="fill:#f4edde;fill-opacity:1;stroke:#000000;stroke-width:1px;stroke-linecap:butt;stroke-linejoin:miter;stroke-opacity:1" />
      <path
         inkscape:connector-curvature="0"
         id="path3065-5-72-8"
         d="m 1219.7661,-130.21657 23.0145,-13.2874 23.0144,13.2874 v 26.5748 l -23.0144,13.2874 -23.0145,-13.2874 z"
         style="fill:#f4edde;fill-opacity:1;stroke:#000000;stroke-width:1px;stroke-linecap:butt;stroke-linejoin:miter;stroke-opacity:1" />
      <g
         id="g10167-0-6-8"
         style="stroke:#0050ac;stroke-width:2.8125;stroke-miterlimit:4;stroke-dasharray:none;stroke-opacity:1"
         transform="rotate(30,1933.0181,2066.6112)">
        <path
           sodipodi:nodetypes="cc"
           inkscape:connector-curvature="0"
           id="path10159-4-4-2"
           d="m 243.64353,520.59812 78.20812,0.0499"
           style="fill:none;fill-opacity:1;stroke:#0050ac;stroke-width:2.8125;stroke-linecap:butt;stroke-linejoin:miter;stroke-miterlimit:4;stroke-dasharray:none;stroke-opacity:1" />
        <path
           sodipodi:nodetypes="ccc"
           inkscape:connector-curvature="0"
           id="path10163-7-4-3"
           d="m 313.12882,526.06699 9.0531,-5.27567 -9.29406,-5.37934"
           style="fill:none;fill-opacity:1;stroke:#0050ac;stroke-width:2.8125;stroke-linecap:round;stroke-linejoin:round;stroke-miterlimit:4;stroke-dasharray:none;stroke-opacity:1" />
      </g>
      <g
         id="g10167-0-6-8-6"
         style="stroke:#0050ac;stroke-width:2.8125;stroke-miterlimit:4;stroke-dasharray:none;stroke-opacity:1"
         transform="rotate(-30,-447.624,-1662.3982)">
        <path
           sodipodi:nodetypes="cc"
           inkscape:connector-curvature="0"
           id="path10159-4-4-2-1"
           d="m 243.64353,520.59812 78.20812,0.0499"
           style="fill:none;fill-opacity:1;stroke:#0050ac;stroke-width:2.8125;stroke-linecap:butt;stroke-linejoin:miter;stroke-miterlimit:4;stroke-dasharray:none;stroke-opacity:1" />
        <path
           sodipodi:nodetypes="ccc"
           inkscape:connector-curvature="0"
           id="path10163-7-4-3-3"
           d="m 313.12882,526.06699 9.0531,-5.27567 -9.29406,-5.37934"
           style="fill:none;fill-opacity:1;stroke:#0050ac;stroke-width:2.8125;stroke-linecap:round;stroke-linejoin:round;stroke-miterlimit:4;stroke-dasharray:none;stroke-opacity:1" />
      </g>
      <g
         id="g10167-0-6-8-68"
         style="stroke:#0050ac;stroke-width:2.8125;stroke-miterlimit:4;stroke-dasharray:none;stroke-opacity:1"
         transform="rotate(-90,423.96632,-298.07472)">
        <path
           sodipodi:nodetypes="cc"
           inkscape:connector-curvature="0"
           id="path10159-4-4-2-6"
           d="m 243.64353,520.59812 78.20812,0.0499"
           style="fill:none;fill-opacity:1;stroke:#0050ac;stroke-width:2.8125;stroke-linecap:butt;stroke-linejoin:miter;stroke-miterlimit:4;stroke-dasharray:none;stroke-opacity:1" />
        <path
           sodipodi:nodetypes="ccc"
           inkscape:connector-curvature="0"
           id="path10163-7-4-3-9"
           d="m 313.12882,526.06699 9.0531,-5.27567 -9.29406,-5.37934"
           style="fill:none;fill-opacity:1;stroke:#0050ac;stroke-width:2.8125;stroke-linecap:round;stroke-linejoin:round;stroke-miterlimit:4;stroke-dasharray:none;stroke-opacity:1" />
      </g>
      <g
         id="g10167-0-6-8-2"
         style="stroke:#0050ac;stroke-width:2.8125;stroke-miterlimit:4;stroke-dasharray:none;stroke-opacity:1"
         transform="rotate(-150,657.8266,67.700757)">
        <path
           sodipodi:nodetypes="cc"
           inkscape:connector-curvature="0"
           id="path10159-4-4-2-2"
           d="m 243.64353,520.59812 78.20812,0.0499"
           style="fill:none;fill-opacity:1;stroke:#0050ac;stroke-width:2.8125;stroke-linecap:butt;stroke-linejoin:miter;stroke-miterlimit:4;stroke-dasharray:none;stroke-opacity:1" />
        <path
           sodipodi:nodetypes="ccc"
           inkscape:connector-curvature="0"
           id="path10163-7-4-3-1"
           d="m 313.12882,526.06699 9.0531,-5.27567 -9.29406,-5.37934"
           style="fill:none;fill-opacity:1;stroke:#0050ac;stroke-width:2.8125;stroke-linecap:round;stroke-linejoin:round;stroke-miterlimit:4;stroke-dasharray:none;stroke-opacity:1" />
      </g>
      <g
         id="g10167-0-6-8-6-1"
         style="stroke:#0050ac;stroke-width:2.8125;stroke-miterlimit:4;stroke-dasharray:none;stroke-opacity:1"
         transform="rotate(150,828.94,335.79935)">
        <path
           sodipodi:nodetypes="cc"
           inkscape:connector-curvature="0"
           id="path10159-4-4-2-1-1"
           d="m 243.64353,520.59812 78.20812,0.0499"
           style="fill:none;fill-opacity:1;stroke:#0050ac;stroke-width:2.8125;stroke-linecap:butt;stroke-linejoin:miter;stroke-miterlimit:4;stroke-dasharray:none;stroke-opacity:1" />
        <path
           sodipodi:nodetypes="ccc"
           inkscape:connector-curvature="0"
           id="path10163-7-4-3-3-8"
           d="m 313.12882,526.06699 9.0531,-5.27567 -9.29406,-5.37934"
           style="fill:none;fill-opacity:1;stroke:#0050ac;stroke-width:2.8125;stroke-linecap:round;stroke-linejoin:round;stroke-miterlimit:4;stroke-dasharray:none;stroke-opacity:1" />
      </g>
      <g
         id="g10167-0-6-8-68-3"
         style="stroke:#0050ac;stroke-width:2.8125;stroke-miterlimit:4;stroke-dasharray:none;stroke-opacity:1"
         transform="rotate(90,1062.0967,701.81397)">
        <path
           sodipodi:nodetypes="cc"
           inkscape:connector-curvature="0"
           id="path10159-4-4-2-6-8"
           d="m 243.64353,520.59812 78.20812,0.0499"
           style="fill:none;fill-opacity:1;stroke:#0050ac;stroke-width:2.8125;stroke-linecap:butt;stroke-linejoin:miter;stroke-miterlimit:4;stroke-dasharray:none;stroke-opacity:1" />
        <path
           sodipodi:nodetypes="ccc"
           inkscape:connector-curvature="0"
           id="path10163-7-4-3-9-1"
           d="m 313.12882,526.06699 9.0531,-5.27567 -9.29406,-5.37934"
           style="fill:none;fill-opacity:1;stroke:#0050ac;stroke-width:2.8125;stroke-linecap:round;stroke-linejoin:round;stroke-miterlimit:4;stroke-dasharray:none;stroke-opacity:1" />
      </g>
      <path
         d="m 1221.7432,-116.92904 a 21.037361,20.437618 0 0 1 20.9326,-20.43736 21.037361,20.437618 0 0 1 21.141,20.23391 21.037361,20.437618 0 0 1 -20.7222,20.638791 21.037361,20.437618 0 0 1 -21.3473,-20.028461"
         sodipodi:open="true"
         sodipodi:end="3.1216829"
         sodipodi:start="3.1415927"
         sodipodi:ry="20.437618"
         sodipodi:rx="21.037361"
         sodipodi:cy="-116.92904"
         sodipodi:cx="1242.7805"
         sodipodi:type="arc"
         id="path10681-2"
         style="opacity:1;fill:#f2ece0;fill-opacity:1;stroke:none;stroke-width:3.99064231;stroke-linecap:round;stroke-linejoin:round;stroke-miterlimit:4;stroke-dasharray:none;stroke-opacity:1" />
      <g
         transform="translate(1167.0006,-286.92562)"
         id="g4178-5-5-0-1">
        <path
           style="font-style:normal;font-variant:normal;font-weight:normal;font-stretch:normal;font-size:40px;line-height:125%;font-family:'Chess Cases';-inkscape-font-specification:'Chess Cases';text-align:start;letter-spacing:0px;word-spacing:0px;writing-mode:lr-tb;text-anchor:start;fill:#000000;fill-opacity:0.50196078;stroke:none;filter:url(#filter4054-5-3-9-8)"
           sodipodi:nodetypes="cccccsccccccccccccccccccccccccccccccccc"
           inkscape:connector-curvature="0"
           id="path3879-5-7-5-6-2"
           d="m 75.779916,186.43646 c -6.640014,0 -10.013344,-1.11999 -10.12,-3.36 -0.106677,-2.45332 -0.426677,-4.37332 -0.96,-5.76 -0.373342,-0.93332 -1.080008,-2.09332 -2.12,-3.48 -0.720006,-0.95998 -1.186673,-1.67998 -1.4,-2.16 -0.373339,-0.74665 -0.560005,-1.57331 -0.56,-2.48 -5e-6,-1.25331 0.373328,-2.38664 1.12,-3.4 0.74666,-1.03997 1.706659,-1.77331 2.88,-2.2 0.826657,-0.29331 1.573323,-0.42664 2.24,-0.4 1.73332,0.0267 3.373318,0.66669 4.92,1.92 l 0.04,0.04 c -1.6e-5,-0.90664 0.03998,-1.66664 0.12,-2.28 -1.7e-5,-0.23997 0.10665,-0.54664 0.32,-0.92 0.26665,-0.66664 1.039982,-1.43997 2.32,-2.32 v -1.2 l -2.04,-1.2 v -1.8 h 1.84 l 0.64,-1.88 h 1.52 l 0.64,1.88 h 1.84 v 1.8 l -2.04,1.2 v 1.2 c 1.199977,0.80003 1.986643,1.57336 2.36,2.32 0.186643,0.42669 0.279976,0.76003 0.28,1 0.02664,0.21336 0.05331,0.57336 0.08,1.08 0.02664,0.48003 0.03998,0.85336 0.04,1.12 l 0.04,-0.04 c 1.519974,-1.25331 3.159972,-1.89331 4.92,-1.92 1.173303,-0.0266 2.293302,0.29336 3.36,0.96 1.0933,0.66669 1.879965,1.54669 2.36,2.64 0.34663,0.74669 0.51996,1.54669 0.52,2.4 -4e-5,1.41335 -0.64003,2.96002 -1.92,4.64 -0.560033,0.74668 -0.960033,1.30668 -1.2,1.68 -0.400032,0.58668 -0.706698,1.18668 -0.92,1.8 -0.586698,1.44001 -0.920031,3.36001 -1,5.76 -0.05336,2.24001 -3.426694,3.36 -10.12,3.36" />
        <path
           style="font-style:normal;font-variant:normal;font-weight:normal;font-stretch:normal;font-size:40px;line-height:125%;font-family:'Chess Cases';-inkscape-font-specification:'Chess Cases';text-align:start;letter-spacing:0px;word-spacing:0px;writing-mode:lr-tb;text-anchor:start;fill:#a8733f;fill-opacity:1;stroke:none"
           sodipodi:nodetypes="cccccsccccccccccccccccccccccccccccccccc"
           inkscape:connector-curvature="0"
           id="path3879-1-3-9-44"
           d="m 75.779916,186.43646 c -6.640014,0 -10.013344,-1.11999 -10.12,-3.36 -0.106677,-2.45332 -0.426677,-4.37332 -0.96,-5.76 -0.373342,-0.93332 -1.080008,-2.09332 -2.12,-3.48 -0.720006,-0.95998 -1.186673,-1.67998 -1.4,-2.16 -0.373339,-0.74665 -0.560005,-1.57331 -0.56,-2.48 -5e-6,-1.25331 0.373328,-2.38664 1.12,-3.4 0.74666,-1.03997 1.706659,-1.77331 2.88,-2.2 0.826657,-0.29331 1.573323,-0.42664 2.24,-0.4 1.73332,0.0267 3.373318,0.66669 4.92,1.92 l 0.04,0.04 c -1.6e-5,-0.90664 0.03998,-1.66664 0.12,-2.28 -1.7e-5,-0.23997 0.10665,-0.54664 0.32,-0.92 0.26665,-0.66664 1.039982,-1.43997 2.32,-2.32 v -1.2 l -2.04,-1.2 v -1.8 h 1.84 l 0.64,-1.88 h 1.52 l 0.64,1.88 h 1.84 v 1.8 l -2.04,1.2 v 1.2 c 1.199977,0.80003 1.986643,1.57336 2.36,2.32 0.186643,0.42669 0.279976,0.76003 0.28,1 0.02664,0.21336 0.05331,0.57336 0.08,1.08 0.02664,0.48003 0.03998,0.85336 0.04,1.12 l 0.04,-0.04 c 1.519974,-1.25331 3.159972,-1.89331 4.92,-1.92 1.173303,-0.0266 2.293302,0.29336 3.36,0.96 1.0933,0.66669 1.879965,1.54669 2.36,2.64 0.34663,0.74669 0.51996,1.54669 0.52,2.4 -4e-5,1.41335 -0.64003,2.96002 -1.92,4.64 -0.560033,0.74668 -0.960033,1.30668 -1.2,1.68 -0.400032,0.58668 -0.706698,1.18668 -0.92,1.8 -0.586698,1.44001 -0.920031,3.36001 -1,5.76 -0.05336,2.24001 -3.426694,3.36 -10.12,3.36" />
        <path
           style="font-style:normal;font-variant:normal;font-weight:normal;font-stretch:normal;font-size:40px;line-height:125%;font-family:'Chess Cases';-inkscape-font-specification:'Chess Cases';text-align:start;letter-spacing:0px;word-spacing:0px;writing-mode:lr-tb;text-anchor:start;fill:#000000;fill-opacity:1;stroke:none"
           inkscape:connector-curvature="0"
           id="path3892-4-9-5-4"
           d="m 75.779917,186.43646 c -6.640015,0 -10.013345,-1.12 -10.120001,-3.36 -0.106677,-2.45333 -0.426677,-4.37333 -0.96,-5.76 -0.373342,-0.93332 -1.080008,-2.09332 -2.12,-3.48 -0.720006,-0.95999 -1.186673,-1.67999 -1.4,-2.16 -0.373339,-0.74665 -0.560005,-1.57332 -0.56,-2.48 -5e-6,-1.25331 0.373328,-2.38665 1.12,-3.4 0.74666,-1.03998 1.706659,-1.77331 2.88,-2.2 0.826657,-0.29331 1.573323,-0.42664 2.24,-0.4 1.73332,0.0267 3.373318,0.66669 4.92,1.92 l 0.04,0.04 c -1.6e-5,-0.90664 0.03998,-1.66664 0.12,-2.28 -1.7e-5,-0.23998 0.10665,-0.54664 0.32,-0.92 0.26665,-0.66664 1.039982,-1.43997 2.320001,-2.32 v -1.2 l -2.040001,-1.2 v -1.8 h 1.840001 l 0.64,-1.88 h 1.52 l 0.64,1.88 h 1.84 v 1.8 l -2.04,1.2 v 1.2 c 1.19998,0.80003 1.98664,1.57336 2.36,2.32 0.18664,0.42669 0.27997,0.76002 0.28,1 0.0266,0.21336 0.0533,0.57336 0.08,1.08 0.0266,0.48002 0.04,0.85335 0.04,1.12 l 0.04,-0.04 c 1.51997,-1.25331 3.15997,-1.89331 4.92,-1.92 1.1733,-0.0266 2.2933,0.29336 3.36,0.96 1.0933,0.66669 1.87996,1.54669 2.36,2.64 0.34663,0.74669 0.51996,1.54668 0.52,2.4 -4e-5,1.41335 -0.64003,2.96001 -1.92,4.64 -0.56003,0.74668 -0.96003,1.30668 -1.2,1.68 -0.40003,0.58668 -0.7067,1.18668 -0.92,1.8 -0.5867,1.44001 -0.92003,3.36001 -1,5.76 -0.0534,2.24 -3.4267,3.36 -10.12,3.36 m 0,-16.84 c 0.0267,-0.0533 0.13331,-0.22665 0.32,-0.52 0.45331,-0.63998 0.81331,-1.21331 1.08,-1.72 0.26664,-0.50665 0.46664,-0.99998 0.6,-1.48 0.08,-0.71998 0.11998,-1.19998 0.12,-1.44 -2e-5,-1.97331 -0.69336,-2.95998 -2.08,-2.96 -1.44002,2e-5 -2.160019,0.98669 -2.160001,2.96 -1.8e-5,0.34669 0.03998,0.82669 0.120001,1.44 0.26665,0.93335 0.82665,2.00002 1.68,3.2 0.21331,0.29335 0.31998,0.46668 0.32,0.52 m 13.36,-0.08 c -4e-5,-1.49331 -0.5067,-2.65331 -1.52,-3.48 -0.85337,-0.69331 -1.8267,-1.03998 -2.92,-1.04 -1.4667,2e-5 -3.02669,0.73335 -4.68,2.2 -1.97336,1.70668 -3.08002,4.01335 -3.32,6.92 -2e-5,0.24001 0.61331,0.49335 1.84,0.76 1.03997,0.21334 2.78664,0.34668 5.24,0.4 0.42664,0.0267 0.8133,0.04 1.16,0.04 h 0.16 0.72 c 0.1333,-0.21332 0.31997,-0.46666 0.56,-0.76 0.26663,-0.31999 0.58663,-0.70665 0.96,-1.16 0.71997,-1.03999 1.22663,-1.90665 1.52,-2.6 0.18663,-0.50665 0.27996,-0.93332 0.28,-1.28 m -13.36,6.72 c -0.66669,0.29334 -1.86669,0.52001 -3.600001,0.68 -0.906683,0.0533 -2.266681,0.14668 -4.08,0.28 l -1.48,0.12 c 0.346655,1.30667 0.573322,2.70667 0.68,4.2 2.319986,-0.74666 5.14665,-1.11999 8.480001,-1.12 3.35997,1e-5 6.19997,0.37334 8.52,1.12 0.08,-1.62666 0.2933,-3.02666 0.64,-4.2 l -1.44,-0.12 c -0.93336,-0.0533 -2.30669,-0.14666 -4.12,-0.28 -0.96002,-0.10666 -1.57336,-0.17332 -1.84,-0.2 -0.69336,-0.10666 -1.28002,-0.26666 -1.76,-0.48 m -13.360001,-6.72 c -7e-6,0.66668 0.346659,1.56002 1.04,2.68 0.346658,0.53335 0.626658,0.93335 0.84,1.2 l 0.4,0.56 c 0.346657,0.37335 0.693323,0.82668 1.04,1.36 h 0.88 c 1.386654,1e-5 3.133319,-0.10666 5.24,-0.32 2.026651,-0.18666 3.039981,-0.47999 3.040001,-0.88 -0.26669,-2.90665 -1.386686,-5.21332 -3.360001,-6.92 -1.626681,-1.46665 -3.18668,-2.19998 -4.68,-2.2 -0.453344,2e-5 -0.946677,0.0933 -1.48,0.28 -1.146676,0.29335 -1.986675,1.02669 -2.52,2.2 -0.293341,0.61335 -0.440007,1.29335 -0.44,2.04 m 13.360001,15.12 c 1.65331,0 3.29331,-0.10666 4.92,-0.32 1.35997,-0.16 2.03997,-0.37333 2.04,-0.64 -3e-5,-0.42666 -0.61336,-0.73333 -1.84,-0.92 -1.78669,-0.24 -3.48002,-0.36 -5.08,-0.36 -1.62669,0 -3.333351,0.12 -5.120001,0.36 -1.253347,0.18667 -1.880013,0.49334 -1.88,0.92 -1.3e-5,0.37334 1.426652,0.66667 4.28,0.88 0.826651,0.0533 1.719981,0.08 2.680001,0.08" />
      </g>
      <g
         id="g10167-0-6-8-68-7"
         style="stroke:#0050ac;stroke-width:2.8125;stroke-miterlimit:4;stroke-dasharray:none;stroke-opacity:1"
         transform="rotate(-120,575.72917,-76.935697)">
        <path
           sodipodi:nodetypes="cc"
           inkscape:connector-curvature="0"
           id="path10159-4-4-2-6-4"
           d="m 296.71037,520.07089 25.14128,0.57713"
           style="fill:none;fill-opacity:1;stroke:#0050ac;stroke-width:2.8125;stroke-linecap:butt;stroke-linejoin:miter;stroke-miterlimit:4;stroke-dasharray:none;stroke-opacity:1" />
        <path
           sodipodi:nodetypes="ccc"
           inkscape:connector-curvature="0"
           id="path10163-7-4-3-9-4"
           d="m 313.12882,526.06699 9.0531,-5.27567 -9.29406,-5.37934"
           style="fill:none;fill-opacity:1;stroke:#0050ac;stroke-width:2.8125;stroke-linecap:round;stroke-linejoin:round;stroke-miterlimit:4;stroke-dasharray:none;stroke-opacity:1" />
      </g>
      <g
         id="g10167-0-6-8-68-7-2"
         style="stroke:#0050ac;stroke-width:2.8125;stroke-miterlimit:4;stroke-dasharray:none;stroke-opacity:1"
         transform="translate(966.41951,-637.73969)">
        <path
           sodipodi:nodetypes="cc"
           inkscape:connector-curvature="0"
           id="path10159-4-4-2-6-4-6"
           d="m 296.71037,520.07089 25.14128,0.57713"
           style="fill:none;fill-opacity:1;stroke:#0050ac;stroke-width:2.8125;stroke-linecap:butt;stroke-linejoin:miter;stroke-miterlimit:4;stroke-dasharray:none;stroke-opacity:1" />
        <path
           sodipodi:nodetypes="ccc"
           inkscape:connector-curvature="0"
           id="path10163-7-4-3-9-4-0"
           d="m 313.12882,526.06699 9.0531,-5.27567 -9.29406,-5.37934"
           style="fill:none;fill-opacity:1;stroke:#0050ac;stroke-width:2.8125;stroke-linecap:round;stroke-linejoin:round;stroke-miterlimit:4;stroke-dasharray:none;stroke-opacity:1" />
      </g>
      <g
         id="g10167-0-6-8-68-7-1"
         style="stroke:#0050ac;stroke-width:2.8125;stroke-miterlimit:4;stroke-dasharray:none;stroke-opacity:1"
         transform="rotate(-60,207.2962,-634.79496)">
        <path
           sodipodi:nodetypes="cc"
           inkscape:connector-curvature="0"
           id="path10159-4-4-2-6-4-8"
           d="m 296.71037,520.07089 25.14128,0.57713"
           style="fill:none;fill-opacity:1;stroke:#0050ac;stroke-width:2.8125;stroke-linecap:butt;stroke-linejoin:miter;stroke-miterlimit:4;stroke-dasharray:none;stroke-opacity:1" />
        <path
           sodipodi:nodetypes="ccc"
           inkscape:connector-curvature="0"
           id="path10163-7-4-3-9-4-3"
           d="m 313.12882,526.06699 9.0531,-5.27567 -9.29406,-5.37934"
           style="fill:none;fill-opacity:1;stroke:#0050ac;stroke-width:2.8125;stroke-linecap:round;stroke-linejoin:round;stroke-miterlimit:4;stroke-dasharray:none;stroke-opacity:1" />
      </g>
      <g
         id="g10167-0-6-8-68-7-28"
         style="stroke:#0050ac;stroke-width:2.8125;stroke-miterlimit:4;stroke-dasharray:none;stroke-opacity:1"
         transform="rotate(60,1311.7995,1038.5508)">
        <path
           sodipodi:nodetypes="cc"
           inkscape:connector-curvature="0"
           id="path10159-4-4-2-6-4-65"
           d="m 296.71037,520.07089 25.14128,0.57713"
           style="fill:none;fill-opacity:1;stroke:#0050ac;stroke-width:2.8125;stroke-linecap:butt;stroke-linejoin:miter;stroke-miterlimit:4;stroke-dasharray:none;stroke-opacity:1" />
        <path
           sodipodi:nodetypes="ccc"
           inkscape:connector-curvature="0"
           id="path10163-7-4-3-9-4-5"
           d="m 313.12882,526.06699 9.0531,-5.27567 -9.29406,-5.37934"
           style="fill:none;fill-opacity:1;stroke:#0050ac;stroke-width:2.8125;stroke-linecap:round;stroke-linejoin:round;stroke-miterlimit:4;stroke-dasharray:none;stroke-opacity:1" />
      </g>
      <g
         id="g10167-0-6-8-68-7-8"
         style="stroke:#0050ac;stroke-width:2.8125;stroke-miterlimit:4;stroke-dasharray:none;stroke-opacity:1"
         transform="rotate(120,943.7323,480.89569)">
        <path
           sodipodi:nodetypes="cc"
           inkscape:connector-curvature="0"
           id="path10159-4-4-2-6-4-9"
           d="m 296.71037,520.07089 25.14128,0.57713"
           style="fill:none;fill-opacity:1;stroke:#0050ac;stroke-width:2.8125;stroke-linecap:butt;stroke-linejoin:miter;stroke-miterlimit:4;stroke-dasharray:none;stroke-opacity:1" />
        <path
           sodipodi:nodetypes="ccc"
           inkscape:connector-curvature="0"
           id="path10163-7-4-3-9-4-2"
           d="m 313.12882,526.06699 9.0531,-5.27567 -9.29406,-5.37934"
           style="fill:none;fill-opacity:1;stroke:#0050ac;stroke-width:2.8125;stroke-linecap:round;stroke-linejoin:round;stroke-miterlimit:4;stroke-dasharray:none;stroke-opacity:1" />
      </g>
      <g
         id="g10167-0-6-8-68-7-7"
         style="stroke:#0050ac;stroke-width:2.8125;stroke-miterlimit:4;stroke-dasharray:none;stroke-opacity:1"
         transform="rotate(-180,759.80117,202.01732)">
        <path
           sodipodi:nodetypes="cc"
           inkscape:connector-curvature="0"
           id="path10159-4-4-2-6-4-0"
           d="m 296.71037,520.07089 25.14128,0.57713"
           style="fill:none;fill-opacity:1;stroke:#0050ac;stroke-width:2.8125;stroke-linecap:butt;stroke-linejoin:miter;stroke-miterlimit:4;stroke-dasharray:none;stroke-opacity:1" />
        <path
           sodipodi:nodetypes="ccc"
           inkscape:connector-curvature="0"
           id="path10163-7-4-3-9-4-4"
           d="m 313.12882,526.06699 9.0531,-5.27567 -9.29406,-5.37934"
           style="fill:none;fill-opacity:1;stroke:#0050ac;stroke-width:2.8125;stroke-linecap:round;stroke-linejoin:round;stroke-miterlimit:4;stroke-dasharray:none;stroke-opacity:1" />
      </g>
    </g>
  </g>
</svg>
