<?xml version="1.0" encoding="UTF-8" standalone="no"?>
<!-- Created with Inkscape (http://www.inkscape.org/) -->

<svg
   xmlns:dc="http://purl.org/dc/elements/1.1/"
   xmlns:cc="http://creativecommons.org/ns#"
   xmlns:rdf="http://www.w3.org/1999/02/22-rdf-syntax-ns#"
   xmlns:svg="http://www.w3.org/2000/svg"
   xmlns="http://www.w3.org/2000/svg"
   xmlns:sodipodi="http://sodipodi.sourceforge.net/DTD/sodipodi-0.dtd"
   xmlns:inkscape="http://www.inkscape.org/namespaces/inkscape"
   width="65.234146mm"
   height="67.168533mm"
   viewBox="0 0 65.234146 67.168533"
   version="1.1"
   id="svg5357"
   inkscape:version="0.92.3 (2405546, 2018-03-11)"
   sodipodi:docname="move_pawn_first.svg">
  <defs
     id="defs5351">
    <filter
       inkscape:collect="always"
       id="filter4054-5-3-1-94"
       x="-0.025609033"
       width="1.0512182"
       y="-0.16676886"
       height="1.3335377"
       style="color-interpolation-filters:sRGB">
      <feGaussianBlur
         inkscape:collect="always"
         stdDeviation="2.40981"
         id="feGaussianBlur4056-9-7-8-27" />
    </filter>
    <filter
       inkscape:collect="always"
       id="filter4054-5-3-1-9-6"
       x="-0.025609033"
       width="1.0512182"
       y="-0.16676886"
       height="1.3335377"
       style="color-interpolation-filters:sRGB">
      <feGaussianBlur
         inkscape:collect="always"
         stdDeviation="2.40981"
         id="feGaussianBlur4056-9-7-8-7-0" />
    </filter>
    <filter
       inkscape:collect="always"
       id="filter4054-5-3-1-5-5"
       x="-0.025609033"
       width="1.0512182"
       y="-0.16676886"
       height="1.3335377"
       style="color-interpolation-filters:sRGB">
      <feGaussianBlur
         inkscape:collect="always"
         stdDeviation="2.40981"
         id="feGaussianBlur4056-9-7-8-4-3" />
    </filter>
    <filter
       inkscape:collect="always"
       id="filter4054-5-3-1-0-7"
       x="-0.025609033"
       width="1.0512182"
       y="-0.16676886"
       height="1.3335377"
       style="color-interpolation-filters:sRGB">
      <feGaussianBlur
         inkscape:collect="always"
         stdDeviation="2.40981"
         id="feGaussianBlur4056-9-7-8-78-2" />
    </filter>
    <filter
       inkscape:collect="always"
       id="filter4054-5-3-1-99-2-8"
       x="-0.025609033"
       width="1.0512182"
       y="-0.16676886"
       height="1.3335377"
       style="color-interpolation-filters:sRGB">
      <feGaussianBlur
         inkscape:collect="always"
         stdDeviation="2.40981"
         id="feGaussianBlur4056-9-7-8-2-7-8" />
    </filter>
    <filter
       inkscape:collect="always"
       id="filter4054-5-3-1-5-0-7"
       x="-0.025609033"
       width="1.0512182"
       y="-0.16676886"
       height="1.3335377"
       style="color-interpolation-filters:sRGB">
      <feGaussianBlur
         inkscape:collect="always"
         stdDeviation="2.40981"
         id="feGaussianBlur4056-9-7-8-4-1-4" />
    </filter>
    <filter
       inkscape:collect="always"
       id="filter4054-5-3-1-4-6-6"
       x="-0.025609033"
       width="1.0512182"
       y="-0.16676886"
       height="1.3335377"
       style="color-interpolation-filters:sRGB">
      <feGaussianBlur
         inkscape:collect="always"
         stdDeviation="2.40981"
         id="feGaussianBlur4056-9-7-8-5-0-0" />
    </filter>
  </defs>
  <sodipodi:namedview
     id="base"
     pagecolor="#ffffff"
     bordercolor="#666666"
     borderopacity="1.0"
     inkscape:pageopacity="0.0"
     inkscape:pageshadow="2"
     inkscape:zoom="0.35"
     inkscape:cx="337.56285"
     inkscape:cy="126.93266"
     inkscape:document-units="mm"
     inkscape:current-layer="layer1"
     showgrid="false"
     inkscape:window-width="1920"
     inkscape:window-height="1046"
     inkscape:window-x="-11"
     inkscape:window-y="-11"
     inkscape:window-maximized="1" />
  <metadata
     id="metadata5354">
    <rdf:RDF>
      <cc:Work
         rdf:about="">
        <dc:format>image/svg+xml</dc:format>
        <dc:type
           rdf:resource="http://purl.org/dc/dcmitype/StillImage" />
        <dc:title></dc:title>
      </cc:Work>
    </rdf:RDF>
  </metadata>
  <g
     inkscape:label="Ebene 1"
     inkscape:groupmode="layer"
     id="layer1"
     transform="translate(310.42958,-115.24907)">
    <g
       transform="matrix(0.28222223,0,0,0.28222223,-738.97184,-16.591292)"
       id="g18106">
      <path
         inkscape:connector-curvature="0"
         id="path3065-9-0"
         d="m 1541.9712,640.46444 23.0145,-13.2874 23.0144,13.2874 v 26.5748 l -23.0144,13.2874 -23.0145,-13.2874 z"
         style="fill:#352411;fill-opacity:1;stroke:#000000;stroke-width:1px;stroke-linecap:butt;stroke-linejoin:miter;stroke-opacity:1" />
      <path
         inkscape:connector-curvature="0"
         id="path3065-3-5-44"
         d="m 1634.029,640.46444 23.0145,-13.2874 23.0144,13.2874 v 26.5748 l -23.0144,13.2874 -23.0145,-13.2874 z"
         style="fill:#c48240;fill-opacity:1;stroke:#000000;stroke-width:1px;stroke-linecap:butt;stroke-linejoin:miter;stroke-opacity:1" />
      <path
         inkscape:connector-curvature="0"
         id="path3065-5-7-77"
         d="m 1588.0001,640.46444 23.0145,-13.2874 23.0144,13.2874 v 26.5748 l -23.0144,13.2874 -23.0145,-13.2874 z"
         style="fill:#f4edde;fill-opacity:1;stroke:#000000;stroke-width:1px;stroke-linecap:butt;stroke-linejoin:miter;stroke-opacity:1" />
      <path
         inkscape:connector-curvature="0"
         id="path3065-6-0"
         d="m 1680.0579,640.46443 23.0145,-13.2874 23.0144,13.2874 v 26.5748 l -23.0144,13.2874 -23.0145,-13.2874 z"
         style="fill:#352411;fill-opacity:1;stroke:#000000;stroke-width:1px;stroke-linecap:butt;stroke-linejoin:miter;stroke-opacity:1" />
      <path
         inkscape:connector-curvature="0"
         id="path3065-3-5-7-33"
         d="m 1564.9857,600.60223 23.0145,-13.2874 23.0144,13.2874 v 26.5748 l -23.0144,13.2874 -23.0145,-13.2874 z"
         style="fill:#c48240;fill-opacity:1;stroke:#000000;stroke-width:1px;stroke-linecap:butt;stroke-linejoin:miter;stroke-opacity:1" />
      <path
         inkscape:connector-curvature="0"
         id="path3065-5-7-0-15"
         d="m 1518.9568,600.60223 23.0145,-13.2874 23.0144,13.2874 v 26.5748 l -23.0144,13.2874 -23.0145,-13.2874 z"
         style="fill:#f4edde;fill-opacity:1;stroke:#000000;stroke-width:1px;stroke-linecap:butt;stroke-linejoin:miter;stroke-opacity:1" />
      <path
         inkscape:connector-curvature="0"
         id="path3065-6-5-3"
         d="m 1611.0146,600.60223 23.0145,-13.2874 23.0144,13.2874 v 26.5748 l -23.0144,13.2874 -23.0145,-13.2874 z"
         style="fill:#352411;fill-opacity:1;stroke:#000000;stroke-width:1px;stroke-linecap:butt;stroke-linejoin:miter;stroke-opacity:1" />
      <path
         inkscape:connector-curvature="0"
         id="path3065-3-4-2-9"
         d="m 1703.0725,600.60223 23.0144,-13.2874 23.0145,13.2874 v 26.5748 l -23.0145,13.2874 -23.0144,-13.2874 z"
         style="fill:#c48240;fill-opacity:1;stroke:#000000;stroke-width:1px;stroke-linecap:butt;stroke-linejoin:miter;stroke-opacity:1" />
      <path
         inkscape:connector-curvature="0"
         id="path3065-5-2-8-1"
         d="m 1657.0435,600.60223 23.0145,-13.2874 23.0145,13.2874 v 26.5748 l -23.0145,13.2874 -23.0145,-13.2874 z"
         style="fill:#f4edde;fill-opacity:1;stroke:#000000;stroke-width:1px;stroke-linecap:butt;stroke-linejoin:miter;stroke-opacity:1" />
      <path
         inkscape:connector-curvature="0"
         id="path3065-9-9-1"
         d="m 1541.9712,560.74002 23.0145,-13.2874 23.0144,13.2874 v 26.5748 l -23.0144,13.2874 -23.0145,-13.2874 z"
         style="fill:#352411;fill-opacity:1;stroke:#000000;stroke-width:1px;stroke-linecap:butt;stroke-linejoin:miter;stroke-opacity:1" />
      <path
         inkscape:connector-curvature="0"
         id="path3065-3-5-0-6"
         d="m 1634.029,560.74002 23.0145,-13.2874 23.0145,13.2874 v 26.5748 l -23.0145,13.2874 -23.0145,-13.2874 z"
         style="fill:#c48240;fill-opacity:1;stroke:#000000;stroke-width:1px;stroke-linecap:butt;stroke-linejoin:miter;stroke-opacity:1" />
      <path
         inkscape:connector-curvature="0"
         id="path3065-5-7-8-2"
         d="m 1588.0001,560.74002 23.0145,-13.2874 23.0144,13.2874 v 26.5748 l -23.0144,13.2874 -23.0145,-13.2874 z"
         style="fill:#f4edde;fill-opacity:1;stroke:#000000;stroke-width:1px;stroke-linecap:butt;stroke-linejoin:miter;stroke-opacity:1" />
      <path
         inkscape:connector-curvature="0"
         id="path3065-6-55-6"
         d="m 1680.0579,560.74002 23.0145,-13.2874 23.0145,13.2874 v 26.5748 l -23.0145,13.2874 -23.0145,-13.2874 z"
         style="fill:#352411;fill-opacity:1;stroke:#000000;stroke-width:1px;stroke-linecap:butt;stroke-linejoin:miter;stroke-opacity:1" />
      <path
         inkscape:connector-curvature="0"
         id="path3065-3-5-3-47"
         d="m 1564.9857,520.87782 23.0145,-13.2874 23.0145,13.2874 v 26.5748 l -23.0145,13.2874 -23.0145,-13.2874 z"
         style="fill:#c48240;fill-opacity:1;stroke:#000000;stroke-width:1px;stroke-linecap:butt;stroke-linejoin:miter;stroke-opacity:1" />
      <path
         inkscape:connector-curvature="0"
         id="path3065-5-7-7-3"
         d="m 1518.9568,520.87782 23.0144,-13.2874 23.0145,13.2874 v 26.5748 l -23.0145,13.2874 -23.0144,-13.2874 z"
         style="fill:#f4edde;fill-opacity:1;stroke:#000000;stroke-width:1px;stroke-linecap:butt;stroke-linejoin:miter;stroke-opacity:1" />
      <path
         inkscape:connector-curvature="0"
         id="path3065-6-7-6"
         d="m 1611.0146,520.87782 23.0145,-13.2874 23.0145,13.2874 v 26.5748 l -23.0145,13.2874 -23.0145,-13.2874 z"
         style="fill:#352411;fill-opacity:1;stroke:#000000;stroke-width:1px;stroke-linecap:butt;stroke-linejoin:miter;stroke-opacity:1" />
      <path
         inkscape:connector-curvature="0"
         id="path3065-3-4-4-7"
         d="m 1703.0725,520.87782 23.0144,-13.2874 23.0145,13.2874 v 26.5748 l -23.0145,13.2874 -23.0144,-13.2874 z"
         style="fill:#c48240;fill-opacity:1;stroke:#000000;stroke-width:1px;stroke-linecap:butt;stroke-linejoin:miter;stroke-opacity:1" />
      <path
         inkscape:connector-curvature="0"
         id="path3065-5-2-5-41"
         d="m 1657.0436,520.87782 23.0144,-13.2874 23.0145,13.2874 v 26.5748 l -23.0145,13.2874 -23.0144,-13.2874 z"
         style="fill:#f4edde;fill-opacity:1;stroke:#000000;stroke-width:1px;stroke-linecap:butt;stroke-linejoin:miter;stroke-opacity:1" />
      <path
         inkscape:connector-curvature="0"
         id="path3065-9-2-2"
         d="m 1541.9712,481.01561 23.0145,-13.2874 23.0144,13.2874 v 26.5748 l -23.0144,13.2874 -23.0145,-13.2874 z"
         style="fill:#352411;fill-opacity:1;stroke:#000000;stroke-width:1px;stroke-linecap:butt;stroke-linejoin:miter;stroke-opacity:1" />
      <path
         inkscape:connector-curvature="0"
         id="path3065-3-5-1-65"
         d="m 1634.029,481.01561 23.0145,-13.2874 23.0144,13.2874 v 26.5748 l -23.0144,13.2874 -23.0145,-13.2874 z"
         style="fill:#c48240;fill-opacity:1;stroke:#000000;stroke-width:1px;stroke-linecap:butt;stroke-linejoin:miter;stroke-opacity:1" />
      <path
         inkscape:connector-curvature="0"
         id="path3065-5-7-5-3"
         d="m 1588.0001,481.01561 23.0145,-13.2874 23.0144,13.2874 v 26.5748 l -23.0144,13.2874 -23.0145,-13.2874 z"
         style="fill:#f4edde;fill-opacity:1;stroke:#000000;stroke-width:1px;stroke-linecap:butt;stroke-linejoin:miter;stroke-opacity:1" />
      <path
         inkscape:connector-curvature="0"
         id="path3065-6-2-8"
         d="m 1680.0579,481.01561 23.0145,-13.2874 23.0144,13.2874 v 26.5748 l -23.0144,13.2874 -23.0145,-13.2874 z"
         style="fill:#352411;fill-opacity:1;stroke:#000000;stroke-width:1px;stroke-linecap:butt;stroke-linejoin:miter;stroke-opacity:1" />
      <text
         transform="rotate(-30)"
         id="text5401-11"
         y="1403.8"
         x="1020.5801"
         style="font-style:normal;font-weight:normal;font-size:25px;line-height:1.25;font-family:sans-serif;letter-spacing:0px;word-spacing:0px;fill:#000000;fill-opacity:1;stroke:none;stroke-width:0.9375"
         xml:space="preserve"><tspan
           style="font-style:normal;font-variant:normal;font-weight:normal;font-stretch:normal;font-family:'Liberation Sans';-inkscape-font-specification:'Liberation Sans';stroke-width:0.9375"
           y="1403.8"
           x="1020.5801"
           id="tspan5399-8"
           sodipodi:role="line">4</tspan></text>
      <text
         transform="rotate(-30)"
         id="text5405-0"
         y="1426.6375"
         x="1060.4789"
         style="font-style:normal;font-weight:normal;font-size:25px;line-height:1.25;font-family:sans-serif;letter-spacing:0px;word-spacing:0px;fill:#000000;fill-opacity:1;stroke:none;stroke-width:0.9375"
         xml:space="preserve"><tspan
           style="font-style:normal;font-variant:normal;font-weight:normal;font-stretch:normal;font-size:25px;font-family:'Liberation Sans';-inkscape-font-specification:'Liberation Sans, Normal';font-variant-ligatures:normal;font-variant-caps:normal;font-variant-numeric:normal;font-feature-settings:normal;text-align:start;writing-mode:lr-tb;text-anchor:start;stroke-width:0.9375"
           y="1426.6375"
           x="1060.4789"
           id="tspan5403-0"
           sodipodi:role="line">5</tspan></text>
      <text
         transform="rotate(-30)"
         id="text5409-54"
         y="1449.8168"
         x="1100.1274"
         style="font-style:normal;font-weight:normal;font-size:25px;line-height:1.25;font-family:sans-serif;letter-spacing:0px;word-spacing:0px;fill:#000000;fill-opacity:1;stroke:none;stroke-width:0.9375"
         xml:space="preserve"><tspan
           style="font-style:normal;font-variant:normal;font-weight:normal;font-stretch:normal;font-size:25px;font-family:'Liberation Sans';-inkscape-font-specification:'Liberation Sans, Normal';font-variant-ligatures:normal;font-variant-caps:normal;font-variant-numeric:normal;font-feature-settings:normal;text-align:start;writing-mode:lr-tb;text-anchor:start;stroke-width:0.9375"
           y="1449.8168"
           x="1100.1274"
           id="tspan5407-9"
           sodipodi:role="line">6</tspan></text>
      <text
         transform="rotate(-30)"
         id="text5413-8"
         y="1472.8434"
         x="1140.1179"
         style="font-style:normal;font-weight:normal;font-size:25px;line-height:1.25;font-family:sans-serif;letter-spacing:0px;word-spacing:0px;fill:#000000;fill-opacity:1;stroke:none;stroke-width:0.9375"
         xml:space="preserve"><tspan
           style="font-style:normal;font-variant:normal;font-weight:normal;font-stretch:normal;font-size:25px;font-family:'Liberation Sans';-inkscape-font-specification:'Liberation Sans, Normal';font-variant-ligatures:normal;font-variant-caps:normal;font-variant-numeric:normal;font-feature-settings:normal;text-align:start;writing-mode:lr-tb;text-anchor:start;stroke-width:0.9375"
           y="1472.8434"
           x="1140.1179"
           id="tspan5411-4"
           sodipodi:role="line">7</tspan></text>
      <g
         transform="translate(1488.2858,479.63537)"
         id="g4178-5-5-8-3">
        <path
           style="font-style:normal;font-variant:normal;font-weight:normal;font-stretch:normal;font-size:40px;line-height:125%;font-family:'Chess Cases';-inkscape-font-specification:'Chess Cases';text-align:start;letter-spacing:0px;word-spacing:0px;writing-mode:lr-tb;text-anchor:start;fill:#000000;fill-opacity:0.50196078;stroke:none;filter:url(#filter4054-5-3-1-94)"
           sodipodi:nodetypes="cccccsccccccccccccccccccccccccccccccccc"
           inkscape:connector-curvature="0"
           id="path3879-5-7-5-7-8"
           d="m 75.779916,186.43646 c -6.640014,0 -10.013344,-1.11999 -10.12,-3.36 -0.106677,-2.45332 -0.426677,-4.37332 -0.96,-5.76 -0.373342,-0.93332 -1.080008,-2.09332 -2.12,-3.48 -0.720006,-0.95998 -1.186673,-1.67998 -1.4,-2.16 -0.373339,-0.74665 -0.560005,-1.57331 -0.56,-2.48 -5e-6,-1.25331 0.373328,-2.38664 1.12,-3.4 0.74666,-1.03997 1.706659,-1.77331 2.88,-2.2 0.826657,-0.29331 1.573323,-0.42664 2.24,-0.4 1.73332,0.0267 3.373318,0.66669 4.92,1.92 l 0.04,0.04 c -1.6e-5,-0.90664 0.03998,-1.66664 0.12,-2.28 -1.7e-5,-0.23997 0.10665,-0.54664 0.32,-0.92 0.26665,-0.66664 1.039982,-1.43997 2.32,-2.32 v -1.2 l -2.04,-1.2 v -1.8 h 1.84 l 0.64,-1.88 h 1.52 l 0.64,1.88 h 1.84 v 1.8 l -2.04,1.2 v 1.2 c 1.199977,0.80003 1.986643,1.57336 2.36,2.32 0.186643,0.42669 0.279976,0.76003 0.28,1 0.02664,0.21336 0.05331,0.57336 0.08,1.08 0.02664,0.48003 0.03998,0.85336 0.04,1.12 l 0.04,-0.04 c 1.519974,-1.25331 3.159972,-1.89331 4.92,-1.92 1.173303,-0.0266 2.293302,0.29336 3.36,0.96 1.0933,0.66669 1.879965,1.54669 2.36,2.64 0.34663,0.74669 0.51996,1.54669 0.52,2.4 -4e-5,1.41335 -0.64003,2.96002 -1.92,4.64 -0.560033,0.74668 -0.960033,1.30668 -1.2,1.68 -0.400032,0.58668 -0.706698,1.18668 -0.92,1.8 -0.586698,1.44001 -0.920031,3.36001 -1,5.76 -0.05336,2.24001 -3.426694,3.36 -10.12,3.36" />
        <path
           style="font-style:normal;font-variant:normal;font-weight:normal;font-stretch:normal;font-size:40px;line-height:125%;font-family:'Chess Cases';-inkscape-font-specification:'Chess Cases';text-align:start;letter-spacing:0px;word-spacing:0px;writing-mode:lr-tb;text-anchor:start;fill:#efd6a2;fill-opacity:1;stroke:none"
           sodipodi:nodetypes="cccccsccccccccccccccccccccccccccccccccc"
           inkscape:connector-curvature="0"
           id="path3879-1-3-8-1"
           d="m 75.779916,186.43646 c -6.640014,0 -10.013344,-1.11999 -10.12,-3.36 -0.106677,-2.45332 -0.426677,-4.37332 -0.96,-5.76 -0.373342,-0.93332 -1.080008,-2.09332 -2.12,-3.48 -0.720006,-0.95998 -1.186673,-1.67998 -1.4,-2.16 -0.373339,-0.74665 -0.560005,-1.57331 -0.56,-2.48 -5e-6,-1.25331 0.373328,-2.38664 1.12,-3.4 0.74666,-1.03997 1.706659,-1.77331 2.88,-2.2 0.826657,-0.29331 1.573323,-0.42664 2.24,-0.4 1.73332,0.0267 3.373318,0.66669 4.92,1.92 l 0.04,0.04 c -1.6e-5,-0.90664 0.03998,-1.66664 0.12,-2.28 -1.7e-5,-0.23997 0.10665,-0.54664 0.32,-0.92 0.26665,-0.66664 1.039982,-1.43997 2.32,-2.32 v -1.2 l -2.04,-1.2 v -1.8 h 1.84 l 0.64,-1.88 h 1.52 l 0.64,1.88 h 1.84 v 1.8 l -2.04,1.2 v 1.2 c 1.199977,0.80003 1.986643,1.57336 2.36,2.32 0.186643,0.42669 0.279976,0.76003 0.28,1 0.02664,0.21336 0.05331,0.57336 0.08,1.08 0.02664,0.48003 0.03998,0.85336 0.04,1.12 l 0.04,-0.04 c 1.519974,-1.25331 3.159972,-1.89331 4.92,-1.92 1.173303,-0.0266 2.293302,0.29336 3.36,0.96 1.0933,0.66669 1.879965,1.54669 2.36,2.64 0.34663,0.74669 0.51996,1.54669 0.52,2.4 -4e-5,1.41335 -0.64003,2.96002 -1.92,4.64 -0.560033,0.74668 -0.960033,1.30668 -1.2,1.68 -0.400032,0.58668 -0.706698,1.18668 -0.92,1.8 -0.586698,1.44001 -0.920031,3.36001 -1,5.76 -0.05336,2.24001 -3.426694,3.36 -10.12,3.36" />
        <path
           style="font-style:normal;font-variant:normal;font-weight:normal;font-stretch:normal;font-size:40px;line-height:125%;font-family:'Chess Cases';-inkscape-font-specification:'Chess Cases';text-align:start;letter-spacing:0px;word-spacing:0px;writing-mode:lr-tb;text-anchor:start;fill:#000000;fill-opacity:1;stroke:none"
           inkscape:connector-curvature="0"
           id="path3892-4-9-7-7"
           d="m 75.779917,186.43646 c -6.640015,0 -10.013345,-1.12 -10.120001,-3.36 -0.106677,-2.45333 -0.426677,-4.37333 -0.96,-5.76 -0.373342,-0.93332 -1.080008,-2.09332 -2.12,-3.48 -0.720006,-0.95999 -1.186673,-1.67999 -1.4,-2.16 -0.373339,-0.74665 -0.560005,-1.57332 -0.56,-2.48 -5e-6,-1.25331 0.373328,-2.38665 1.12,-3.4 0.74666,-1.03998 1.706659,-1.77331 2.88,-2.2 0.826657,-0.29331 1.573323,-0.42664 2.24,-0.4 1.73332,0.0267 3.373318,0.66669 4.92,1.92 l 0.04,0.04 c -1.6e-5,-0.90664 0.03998,-1.66664 0.12,-2.28 -1.7e-5,-0.23998 0.10665,-0.54664 0.32,-0.92 0.26665,-0.66664 1.039982,-1.43997 2.320001,-2.32 v -1.2 l -2.040001,-1.2 v -1.8 h 1.840001 l 0.64,-1.88 h 1.52 l 0.64,1.88 h 1.84 v 1.8 l -2.04,1.2 v 1.2 c 1.19998,0.80003 1.98664,1.57336 2.36,2.32 0.18664,0.42669 0.27997,0.76002 0.28,1 0.0266,0.21336 0.0533,0.57336 0.08,1.08 0.0266,0.48002 0.04,0.85335 0.04,1.12 l 0.04,-0.04 c 1.51997,-1.25331 3.15997,-1.89331 4.92,-1.92 1.1733,-0.0266 2.2933,0.29336 3.36,0.96 1.0933,0.66669 1.87996,1.54669 2.36,2.64 0.34663,0.74669 0.51996,1.54668 0.52,2.4 -4e-5,1.41335 -0.64003,2.96001 -1.92,4.64 -0.56003,0.74668 -0.96003,1.30668 -1.2,1.68 -0.40003,0.58668 -0.7067,1.18668 -0.92,1.8 -0.5867,1.44001 -0.92003,3.36001 -1,5.76 -0.0534,2.24 -3.4267,3.36 -10.12,3.36 m 0,-16.84 c 0.0267,-0.0533 0.13331,-0.22665 0.32,-0.52 0.45331,-0.63998 0.81331,-1.21331 1.08,-1.72 0.26664,-0.50665 0.46664,-0.99998 0.6,-1.48 0.08,-0.71998 0.11998,-1.19998 0.12,-1.44 -2e-5,-1.97331 -0.69336,-2.95998 -2.08,-2.96 -1.44002,2e-5 -2.160019,0.98669 -2.160001,2.96 -1.8e-5,0.34669 0.03998,0.82669 0.120001,1.44 0.26665,0.93335 0.82665,2.00002 1.68,3.2 0.21331,0.29335 0.31998,0.46668 0.32,0.52 m 13.36,-0.08 c -4e-5,-1.49331 -0.5067,-2.65331 -1.52,-3.48 -0.85337,-0.69331 -1.8267,-1.03998 -2.92,-1.04 -1.4667,2e-5 -3.02669,0.73335 -4.68,2.2 -1.97336,1.70668 -3.08002,4.01335 -3.32,6.92 -2e-5,0.24001 0.61331,0.49335 1.84,0.76 1.03997,0.21334 2.78664,0.34668 5.24,0.4 0.42664,0.0267 0.8133,0.04 1.16,0.04 h 0.16 0.72 c 0.1333,-0.21332 0.31997,-0.46666 0.56,-0.76 0.26663,-0.31999 0.58663,-0.70665 0.96,-1.16 0.71997,-1.03999 1.22663,-1.90665 1.52,-2.6 0.18663,-0.50665 0.27996,-0.93332 0.28,-1.28 m -13.36,6.72 c -0.66669,0.29334 -1.86669,0.52001 -3.600001,0.68 -0.906683,0.0533 -2.266681,0.14668 -4.08,0.28 l -1.48,0.12 c 0.346655,1.30667 0.573322,2.70667 0.68,4.2 2.319986,-0.74666 5.14665,-1.11999 8.480001,-1.12 3.35997,1e-5 6.19997,0.37334 8.52,1.12 0.08,-1.62666 0.2933,-3.02666 0.64,-4.2 l -1.44,-0.12 c -0.93336,-0.0533 -2.30669,-0.14666 -4.12,-0.28 -0.96002,-0.10666 -1.57336,-0.17332 -1.84,-0.2 -0.69336,-0.10666 -1.28002,-0.26666 -1.76,-0.48 m -13.360001,-6.72 c -7e-6,0.66668 0.346659,1.56002 1.04,2.68 0.346658,0.53335 0.626658,0.93335 0.84,1.2 l 0.4,0.56 c 0.346657,0.37335 0.693323,0.82668 1.04,1.36 h 0.88 c 1.386654,1e-5 3.133319,-0.10666 5.24,-0.32 2.026651,-0.18666 3.039981,-0.47999 3.040001,-0.88 -0.26669,-2.90665 -1.386686,-5.21332 -3.360001,-6.92 -1.626681,-1.46665 -3.18668,-2.19998 -4.68,-2.2 -0.453344,2e-5 -0.946677,0.0933 -1.48,0.28 -1.146676,0.29335 -1.986675,1.02669 -2.52,2.2 -0.293341,0.61335 -0.440007,1.29335 -0.44,2.04 m 13.360001,15.12 c 1.65331,0 3.29331,-0.10666 4.92,-0.32 1.35997,-0.16 2.03997,-0.37333 2.04,-0.64 -3e-5,-0.42666 -0.61336,-0.73333 -1.84,-0.92 -1.78669,-0.24 -3.48002,-0.36 -5.08,-0.36 -1.62669,0 -3.333351,0.12 -5.120001,0.36 -1.253347,0.18667 -1.880013,0.49334 -1.88,0.92 -1.3e-5,0.37334 1.426652,0.66667 4.28,0.88 0.826651,0.0533 1.719981,0.08 2.680001,0.08" />
      </g>
      <g
         id="g4183-9-3-8-2"
         transform="translate(1486.5172,485.95538)">
        <path
           style="font-style:normal;font-variant:normal;font-weight:normal;font-stretch:normal;font-size:40px;line-height:125%;font-family:'Chess Cases';-inkscape-font-specification:'Chess Cases';text-align:start;letter-spacing:0px;word-spacing:0px;writing-mode:lr-tb;text-anchor:start;fill:#000000;fill-opacity:0.50196078;stroke:none;filter:url(#filter4054-5-3-1-94)"
           sodipodi:nodetypes="ccccccccccccccccccccccccccccccccccccsccccsccccccccccccccccsccccccccccccccccccccccccc"
           inkscape:connector-curvature="0"
           id="path3881-2-2-9-0-1"
           d="m 124.51739,151.63646 c 0.77331,4e-5 1.42664,0.28004 1.96,0.84 0.53331,0.53337 0.79998,1.1867 0.8,1.96 -2e-5,0.24003 -0.13336,0.6667 -0.4,1.28 -0.29336,0.7467 -0.45336,1.20003 -0.48,1.36 -0.13336,0.53336 -0.20002,1.25336 -0.2,2.16 -2e-5,0.6667 0.0933,1.70669 0.28,3.12 0.13331,1.09336 0.39998,2.46669 0.8,4.12 1.78664,-3.78664 2.67997,-6.63997 2.68,-8.56 -3e-5,-0.4533 -0.0667,-0.95997 -0.2,-1.52 -0.0534,-0.2933 -0.08,-0.50663 -0.08,-0.64 -3e-5,-0.7733 0.26664,-1.42663 0.8,-1.96 0.55997,-0.55996 1.21331,-0.83996 1.96,-0.84 0.7733,4e-5 1.43997,0.28004 2,0.84 0.55997,0.53337 0.83997,1.1867 0.84,1.96 -3e-5,0.88003 -0.29336,1.56003 -0.88,2.04 -0.72003,0.45336 -1.16003,1.2667 -1.32,2.44 -0.0534,0.50669 -0.08,1.16003 -0.08,1.96 -3e-5,1.04003 0.08,2.44002 0.24,4.2 2.15997,-2.18664 3.23997,-3.99997 3.24,-5.44 -3e-5,-0.21331 -0.0534,-0.58664 -0.16,-1.12 -0.0534,-0.39997 -0.08,-0.67997 -0.08,-0.84 -3e-5,-0.74664 0.26663,-1.39997 0.8,-1.96 0.55997,-0.55997 1.2133,-0.83997 1.96,-0.84 0.7733,3e-5 1.43996,0.28003 2,0.84 0.55996,0.56003 0.83996,1.21336 0.84,1.96 -4e-5,1.36003 -0.77337,2.38669 -2.32,3.08 -0.0534,0.96003 -0.20004,2.06669 -0.44,3.32 -0.13337,0.77336 -0.48003,2.24002 -1.04,4.4 l -0.32,1.32 c -3e-5,0.48002 -0.53337,1.26668 -1.6,2.36 -1.41336,1.44001 -2.12003,2.56001 -2.12,3.36 -3e-5,0.32001 0.15997,0.81334 0.48,1.48 0.4533,0.93334 0.6933,1.42668 0.72,1.48 0.1333,0.37334 0.19997,0.82667 0.2,1.36 -3e-5,0.08 -0.0134,0.20001 -0.04,0.36 -0.0267,0.13334 -0.04,0.24001 -0.04,0.32 v 0.08 l 0.04,0.04 c -3e-5,0.82667 -1.7067,1.4 -5.12,1.72 -1.49336,0.13334 -2.68002,0.21334 -3.56,0.24 -0.98669,0.0267 -1.72002,0.04 -2.2,0.04 -0.08,0 -0.33335,-0.0133 -0.76,-0.04 -0.50669,-0.0267 -0.97335,-0.04 -1.4,-0.04 -3.06668,-0.08 -5.45335,-0.34666 -7.16,-0.8 -1.01334,-0.29333 -1.52001,-0.66666 -1.52,-1.12 l 0.04,-0.04 v -0.08 c -1e-5,-0.0267 -0.0133,-0.08 -0.04,-0.16 -1e-5,-0.08 -1e-5,-0.14666 0,-0.2 v -0.32 c -1e-5,-0.74666 0.25332,-1.63999 0.76,-2.68 0.37332,-0.77332 0.55999,-1.31999 0.56,-1.64 -1e-5,-0.55999 -0.28001,-1.18665 -0.84,-1.88 -0.56001,-0.61332 -1.37334,-1.54665 -2.44,-2.8 -0.26667,-0.37332 -0.40001,-0.71998 -0.4,-1.04 -0.37334,-1.49331 -0.74667,-2.98665 -1.12,-4.48 -0.37334,-1.73331 -0.60001,-3.25331 -0.68,-4.56 -1.54667,-0.69331 -2.32,-1.71997 -2.32,-3.08 0,-0.74664 0.28,-1.39997 0.84,-1.96 0.56,-0.55997 1.21333,-0.83997 1.96,-0.84 0.77333,3e-5 1.42666,0.28003 1.96,0.84 0.55999,0.56003 0.83999,1.21336 0.84,1.96 -1e-5,0.13336 -0.0267,0.41336 -0.08,0.84 -0.10668,0.53336 -0.16001,0.90669 -0.16,1.12 -1e-5,1.44003 1.06666,3.25336 3.2,5.44 0.18665,-1.75998 0.27999,-3.15997 0.28,-4.2 -10e-6,-1.57331 -0.14668,-2.66664 -0.44,-3.28 -0.13334,-0.26664 -0.28001,-0.4933 -0.44,-0.68 -0.10668,-0.10664 -0.28001,-0.26664 -0.52,-0.48 -0.34668,-0.2133 -0.57334,-0.46664 -0.68,-0.76 -0.16001,-0.2133 -0.24001,-0.62663 -0.24,-1.24 -1e-5,-0.7733 0.27999,-1.42663 0.84,-1.96 0.55999,-0.55996 1.22666,-0.83996 2,-0.84 0.77332,4e-5 1.42665,0.28004 1.96,0.84 0.55999,0.53337 0.83998,1.1867 0.84,1.96 -2e-5,0.1067 -0.0267,0.32003 -0.08,0.64 -0.13335,0.56003 -0.20001,1.0667 -0.2,1.52 -1e-5,1.89336 0.89332,4.74669 2.68,8.56 0.71998,-3.03998 1.07998,-5.45331 1.08,-7.24 -2e-5,-1.30664 -0.25335,-2.5733 -0.76,-3.8 -0.21335,-0.4533 -0.32002,-0.78663 -0.32,-1 -2e-5,-0.7733 0.27998,-1.42663 0.84,-1.96 0.55998,-0.55996 1.21331,-0.83996 1.96,-0.84" />
        <path
           style="font-style:normal;font-variant:normal;font-weight:normal;font-stretch:normal;font-size:40px;line-height:125%;font-family:'Chess Cases';-inkscape-font-specification:'Chess Cases';text-align:start;letter-spacing:0px;word-spacing:0px;writing-mode:lr-tb;text-anchor:start;fill:#efd6a2;fill-opacity:1;stroke:none"
           sodipodi:nodetypes="ccccccccccccccccccccccccccccccccccccsccccsccccccccccccccccsccccccccccccccccccccccccc"
           inkscape:connector-curvature="0"
           id="path3881-97-3-7-4"
           d="m 124.51739,151.63646 c 0.77331,4e-5 1.42664,0.28004 1.96,0.84 0.53331,0.53337 0.79998,1.1867 0.8,1.96 -2e-5,0.24003 -0.13336,0.6667 -0.4,1.28 -0.29336,0.7467 -0.45336,1.20003 -0.48,1.36 -0.13336,0.53336 -0.20002,1.25336 -0.2,2.16 -2e-5,0.6667 0.0933,1.70669 0.28,3.12 0.13331,1.09336 0.39998,2.46669 0.8,4.12 1.78664,-3.78664 2.67997,-6.63997 2.68,-8.56 -3e-5,-0.4533 -0.0667,-0.95997 -0.2,-1.52 -0.0534,-0.2933 -0.08,-0.50663 -0.08,-0.64 -3e-5,-0.7733 0.26664,-1.42663 0.8,-1.96 0.55997,-0.55996 1.21331,-0.83996 1.96,-0.84 0.7733,4e-5 1.43997,0.28004 2,0.84 0.55997,0.53337 0.83997,1.1867 0.84,1.96 -3e-5,0.88003 -0.29336,1.56003 -0.88,2.04 -0.72003,0.45336 -1.16003,1.2667 -1.32,2.44 -0.0534,0.50669 -0.08,1.16003 -0.08,1.96 -3e-5,1.04003 0.08,2.44002 0.24,4.2 2.15997,-2.18664 3.23997,-3.99997 3.24,-5.44 -3e-5,-0.21331 -0.0534,-0.58664 -0.16,-1.12 -0.0534,-0.39997 -0.08,-0.67997 -0.08,-0.84 -3e-5,-0.74664 0.26663,-1.39997 0.8,-1.96 0.55997,-0.55997 1.2133,-0.83997 1.96,-0.84 0.7733,3e-5 1.43996,0.28003 2,0.84 0.55996,0.56003 0.83996,1.21336 0.84,1.96 -4e-5,1.36003 -0.77337,2.38669 -2.32,3.08 -0.0534,0.96003 -0.20004,2.06669 -0.44,3.32 -0.13337,0.77336 -0.48003,2.24002 -1.04,4.4 l -0.32,1.32 c -3e-5,0.48002 -0.53337,1.26668 -1.6,2.36 -1.41336,1.44001 -2.12003,2.56001 -2.12,3.36 -3e-5,0.32001 0.15997,0.81334 0.48,1.48 0.4533,0.93334 0.6933,1.42668 0.72,1.48 0.1333,0.37334 0.19997,0.82667 0.2,1.36 -3e-5,0.08 -0.0134,0.20001 -0.04,0.36 -0.0267,0.13334 -0.04,0.24001 -0.04,0.32 v 0.08 l 0.04,0.04 c -3e-5,0.82667 -1.7067,1.4 -5.12,1.72 -1.49336,0.13334 -2.68002,0.21334 -3.56,0.24 -0.98669,0.0267 -1.72002,0.04 -2.2,0.04 -0.08,0 -0.33335,-0.0133 -0.76,-0.04 -0.50669,-0.0267 -0.97335,-0.04 -1.4,-0.04 -3.06668,-0.08 -5.45335,-0.34666 -7.16,-0.8 -1.01334,-0.29333 -1.52001,-0.66666 -1.52,-1.12 l 0.04,-0.04 v -0.08 c -1e-5,-0.0267 -0.0133,-0.08 -0.04,-0.16 -1e-5,-0.08 -1e-5,-0.14666 0,-0.2 v -0.32 c -1e-5,-0.74666 0.25332,-1.63999 0.76,-2.68 0.37332,-0.77332 0.55999,-1.31999 0.56,-1.64 -1e-5,-0.55999 -0.28001,-1.18665 -0.84,-1.88 -0.56001,-0.61332 -1.37334,-1.54665 -2.44,-2.8 -0.26667,-0.37332 -0.40001,-0.71998 -0.4,-1.04 -0.37334,-1.49331 -0.74667,-2.98665 -1.12,-4.48 -0.37334,-1.73331 -0.60001,-3.25331 -0.68,-4.56 -1.54667,-0.69331 -2.32,-1.71997 -2.32,-3.08 0,-0.74664 0.28,-1.39997 0.84,-1.96 0.56,-0.55997 1.21333,-0.83997 1.96,-0.84 0.77333,3e-5 1.42666,0.28003 1.96,0.84 0.55999,0.56003 0.83999,1.21336 0.84,1.96 -1e-5,0.13336 -0.0267,0.41336 -0.08,0.84 -0.10668,0.53336 -0.16001,0.90669 -0.16,1.12 -1e-5,1.44003 1.06666,3.25336 3.2,5.44 0.18665,-1.75998 0.27999,-3.15997 0.28,-4.2 -10e-6,-1.57331 -0.14668,-2.66664 -0.44,-3.28 -0.13334,-0.26664 -0.28001,-0.4933 -0.44,-0.68 -0.10668,-0.10664 -0.28001,-0.26664 -0.52,-0.48 -0.34668,-0.2133 -0.57334,-0.46664 -0.68,-0.76 -0.16001,-0.2133 -0.24001,-0.62663 -0.24,-1.24 -1e-5,-0.7733 0.27999,-1.42663 0.84,-1.96 0.55999,-0.55996 1.22666,-0.83996 2,-0.84 0.77332,4e-5 1.42665,0.28004 1.96,0.84 0.55999,0.53337 0.83998,1.1867 0.84,1.96 -2e-5,0.1067 -0.0267,0.32003 -0.08,0.64 -0.13335,0.56003 -0.20001,1.0667 -0.2,1.52 -1e-5,1.89336 0.89332,4.74669 2.68,8.56 0.71998,-3.03998 1.07998,-5.45331 1.08,-7.24 -2e-5,-1.30664 -0.25335,-2.5733 -0.76,-3.8 -0.21335,-0.4533 -0.32002,-0.78663 -0.32,-1 -2e-5,-0.7733 0.27998,-1.42663 0.84,-1.96 0.55998,-0.55996 1.21331,-0.83996 1.96,-0.84" />
        <path
           style="font-style:normal;font-variant:normal;font-weight:normal;font-stretch:normal;font-size:40px;line-height:125%;font-family:'Chess Cases';-inkscape-font-specification:'Chess Cases';text-align:start;letter-spacing:0px;word-spacing:0px;writing-mode:lr-tb;text-anchor:start;fill:#000000;fill-opacity:1;stroke:none"
           inkscape:connector-curvature="0"
           id="path3894-8-2-8-2"
           d="m 124.47739,172.71646 h 0.56 c 0.0533,10e-6 0.14665,-0.0133 0.28,-0.04 0.10665,1e-5 0.19998,1e-5 0.28,0 0.13331,1e-5 0.73331,0.0267 1.8,0.08 0.37331,1e-5 1.19998,0.0533 2.48,0.16 1.03997,0.08 1.86664,0.12001 2.48,0.12 0.6133,1e-5 0.91997,-0.08 0.92,-0.24 -3e-5,-0.0267 -0.0134,-0.0667 -0.04,-0.12 v -0.04 -0.04 c -3e-5,-0.71999 -1.32003,-1.27999 -3.96,-1.68 -1.76002,-0.23999 -3.34669,-0.35999 -4.76,-0.36 -1.41335,1e-5 -3.00002,0.12001 -4.76,0.36 -2.61335,0.37335 -3.92001,0.93335 -3.92,1.68 v 0.08 c -0.0533,0.0267 -0.08,0.0667 -0.08,0.12 -1e-5,0.16001 0.30665,0.24001 0.92,0.24 0.15999,1e-5 0.99999,-0.0533 2.52,-0.16 1.78665,-0.13332 3.18665,-0.19999 4.2,-0.2 0.0533,1e-5 0.14665,1e-5 0.28,0 0.13331,0.0267 0.22665,0.04 0.28,0.04 h 0.52 m 8.16,2.24 c -2.74669,-0.34666 -5.45336,-0.51999 -8.12,-0.52 -2.48002,1e-5 -4.58668,0.10668 -6.32,0.32 -0.64001,0.0533 -1.22668,0.12001 -1.76,0.2 0.39999,0.32001 0.59999,0.97334 0.6,1.96 -1e-5,0.58667 -0.10668,0.96001 -0.32,1.12 2.21332,-0.37333 4.81332,-0.55999 7.8,-0.56 3.01331,1e-5 5.61331,0.18667 7.8,0.56 -0.18669,-0.15999 -0.28003,-0.53333 -0.28,-1.12 -3e-5,-0.98666 0.19997,-1.63999 0.6,-1.96 m -8.12,4.28 c -1.92002,0 -3.81335,0.0933 -5.68,0.28 -1.65335,0.13334 -2.48001,0.50667 -2.48,1.12 -10e-6,0.82667 2.71999,1.24 8.16,1.24 5.43997,0 8.15997,-0.41333 8.16,-1.24 -3e-5,-0.26666 -0.21336,-0.50666 -0.64,-0.72 -0.85336,-0.32 -2.30669,-0.52 -4.36,-0.6 -1.09336,-0.0533 -2.14669,-0.08 -3.16,-0.08 m 0,-26.16 c -0.82669,3e-5 -1.24002,0.41336 -1.24,1.24 -2e-5,0.85336 0.41331,1.28003 1.24,1.28 0.79998,3e-5 1.19998,-0.42664 1.2,-1.28 -2e-5,-0.82664 -0.40002,-1.23997 -1.2,-1.24 m 0,-1.44 c 0.77331,3e-5 1.42664,0.28003 1.96,0.84 0.53331,0.53336 0.79998,1.1867 0.8,1.96 -2e-5,0.24003 -0.13336,0.6667 -0.4,1.28 -0.29336,0.74669 -0.45336,1.20003 -0.48,1.36 -0.13336,0.53336 -0.20002,1.25336 -0.2,2.16 -2e-5,0.66669 0.0933,1.70669 0.28,3.12 0.13331,1.09335 0.39998,2.46669 0.8,4.12 1.78664,-3.78665 2.67997,-6.63998 2.68,-8.56 -3e-5,-0.45331 -0.0667,-0.95997 -0.2,-1.52 -0.0534,-0.29331 -0.08,-0.50664 -0.08,-0.64 -3e-5,-0.7733 0.26664,-1.42664 0.8,-1.96 0.55997,-0.55997 1.21331,-0.83997 1.96,-0.84 0.7733,3e-5 1.43997,0.28003 2,0.84 0.55997,0.53336 0.83997,1.1867 0.84,1.96 -3e-5,0.88003 -0.29336,1.56003 -0.88,2.04 -0.72003,0.45336 -1.16003,1.26669 -1.32,2.44 -0.0534,0.50669 -0.08,1.16002 -0.08,1.96 -3e-5,1.04002 0.08,2.44002 0.24,4.2 2.15997,-2.18665 3.23997,-3.99998 3.24,-5.44 -3e-5,-0.21331 -0.0534,-0.58664 -0.16,-1.12 -0.0534,-0.39998 -0.08,-0.67998 -0.08,-0.84 -3e-5,-0.74664 0.26663,-1.39997 0.8,-1.96 0.55997,-0.55997 1.2133,-0.83997 1.96,-0.84 0.7733,3e-5 1.43996,0.28003 2,0.84 0.55996,0.56003 0.83996,1.21336 0.84,1.96 -4e-5,1.36002 -0.77337,2.38669 -2.32,3.08 -0.0534,0.96002 -0.20004,2.06669 -0.44,3.32 -0.13337,0.77335 -0.48003,2.24002 -1.04,4.4 l -0.32,1.32 c -3e-5,0.48001 -0.53337,1.26668 -1.6,2.36 -1.41336,1.44001 -2.12003,2.56001 -2.12,3.36 -3e-5,0.32001 0.15997,0.81334 0.48,1.48 0.4533,0.93334 0.6933,1.42667 0.72,1.48 0.1333,0.37334 0.19997,0.82667 0.2,1.36 -3e-5,0.08 -0.0134,0.2 -0.04,0.36 -0.0267,0.13334 -0.04,0.24 -0.04,0.32 v 0.08 l 0.04,0.04 c -3e-5,0.82667 -1.7067,1.4 -5.12,1.72 -1.49336,0.13333 -2.68002,0.21333 -3.56,0.24 -0.98669,0.0267 -1.72002,0.04 -2.2,0.04 -0.08,0 -0.33335,-0.0133 -0.76,-0.04 -0.50669,-0.0267 -0.97335,-0.04 -1.4,-0.04 -3.06668,-0.08 -5.45335,-0.34667 -7.16,-0.8 -1.01334,-0.29333 -1.52001,-0.66667 -1.52,-1.12 l 0.04,-0.04 v -0.08 c -1e-5,-0.0267 -0.0133,-0.08 -0.04,-0.16 -1e-5,-0.08 -1e-5,-0.14666 0,-0.2 v -0.32 c -1e-5,-0.74666 0.25332,-1.64 0.76,-2.68 0.37332,-0.77333 0.55999,-1.31999 0.56,-1.64 -1e-5,-0.55999 -0.28001,-1.18666 -0.84,-1.88 -0.56001,-0.61332 -1.37334,-1.54666 -2.44,-2.8 -0.26667,-0.37332 -0.40001,-0.71999 -0.4,-1.04 -0.37334,-1.49332 -0.74667,-2.98665 -1.12,-4.48 -0.37334,-1.73331 -0.60001,-3.25331 -0.68,-4.56 -1.54667,-0.69331 -2.32,-1.71998 -2.32,-3.08 0,-0.74664 0.28,-1.39997 0.84,-1.96 0.56,-0.55997 1.21333,-0.83997 1.96,-0.84 0.77333,3e-5 1.42666,0.28003 1.96,0.84 0.55999,0.56003 0.83999,1.21336 0.84,1.96 -1e-5,0.13336 -0.0267,0.41336 -0.08,0.84 -0.10668,0.53336 -0.16001,0.90669 -0.16,1.12 -1e-5,1.44002 1.06666,3.25335 3.2,5.44 0.18665,-1.75998 0.27999,-3.15998 0.28,-4.2 -10e-6,-1.57331 -0.14668,-2.66664 -0.44,-3.28 -0.13334,-0.26664 -0.28001,-0.49331 -0.44,-0.68 -0.10668,-0.10664 -0.28001,-0.26664 -0.52,-0.48 -0.34668,-0.21331 -0.57334,-0.46664 -0.68,-0.76 -0.16001,-0.21331 -0.24001,-0.62664 -0.24,-1.24 -1e-5,-0.7733 0.27999,-1.42664 0.84,-1.96 0.55999,-0.55997 1.22666,-0.83997 2,-0.84 0.77332,3e-5 1.42665,0.28003 1.96,0.84 0.55999,0.53336 0.83998,1.1867 0.84,1.96 -2e-5,0.10669 -0.0267,0.32003 -0.08,0.64 -0.13335,0.56003 -0.20001,1.06669 -0.2,1.52 -1e-5,1.89336 0.89332,4.74669 2.68,8.56 0.71998,-3.03998 1.07998,-5.45331 1.08,-7.24 -2e-5,-1.30664 -0.25335,-2.57331 -0.76,-3.8 -0.21335,-0.4533 -0.32002,-0.78664 -0.32,-1 -2e-5,-0.7733 0.27998,-1.42664 0.84,-1.96 0.55998,-0.55997 1.21331,-0.83997 1.96,-0.84 m 14.48,6.16 c -0.32003,3e-5 -0.60003,0.12003 -0.84,0.36 -0.24003,0.24003 -0.36003,0.52003 -0.36,0.84 -3e-5,0.34669 0.11997,0.65336 0.36,0.92 0.23997,0.24002 0.51997,0.36002 0.84,0.36 0.82663,2e-5 1.23996,-0.42664 1.24,-1.28 -4e-5,-0.79997 -0.41337,-1.19997 -1.24,-1.2 m -6.56,-3.2 c -0.32003,3e-5 -0.60003,0.13336 -0.84,0.4 -0.24003,0.24003 -0.36003,0.52003 -0.36,0.84 -3e-5,0.34669 0.11997,0.65336 0.36,0.92 0.23997,0.24003 0.51997,0.36003 0.84,0.36 0.8533,3e-5 1.27997,-0.42664 1.28,-1.28 -3e-5,-0.82664 -0.4267,-1.23997 -1.28,-1.24 m -15.92,0 c -0.82668,3e-5 -1.24001,0.41336 -1.24,1.24 -1e-5,0.85336 0.41332,1.28003 1.24,1.28 0.79999,3e-5 1.19999,-0.42664 1.2,-1.28 -10e-6,-0.82664 -0.40001,-1.23997 -1.2,-1.24 m -6.56,3.2 c -0.82667,3e-5 -1.24,0.40003 -1.24,1.2 0,0.85336 0.41333,1.28002 1.24,1.28 0.79999,2e-5 1.19999,-0.42664 1.2,-1.28 -1e-5,-0.31997 -0.12001,-0.59997 -0.36,-0.84 -0.24001,-0.23997 -0.52001,-0.35997 -0.84,-0.36 m 14.56,3.2 c -0.10669,0.64002 -0.22669,1.24002 -0.36,1.8 l -0.32,1.44 c -0.32002,1.30669 -0.69335,2.34668 -1.12,3.12 -0.08,0.16002 -0.21335,0.36002 -0.4,0.6 -0.18668,0.24002 -0.30668,0.45335 -0.36,0.64 -0.0534,-0.08 -0.21335,-0.27998 -0.48,-0.6 -0.21335,-0.23998 -0.48002,-0.53332 -0.8,-0.88 -0.29335,-0.37332 -0.54668,-0.74665 -0.76,-1.12 -0.80001,-1.43998 -1.56001,-3.22665 -2.28,-5.36 0.0533,0.37336 0.08,0.85336 0.08,1.44 -10e-6,0.58669 -0.0934,1.82669 -0.28,3.72 -0.0267,0.29335 -0.0934,0.73335 -0.2,1.32 l -0.36,2.24 c -1.78668,-1.03998 -3.53334,-2.74665 -5.24,-5.12 0.31999,1.68002 0.61333,3.05335 0.88,4.12 0.23999,0.93335 0.37332,1.44001 0.4,1.52 0.21332,0.66668 0.46666,1.05335 0.76,1.16 2.77332,-1.57332 6.38665,-2.35998 10.84,-2.36 4.47998,2e-5 8.0933,0.78668 10.84,2.36 0.50663,-0.15999 1.0533,-1.73332 1.64,-4.72 0.0533,-0.26665 0.1333,-0.66665 0.24,-1.2 l 0.16,-0.88 c -1.7067,2.37335 -3.44003,4.08002 -5.2,5.12 l -0.16,-0.76 c -0.48003,-2.77332 -0.72003,-4.79998 -0.72,-6.08 -3e-5,-0.66664 0.04,-1.29331 0.12,-1.88 -0.72003,2.13335 -1.49336,3.92002 -2.32,5.36 -0.32002,0.56002 -0.84002,1.22668 -1.56,2 -0.26669,0.32002 -0.42669,0.52002 -0.48,0.6 -0.16002,-0.29332 -0.41336,-0.70665 -0.76,-1.24 -0.13336,-0.23998 -0.30669,-0.59998 -0.52,-1.08 -0.18669,-0.50665 -0.49335,-1.67998 -0.92,-3.52 -0.10669,-0.55998 -0.22669,-1.14664 -0.36,-1.76" />
      </g>
      <g
         id="g5727-8-5-0"
         transform="translate(1488.0135,386.99304)">
        <path
           style="font-style:normal;font-variant:normal;font-weight:normal;font-stretch:normal;font-size:40px;line-height:125%;font-family:'Chess Cases';-inkscape-font-specification:'Chess Cases';text-align:start;letter-spacing:0px;word-spacing:0px;writing-mode:lr-tb;text-anchor:start;fill:#000000;fill-opacity:0.50196078;stroke:none;filter:url(#filter4054-5-3-1-9-6)"
           sodipodi:nodetypes="cccccccccccccccccccccccccccccccccc"
           inkscape:connector-curvature="0"
           id="path3885-2-6-7-9-4-9"
           d="m 206.19894,273.85877 c -1e-5,0.29335 0.22666,0.44001 0.68,0.44 m 22.92,7.24 h -20.96 c 0.08,-1.46666 0.38665,-2.78666 0.92,-3.96 0.42665,-0.87999 1.17332,-2.01332 2.24,-3.4 0.82665,-1.06665 1.37332,-1.82665 1.64,-2.28 0.47998,-0.82665 0.75998,-1.71998 0.84,-2.68 -1.57335,0.69335 -2.76002,1.45335 -3.56,2.28 -0.80001,0.80001 -1.53335,1.76001 -2.2,2.88 -0.34668,0.58668 -0.61335,1.00001 -0.8,1.24 -0.26668,0.24001 -0.53335,0.36001 -0.8,0.36 -1.33334,-0.13332 -2.06668,-0.59999 -2.2,-1.4 -0.29334,0.16001 -0.62668,0.24001 -1,0.24 -1.54667,1e-5 -2.81334,-0.98665 -3.8,-2.96 0.21333,-1.25332 0.83999,-2.99998 1.88,-5.24 0.23999,-0.53331 0.62666,-1.34665 1.16,-2.44 0.93332,-1.91998 1.51999,-3.14664 1.76,-3.68 0.63999,-1.41331 1.10666,-2.69331 1.4,-3.84 0.08,-0.47997 0.11999,-0.8933 0.12,-1.24 -1e-5,-0.18664 -0.10668,-1.10663 -0.32,-2.76 h 0.08 0.12 c 0.0533,3e-5 0.10666,3e-5 0.16,0 l 0.04,-0.04 c 1.46665,3e-5 3.01332,0.45337 4.64,1.36 0.34665,0.21337 0.51998,0.33337 0.52,0.36 0.90665,-1.5733 1.65332,-2.35997 2.24,-2.36 0.71998,0.37337 1.30665,0.85337 1.76,1.44 0.31998,0.5067 0.65331,1.37336 1,2.6 0.26664,-0.0533 0.54664,-0.08 0.84,-0.08 2.69331,3e-5 5.33331,1.7067 7.92,5.12 3.03997,3.97335 4.55997,9.40002 4.56,16.28 -3e-5,1.38667 -0.0667,2.78667 -0.2,4.2" />
        <path
           style="font-style:normal;font-variant:normal;font-weight:normal;font-stretch:normal;font-size:40px;line-height:125%;font-family:'Chess Cases';-inkscape-font-specification:'Chess Cases';text-align:start;letter-spacing:0px;word-spacing:0px;writing-mode:lr-tb;text-anchor:start;fill:#efd6a2;fill-opacity:1;stroke:none"
           sodipodi:nodetypes="cccccccccccccccccccccccccccccccccc"
           inkscape:connector-curvature="0"
           id="path3885-7-1-9-8-1"
           d="m 206.19894,273.85877 c -1e-5,0.29335 0.22666,0.44001 0.68,0.44 m 22.92,7.24 h -20.96 c 0.08,-1.46666 0.38665,-2.78666 0.92,-3.96 0.42665,-0.87999 1.17332,-2.01332 2.24,-3.4 0.82665,-1.06665 1.37332,-1.82665 1.64,-2.28 0.47998,-0.82665 0.75998,-1.71998 0.84,-2.68 -1.57335,0.69335 -2.76002,1.45335 -3.56,2.28 -0.80001,0.80001 -1.53335,1.76001 -2.2,2.88 -0.34668,0.58668 -0.61335,1.00001 -0.8,1.24 -0.26668,0.24001 -0.53335,0.36001 -0.8,0.36 -1.33334,-0.13332 -2.06668,-0.59999 -2.2,-1.4 -0.29334,0.16001 -0.62668,0.24001 -1,0.24 -1.54667,1e-5 -2.81334,-0.98665 -3.8,-2.96 0.21333,-1.25332 0.83999,-2.99998 1.88,-5.24 0.23999,-0.53331 0.62666,-1.34665 1.16,-2.44 0.93332,-1.91998 1.51999,-3.14664 1.76,-3.68 0.63999,-1.41331 1.10666,-2.69331 1.4,-3.84 0.08,-0.47997 0.11999,-0.8933 0.12,-1.24 -1e-5,-0.18664 -0.10668,-1.10663 -0.32,-2.76 h 0.08 0.12 c 0.0533,3e-5 0.10666,3e-5 0.16,0 l 0.04,-0.04 c 1.46665,3e-5 3.01332,0.45337 4.64,1.36 0.34665,0.21337 0.51998,0.33337 0.52,0.36 0.90665,-1.5733 1.65332,-2.35997 2.24,-2.36 0.71998,0.37337 1.30665,0.85337 1.76,1.44 0.31998,0.5067 0.65331,1.37336 1,2.6 0.26664,-0.0533 0.54664,-0.08 0.84,-0.08 2.69331,3e-5 5.33331,1.7067 7.92,5.12 3.03997,3.97335 4.55997,9.40002 4.56,16.28 -3e-5,1.38667 -0.0667,2.78667 -0.2,4.2" />
        <path
           style="font-style:normal;font-variant:normal;font-weight:normal;font-stretch:normal;font-size:40px;line-height:125%;font-family:'Chess Cases';-inkscape-font-specification:'Chess Cases';text-align:start;letter-spacing:0px;word-spacing:0px;writing-mode:lr-tb;text-anchor:start;fill:#000000;fill-opacity:1;stroke:none"
           inkscape:connector-curvature="0"
           id="path3898-0-8-6-1-7"
           d="m 203.71894,269.73877 c 0.47999,1e-5 0.71999,0.32001 0.72,0.96 -1e-5,0.82668 -0.41334,1.24001 -1.24,1.24 0.0533,1e-5 -1e-5,-0.0133 -0.16,-0.04 h -0.16 c -0.13334,-0.13332 -0.20001,-0.38666 -0.2,-0.76 -1e-5,-0.93332 0.34666,-1.39999 1.04,-1.4 m 3.32,-6.12 c -0.26668,-0.18665 -0.40001,-0.46665 -0.4,-0.84 -1e-5,-0.61331 0.31999,-1.18665 0.96,-1.72 0.63999,-0.53331 1.27999,-0.79998 1.92,-0.8 0.34665,2e-5 0.67998,0.0933 1,0.28 0.10665,0.13335 0.15998,0.26669 0.16,0.4 -2e-5,0.56002 -0.40002,1.16002 -1.2,1.8 -0.80001,0.61335 -1.52001,0.92002 -2.16,0.92 h -0.04 c -0.0533,-0.0267 -0.0933,-0.04 -0.12,-0.04 h -0.08 -0.04 m 0.68,-9.36 c 0.13332,0.32003 0.19999,0.62669 0.2,0.92 -1e-5,0.10669 -0.04,0.37336 -0.12,0.8 h 0.04 c 0.18665,-0.0266 0.59999,-0.15997 1.24,-0.4 0.29332,-0.0533 0.58665,-0.18664 0.88,-0.4 -0.50668,-0.29331 -0.86668,-0.47997 -1.08,-0.56 -0.21335,-0.08 -0.58668,-0.19997 -1.12,-0.36 h -0.04 m -5.92,17.16 c 0.13333,0.53334 0.45333,1.00001 0.96,1.4 0.50666,0.37334 1.02666,0.56001 1.56,0.56 h 0.12 c 0.13332,1e-5 0.47999,-0.18666 1.04,-0.56 0.26666,-0.15999 0.45332,-0.23999 0.56,-0.24 0.0267,0.0267 0.08,0.04 0.16,0.04 l 0.04,0.04 c 0.15999,10e-6 0.23999,0.08 0.24,0.24 -1e-5,0.0533 -0.0533,0.20001 -0.16,0.44 -0.08,0.24001 -0.12001,0.41334 -0.12,0.52 -1e-5,0.29334 0.22666,0.44001 0.68,0.44 0.08,-0.0267 0.49332,-0.61333 1.24,-1.76 0.98665,-1.46666 2.15998,-2.66665 3.52,-3.6 0.79998,-0.58665 1.71998,-1.10665 2.76,-1.56 0.0266,-0.29332 0.14665,-0.78665 0.36,-1.48 0.39998,-1.30665 0.93331,-2.38665 1.6,-3.24 0.29331,-0.37331 0.55998,-0.55998 0.8,-0.56 0.08,2e-5 0.17331,0.04 0.28,0.12 0.13331,0.08 0.19998,0.25335 0.2,0.52 -2e-5,0.26669 -0.16002,0.82668 -0.48,1.68 -0.50669,1.30668 -0.76002,2.26668 -0.76,2.88 -2e-5,0.18668 0.0266,0.40001 0.08,0.64 -2e-5,2.37334 -1.00002,4.85334 -3,7.44 -1.30668,1.73334 -2.04002,3.17334 -2.2,4.32 h 16.48 c 0.1333,-1.17333 0.19997,-2.30666 0.2,-3.4 -3e-5,-5.35999 -1.32003,-9.89332 -3.96,-13.6 -0.69336,-0.98665 -1.52003,-1.93331 -2.48,-2.84 -1.30669,-1.22664 -2.36002,-1.83998 -3.16,-1.84 -0.0267,0.0267 -0.0534,0.04 -0.08,0.04 h -0.12 c -0.66669,-0.08 -1.04002,-0.11998 -1.12,-0.12 -0.24002,2e-5 -0.45335,0.0267 -0.64,0.08 -0.0533,2e-5 -0.13335,0.0134 -0.24,0.04 -0.13335,2e-5 -0.22669,2e-5 -0.28,0 -0.0533,2e-5 -0.13335,2e-5 -0.24,0 -0.13335,-0.0266 -0.22669,-0.04 -0.28,-0.04 -0.24002,-0.08 -0.44002,-0.42664 -0.6,-1.04 -0.08,-0.45331 -0.22669,-1.10664 -0.44,-1.96 -0.08,-0.29331 -0.24002,-0.55997 -0.48,-0.8 -0.42668,1.25336 -1.66668,2.18669 -3.72,2.8 -1.12001,0.34669 -1.88001,0.69336 -2.28,1.04 -0.34668,1.14669 -1.44001,3.50669 -3.28,7.08 -0.29334,0.56002 -0.93334,1.90668 -1.92,4.04 -0.48001,0.98668 -0.76001,1.73334 -0.84,2.24 m 28,10.12 h -20.96 c 0.08,-1.46666 0.38665,-2.78666 0.92,-3.96 0.42665,-0.87999 1.17332,-2.01333 2.24,-3.4 0.82665,-1.06666 1.37332,-1.82666 1.64,-2.28 0.47998,-0.82666 0.75998,-1.71999 0.84,-2.68 -1.57335,0.69335 -2.76002,1.45334 -3.56,2.28 -0.80001,0.80001 -1.53335,1.76001 -2.2,2.88 -0.34668,0.58667 -0.61335,1.00001 -0.8,1.24 -0.26668,0.24001 -0.53335,0.36001 -0.8,0.36 -1.33334,-0.13333 -2.06668,-0.59999 -2.2,-1.4 -0.29334,0.16001 -0.62668,0.24001 -1,0.24 -1.54667,1e-5 -2.81334,-0.98666 -3.8,-2.96 0.21333,-1.25332 0.83999,-2.99999 1.88,-5.24 0.23999,-0.53332 0.62666,-1.34665 1.16,-2.44 0.93332,-1.91998 1.51999,-3.14665 1.76,-3.68 0.63999,-1.41331 1.10666,-2.69331 1.4,-3.84 0.08,-0.47997 0.11999,-0.89331 0.12,-1.24 -1e-5,-0.18664 -0.10668,-1.10664 -0.32,-2.76 h 0.08 0.12 c 0.0533,3e-5 0.10666,3e-5 0.16,0 l 0.04,-0.04 c 1.46665,3e-5 3.01332,0.45336 4.64,1.36 0.34665,0.21336 0.51998,0.33336 0.52,0.36 0.90665,-1.5733 1.65332,-2.35997 2.24,-2.36 0.71998,0.37336 1.30665,0.85336 1.76,1.44 0.31998,0.50669 0.65331,1.37336 1,2.6 0.26664,-0.0533 0.54664,-0.08 0.84,-0.08 2.69331,3e-5 5.33331,1.70669 7.92,5.12 3.03997,3.97335 4.55997,9.40001 4.56,16.28 -3e-5,1.38667 -0.0667,2.78667 -0.2,4.2" />
      </g>
      <g
         id="g4198-8-4-9-6-1"
         transform="translate(1405.9675,488.01534)">
        <path
           style="font-style:normal;font-variant:normal;font-weight:normal;font-stretch:normal;font-size:40px;line-height:125%;font-family:'Chess Cases';-inkscape-font-specification:'Chess Cases';text-align:start;letter-spacing:0px;word-spacing:0px;writing-mode:lr-tb;text-anchor:start;fill:#000000;fill-opacity:0.50196078;stroke:none;filter:url(#filter4054-5-3-1-9-6)"
           sodipodi:nodetypes="ccccccccsccccscccccccccccccccsscccccc"
           inkscape:connector-curvature="0"
           id="path3887-2-3-4-0-5-3"
           d="m 251.076,178.99646 c -1.28002,1.33334 -3.25335,2.13334 -5.92,2.4 -1.25335,0.10667 -3.12001,0.34667 -5.6,0.72 -0.69334,0.16 -1.08001,0.48 -1.16,0.96 -0.88001,-0.37333 -1.69334,-1.21333 -2.44,-2.52 -0.37334,-0.61333 -0.72,-1.13333 -1.04,-1.56 1.11999,-2.10666 2.49333,-3.15999 4.12,-3.16 0.31999,1e-5 0.79999,0.0267 1.44,0.08 0.66666,0.0533 1.15999,0.08 1.48,0.08 1.49332,10e-6 3.09332,-0.31999 4.8,-0.96 -2.34668,-0.26666 -3.52001,-0.97332 -3.52,-2.12 -1e-5,-0.34665 0.15999,-0.97332 0.48,-1.88 0.34665,-0.93332 0.51999,-1.61332 0.52,-2.04 -2.00001,-2.18665 -3.00001,-4.25331 -3,-6.2 -1e-5,-2.18664 1.07999,-4.18664 3.24,-6 1.89332,-1.59997 3.29332,-2.43997 4.2,-2.52 -0.72002,-0.87997 -1.08002,-1.82663 -1.08,-2.84 -2e-5,-0.95996 0.34665,-1.71996 1.04,-2.28 0.61331,-0.50663 1.42665,-0.75996 2.44,-0.76 0.98665,4e-5 1.79998,0.28004 2.44,0.84 0.66664,0.53337 0.99998,1.2667 1,2.2 -2e-5,1.01337 -0.34669,1.96003 -1.04,2.84 0.95998,0.1067 2.37331,0.96003 4.24,2.56 2.1333,1.78669 3.19997,3.77336 3.2,5.96 -3e-5,1.92002 -1.00003,3.98669 -3,6.2 -3e-5,0.42668 0.15997,1.10668 0.48,2.04 0.34664,0.90668 0.51997,1.53335 0.52,1.88 -3e-5,1.14668 -1.18669,1.85334 -3.56,2.12 1.70664,0.64001 3.30664,0.96001 4.8,0.96 0.34664,10e-6 0.83997,-0.0267 1.48,-0.08 0.63997,-0.0533 1.1333,-0.08 1.48,-0.08 1.62663,1e-5 2.99996,1.05334 4.12,3.16 -0.5067,0.77334 -1.00004,1.54667 -1.48,2.32 -0.56003,0.82667 -1.2267,1.41334 -2,1.76 -0.1067,-0.56 -0.7467,-0.94666 -1.92,-1.16 -0.2667,-0.0533 -1.09336,-0.14666 -2.48,-0.28 -4.16002,-0.37333 -6.92002,-1.25333 -8.28,-2.64" />
        <path
           style="font-style:normal;font-variant:normal;font-weight:normal;font-stretch:normal;font-size:40px;line-height:125%;font-family:'Chess Cases';-inkscape-font-specification:'Chess Cases';text-align:start;letter-spacing:0px;word-spacing:0px;writing-mode:lr-tb;text-anchor:start;fill:#efd6a2;fill-opacity:1;stroke:none"
           sodipodi:nodetypes="ccccccccsccccscccccccccccccccsscccccc"
           inkscape:connector-curvature="0"
           id="path3887-0-9-4-8-9"
           d="m 251.076,178.99646 c -1.28002,1.33334 -3.25335,2.13334 -5.92,2.4 -1.25335,0.10667 -3.12001,0.34667 -5.6,0.72 -0.69334,0.16 -1.08001,0.48 -1.16,0.96 -0.88001,-0.37333 -1.69334,-1.21333 -2.44,-2.52 -0.37334,-0.61333 -0.72,-1.13333 -1.04,-1.56 1.11999,-2.10666 2.49333,-3.15999 4.12,-3.16 0.31999,1e-5 0.79999,0.0267 1.44,0.08 0.66666,0.0533 1.15999,0.08 1.48,0.08 1.49332,10e-6 3.09332,-0.31999 4.8,-0.96 -2.34668,-0.26666 -3.52001,-0.97332 -3.52,-2.12 -1e-5,-0.34665 0.15999,-0.97332 0.48,-1.88 0.34665,-0.93332 0.51999,-1.61332 0.52,-2.04 -2.00001,-2.18665 -3.00001,-4.25331 -3,-6.2 -1e-5,-2.18664 1.07999,-4.18664 3.24,-6 1.89332,-1.59997 3.29332,-2.43997 4.2,-2.52 -0.72002,-0.87997 -1.08002,-1.82663 -1.08,-2.84 -2e-5,-0.95996 0.34665,-1.71996 1.04,-2.28 0.61331,-0.50663 1.42665,-0.75996 2.44,-0.76 0.98665,4e-5 1.79998,0.28004 2.44,0.84 0.66664,0.53337 0.99998,1.2667 1,2.2 -2e-5,1.01337 -0.34669,1.96003 -1.04,2.84 0.95998,0.1067 2.37331,0.96003 4.24,2.56 2.1333,1.78669 3.19997,3.77336 3.2,5.96 -3e-5,1.92002 -1.00003,3.98669 -3,6.2 -3e-5,0.42668 0.15997,1.10668 0.48,2.04 0.34664,0.90668 0.51997,1.53335 0.52,1.88 -3e-5,1.14668 -1.18669,1.85334 -3.56,2.12 1.70664,0.64001 3.30664,0.96001 4.8,0.96 0.34664,10e-6 0.83997,-0.0267 1.48,-0.08 0.63997,-0.0533 1.1333,-0.08 1.48,-0.08 1.62663,1e-5 2.99996,1.05334 4.12,3.16 -0.5067,0.77334 -1.00004,1.54667 -1.48,2.32 -0.56003,0.82667 -1.2267,1.41334 -2,1.76 -0.1067,-0.56 -0.7467,-0.94666 -1.92,-1.16 -0.2667,-0.0533 -1.09336,-0.14666 -2.48,-0.28 -4.16002,-0.37333 -6.92002,-1.25333 -8.28,-2.64" />
        <path
           style="font-style:normal;font-variant:normal;font-weight:normal;font-stretch:normal;font-size:40px;line-height:125%;font-family:'Chess Cases';-inkscape-font-specification:'Chess Cases';text-align:start;letter-spacing:0px;word-spacing:0px;writing-mode:lr-tb;text-anchor:start;fill:#000000;fill-opacity:1;stroke:none"
           inkscape:connector-curvature="0"
           id="path3900-9-2-3-9-2"
           d="m 251.076,168.35646 c -1.68002,1e-5 -3.14668,-0.0667 -4.4,-0.2 -0.40002,-0.0267 -0.74668,-0.0667 -1.04,-0.12 0.21332,0.40001 0.31998,0.81335 0.32,1.24 -2e-5,0.45335 -0.0933,0.86668 -0.28,1.24 0.55998,-0.18666 1.74665,-0.33332 3.56,-0.44 0.55998,-0.0266 1.17331,-0.04 1.84,-0.04 2.63998,1e-5 4.43998,0.16001 5.4,0.48 -0.21336,-0.37332 -0.32003,-0.78665 -0.32,-1.24 -3e-5,-0.39999 0.10664,-0.81332 0.32,-1.24 -1.54669,0.21335 -3.34669,0.32001 -5.4,0.32 m 0,-18.12 c -0.42669,3e-5 -0.80002,0.16003 -1.12,0.48 -0.29335,0.29336 -0.44002,0.6267 -0.44,1 -2e-5,0.4267 0.14665,0.7867 0.44,1.08 0.31998,0.2667 0.69331,0.40003 1.12,0.4 0.39998,3e-5 0.75998,-0.1333 1.08,-0.4 0.31998,-0.2933 0.47998,-0.6533 0.48,-1.08 -2e-5,-0.39997 -0.16002,-0.74664 -0.48,-1.04 -0.32002,-0.2933 -0.68002,-0.43997 -1.08,-0.44 m 0,21.28 c -1.09335,1e-5 -2.73335,0.10668 -4.92,0.32 -0.64001,0.13334 -0.96001,0.45334 -0.96,0.96 -1e-5,0.42668 0.90665,0.68001 2.72,0.76 -0.37335,-0.0267 0.67998,-0.04 3.16,-0.04 3.89331,1e-5 5.83997,-0.23999 5.84,-0.72 -3e-5,-0.61332 -0.61336,-0.99999 -1.84,-1.16 -0.21336,-0.0267 -1.05336,-0.0533 -2.52,-0.08 -0.26669,1e-5 -0.62669,-0.0133 -1.08,-0.04 h -0.4 m -0.04,-4.6 c 3.70664,1e-5 5.98664,-0.34665 6.84,-1.04 0.58664,-0.45332 0.99997,-1.61332 1.24,-3.48 -0.13336,-1.65331 -1.21336,-3.25331 -3.24,-4.8 -1.92002,-1.46664 -3.54669,-2.27997 -4.88,-2.44 -1.28002,0.16003 -2.86668,0.97336 -4.76,2.44 -2.00001,1.54669 -3.06668,3.14669 -3.2,4.8 0.13332,0.98669 0.25332,1.66668 0.36,2.04 0.23999,0.77335 0.62665,1.32002 1.16,1.64 0.90665,0.56002 3.06665,0.84001 6.48,0.84 m -0.88,-2.44 v -2.24 h -1.68 v -1.92 h 1.68 v -2.16 h 1.84 v 2.16 h 1.68 v 1.92 h -1.68 v 2.24 h -1.84 m 0.84,10.16 c -0.21335,1e-5 -0.65335,0.25334 -1.32,0.76 -0.45335,0.34667 -0.90668,0.68001 -1.36,1 -0.45335,0.32001 -0.89335,0.50667 -1.32,0.56 -0.98668,0.34667 -2.21335,0.58667 -3.68,0.72 -0.21335,0 -0.74668,0.0267 -1.6,0.08 -1.28001,0.0533 -2.08001,0.10667 -2.4,0.16 -1.06667,0.24 -1.60001,0.69334 -1.6,1.36 0.13333,0.66667 0.47999,1 1.04,1 0.13333,0 0.50666,-0.0533 1.12,-0.16 0.77332,-0.16 1.29332,-0.24 1.56,-0.24 1.59999,0 3.41332,-0.24 5.44,-0.72 2.13332,-0.53333 3.53331,-1.42666 4.2,-2.68 0.39998,0.77334 1.14665,1.42667 2.24,1.96 1.27998,0.61334 2.86664,1.02667 4.76,1.24 l 1.32,0.16 c 0.4533,0.0267 0.87997,0.04 1.28,0.04 0.2933,0 0.82664,0.08 1.6,0.24 0.58663,0.10667 0.94663,0.16 1.08,0.16 0.58663,0 0.94663,-0.33333 1.08,-1 -3e-5,-0.66666 -0.53337,-1.12 -1.6,-1.36 -0.3467,-0.0533 -1.1467,-0.10666 -2.4,-0.16 -0.61336,-0.0267 -1.60003,-0.10666 -2.96,-0.24 -0.69336,-0.08 -1.46669,-0.26666 -2.32,-0.56 -0.42669,-0.08 -0.85336,-0.25333 -1.28,-0.52 -0.26669,-0.13333 -0.70669,-0.43999 -1.32,-0.92 -0.72002,-0.58666 -1.24002,-0.87999 -1.56,-0.88 m 0.08,4.36 c -1.28002,1.33333 -3.25335,2.13333 -5.92,2.4 -1.25335,0.10667 -3.12001,0.34667 -5.6,0.72 -0.69334,0.16 -1.08001,0.48 -1.16,0.96 -0.88001,-0.37333 -1.69334,-1.21333 -2.44,-2.52 -0.37334,-0.61333 -0.72,-1.13333 -1.04,-1.56 1.11999,-2.10666 2.49333,-3.15999 4.12,-3.16 0.31999,1e-5 0.79999,0.0267 1.44,0.08 0.66666,0.0533 1.15999,0.08 1.48,0.08 1.49332,10e-6 3.09332,-0.31999 4.8,-0.96 -2.34668,-0.26666 -3.52001,-0.97333 -3.52,-2.12 -1e-5,-0.34666 0.15999,-0.97332 0.48,-1.88 0.34665,-0.93332 0.51999,-1.61332 0.52,-2.04 -2.00001,-2.18665 -3.00001,-4.25332 -3,-6.2 -1e-5,-2.18665 1.07999,-4.18664 3.24,-6 1.89332,-1.59997 3.29332,-2.43997 4.2,-2.52 -0.72002,-0.87997 -1.08002,-1.82664 -1.08,-2.84 -2e-5,-0.95997 0.34665,-1.71997 1.04,-2.28 0.61331,-0.50663 1.42665,-0.75997 2.44,-0.76 0.98665,3e-5 1.79998,0.28003 2.44,0.84 0.66664,0.53337 0.99998,1.2667 1,2.2 -2e-5,1.01336 -0.34669,1.96003 -1.04,2.84 0.95998,0.10669 2.37331,0.96003 4.24,2.56 2.1333,1.78669 3.19997,3.77335 3.2,5.96 -3e-5,1.92002 -1.00003,3.98668 -3,6.2 -3e-5,0.42668 0.15997,1.10668 0.48,2.04 0.34664,0.90668 0.51997,1.53334 0.52,1.88 -3e-5,1.14667 -1.18669,1.85334 -3.56,2.12 1.70664,0.64001 3.30664,0.96001 4.8,0.96 0.34664,10e-6 0.83997,-0.0267 1.48,-0.08 0.63997,-0.0533 1.1333,-0.08 1.48,-0.08 1.62663,1e-5 2.99996,1.05334 4.12,3.16 -0.5067,0.77334 -1.00004,1.54667 -1.48,2.32 -0.56003,0.82667 -1.2267,1.41333 -2,1.76 -0.1067,-0.56 -0.7467,-0.94667 -1.92,-1.16 -0.2667,-0.0533 -1.09336,-0.14667 -2.48,-0.28 -4.16002,-0.37333 -6.92002,-1.25333 -8.28,-2.64" />
      </g>
      <g
         id="g4203-0-6-0-89-52"
         transform="translate(1243.8828,445.53314)">
        <path
           style="font-style:normal;font-variant:normal;font-weight:normal;font-stretch:normal;font-size:40px;line-height:125%;font-family:'Chess Cases';-inkscape-font-specification:'Chess Cases';text-align:start;letter-spacing:0px;word-spacing:0px;writing-mode:lr-tb;text-anchor:start;fill:#000000;fill-opacity:0.50196078;stroke:none;filter:url(#filter4054-5-3-1-5-5)"
           sodipodi:nodetypes="cscccccccccccccccccc"
           inkscape:connector-curvature="0"
           id="path3889-0-7-4-8-8-7"
           d="m 287.3884,183.07646 c -0.0267,-0.61333 -0.04,-1.38666 -0.04,-2.32 -1e-5,-2.45332 0.42666,-4.55999 1.28,-6.32 0.95999,-1.89332 2.75999,-3.50665 5.4,-4.84 -0.88002,-0.26665 -1.57335,-0.85331 -2.08,-1.76 -0.48001,-0.79998 -0.72001,-1.69331 -0.72,-2.68 -1e-5,-2.26664 1.13332,-3.86664 3.4,-4.8 -0.56002,-0.98664 -0.84002,-1.9333 -0.84,-2.84 -2e-5,-1.14664 0.42665,-2.07997 1.28,-2.8 0.87998,-0.71997 1.89331,-1.07997 3.04,-1.08 1.14665,3e-5 2.14664,0.37337 3,1.12 0.85331,0.72003 1.27998,1.64003 1.28,2.76 -2e-5,0.9067 -0.29336,1.85336 -0.88,2.84 2.29331,0.93336 3.43997,2.53336 3.44,4.8 -3e-5,0.93335 -0.24003,1.82669 -0.72,2.68 -0.56003,0.90669 -1.26669,1.49335 -2.12,1.76 2.66664,1.36002 4.47997,2.98668 5.44,4.88 0.8533,1.70668 1.27997,3.80001 1.28,6.28 -3e-5,0.85334 -0.0267,1.62667 -0.08,2.32 h -21.36" />
        <path
           style="font-style:normal;font-variant:normal;font-weight:normal;font-stretch:normal;font-size:40px;line-height:125%;font-family:'Chess Cases';-inkscape-font-specification:'Chess Cases';text-align:start;letter-spacing:0px;word-spacing:0px;writing-mode:lr-tb;text-anchor:start;fill:#efd6a2;fill-opacity:1;stroke:none"
           sodipodi:nodetypes="cscccccccccccccccccc"
           inkscape:connector-curvature="0"
           id="path3889-4-3-8-99-51"
           d="m 287.3884,183.07646 c -0.0267,-0.61333 -0.04,-1.38666 -0.04,-2.32 -1e-5,-2.45332 0.42666,-4.55999 1.28,-6.32 0.95999,-1.89332 2.75999,-3.50665 5.4,-4.84 -0.88002,-0.26665 -1.57335,-0.85331 -2.08,-1.76 -0.48001,-0.79998 -0.72001,-1.69331 -0.72,-2.68 -1e-5,-2.26664 1.13332,-3.86664 3.4,-4.8 -0.56002,-0.98664 -0.84002,-1.9333 -0.84,-2.84 -2e-5,-1.14664 0.42665,-2.07997 1.28,-2.8 0.87998,-0.71997 1.89331,-1.07997 3.04,-1.08 1.14665,3e-5 2.14664,0.37337 3,1.12 0.85331,0.72003 1.27998,1.64003 1.28,2.76 -2e-5,0.9067 -0.29336,1.85336 -0.88,2.84 2.29331,0.93336 3.43997,2.53336 3.44,4.8 -3e-5,0.93335 -0.24003,1.82669 -0.72,2.68 -0.56003,0.90669 -1.26669,1.49335 -2.12,1.76 2.66664,1.36002 4.47997,2.98668 5.44,4.88 0.8533,1.70668 1.27997,3.80001 1.28,6.28 -3e-5,0.85334 -0.0267,1.62667 -0.08,2.32 h -21.36" />
        <path
           style="font-style:normal;font-variant:normal;font-weight:normal;font-stretch:normal;font-size:40px;line-height:125%;font-family:'Chess Cases';-inkscape-font-specification:'Chess Cases';text-align:start;letter-spacing:0px;word-spacing:0px;writing-mode:lr-tb;text-anchor:start;fill:#000000;fill-opacity:1;stroke:none"
           inkscape:connector-curvature="0"
           id="path3902-9-9-5-9-3"
           d="m 307.0284,181.07646 c -3e-5,-2.82666 -0.5867,-5.05333 -1.76,-6.68 -0.72003,-1.01332 -1.86669,-1.97332 -3.44,-2.88 -1.30669,-0.77332 -1.96002,-1.47999 -1.96,-2.12 -2e-5,-0.23999 0.0666,-0.42665 0.2,-0.56 0.15998,-0.13332 0.42664,-0.30665 0.8,-0.52 0.71998,-0.42665 1.22664,-0.85332 1.52,-1.28 0.29331,-0.42665 0.43997,-1.03998 0.44,-1.84 -3e-5,-1.46665 -0.78669,-2.66665 -2.36,-3.6 -0.42669,-0.26664 -0.73336,-0.46664 -0.92,-0.6 -0.16002,-0.15998 -0.24002,-0.35998 -0.24,-0.6 -2e-5,-0.61331 0.17331,-1.13331 0.52,-1.56 0.21331,-0.31998 0.34664,-0.54664 0.4,-0.68 0.0533,-0.15997 0.08,-0.41331 0.08,-0.76 -2e-5,-0.55997 -0.24002,-1.03997 -0.72,-1.44 -0.45335,-0.39997 -0.97335,-0.59997 -1.56,-0.6 -0.56002,3e-5 -1.06669,0.20003 -1.52,0.6 -0.45335,0.40003 -0.68002,0.88003 -0.68,1.44 -2e-5,0.50669 0.15998,0.98669 0.48,1.44 0.34665,0.42669 0.51998,0.94669 0.52,1.56 -2e-5,0.24002 -0.0933,0.45336 -0.28,0.64 -0.18669,0.16002 -0.48002,0.34669 -0.88,0.56 -1.54668,0.93335 -2.32002,2.13335 -2.32,3.6 -2e-5,1.30668 0.65332,2.34668 1.96,3.12 0.26665,0.16001 0.49332,0.33335 0.68,0.52 0.18665,0.18668 0.27998,0.37335 0.28,0.56 -2e-5,0.64001 -0.65335,1.34668 -1.96,2.12 -1.60001,0.96001 -2.74668,1.93334 -3.44,2.92 -1.14668,1.62667 -1.72001,3.84001 -1.72,6.64 h 17.88 m -19.64,2 c -0.0267,-0.61333 -0.04,-1.38667 -0.04,-2.32 -1e-5,-2.45333 0.42666,-4.55999 1.28,-6.32 0.95999,-1.89332 2.75999,-3.50665 5.4,-4.84 -0.88002,-0.26665 -1.57335,-0.85332 -2.08,-1.76 -0.48001,-0.79998 -0.72001,-1.69332 -0.72,-2.68 -1e-5,-2.26665 1.13332,-3.86664 3.4,-4.8 -0.56002,-0.98664 -0.84002,-1.93331 -0.84,-2.84 -2e-5,-1.14664 0.42665,-2.07997 1.28,-2.8 0.87998,-0.71997 1.89331,-1.07997 3.04,-1.08 1.14665,3e-5 2.14664,0.37336 3,1.12 0.85331,0.72003 1.27998,1.64003 1.28,2.76 -2e-5,0.90669 -0.29336,1.85336 -0.88,2.84 2.29331,0.93336 3.43997,2.53335 3.44,4.8 -3e-5,0.93335 -0.24003,1.82668 -0.72,2.68 -0.56003,0.90668 -1.26669,1.49335 -2.12,1.76 2.66664,1.36001 4.47997,2.98668 5.44,4.88 0.8533,1.70667 1.27997,3.80001 1.28,6.28 -3e-5,0.85334 -0.0267,1.62667 -0.08,2.32 h -21.36" />
      </g>
      <g
         id="g4203-0-6-0-4-7"
         transform="translate(1289.9117,445.53314)">
        <path
           style="font-style:normal;font-variant:normal;font-weight:normal;font-stretch:normal;font-size:40px;line-height:125%;font-family:'Chess Cases';-inkscape-font-specification:'Chess Cases';text-align:start;letter-spacing:0px;word-spacing:0px;writing-mode:lr-tb;text-anchor:start;fill:#000000;fill-opacity:0.50196078;stroke:none;filter:url(#filter4054-5-3-1-0-7)"
           sodipodi:nodetypes="cscccccccccccccccccc"
           inkscape:connector-curvature="0"
           id="path3889-0-7-4-8-1-3"
           d="m 287.3884,183.07646 c -0.0267,-0.61333 -0.04,-1.38666 -0.04,-2.32 -1e-5,-2.45332 0.42666,-4.55999 1.28,-6.32 0.95999,-1.89332 2.75999,-3.50665 5.4,-4.84 -0.88002,-0.26665 -1.57335,-0.85331 -2.08,-1.76 -0.48001,-0.79998 -0.72001,-1.69331 -0.72,-2.68 -1e-5,-2.26664 1.13332,-3.86664 3.4,-4.8 -0.56002,-0.98664 -0.84002,-1.9333 -0.84,-2.84 -2e-5,-1.14664 0.42665,-2.07997 1.28,-2.8 0.87998,-0.71997 1.89331,-1.07997 3.04,-1.08 1.14665,3e-5 2.14664,0.37337 3,1.12 0.85331,0.72003 1.27998,1.64003 1.28,2.76 -2e-5,0.9067 -0.29336,1.85336 -0.88,2.84 2.29331,0.93336 3.43997,2.53336 3.44,4.8 -3e-5,0.93335 -0.24003,1.82669 -0.72,2.68 -0.56003,0.90669 -1.26669,1.49335 -2.12,1.76 2.66664,1.36002 4.47997,2.98668 5.44,4.88 0.8533,1.70668 1.27997,3.80001 1.28,6.28 -3e-5,0.85334 -0.0267,1.62667 -0.08,2.32 h -21.36" />
        <path
           style="font-style:normal;font-variant:normal;font-weight:normal;font-stretch:normal;font-size:40px;line-height:125%;font-family:'Chess Cases';-inkscape-font-specification:'Chess Cases';text-align:start;letter-spacing:0px;word-spacing:0px;writing-mode:lr-tb;text-anchor:start;fill:#efd6a2;fill-opacity:1;stroke:none"
           sodipodi:nodetypes="cscccccccccccccccccc"
           inkscape:connector-curvature="0"
           id="path3889-4-3-8-8-44"
           d="m 287.3884,183.07646 c -0.0267,-0.61333 -0.04,-1.38666 -0.04,-2.32 -1e-5,-2.45332 0.42666,-4.55999 1.28,-6.32 0.95999,-1.89332 2.75999,-3.50665 5.4,-4.84 -0.88002,-0.26665 -1.57335,-0.85331 -2.08,-1.76 -0.48001,-0.79998 -0.72001,-1.69331 -0.72,-2.68 -1e-5,-2.26664 1.13332,-3.86664 3.4,-4.8 -0.56002,-0.98664 -0.84002,-1.9333 -0.84,-2.84 -2e-5,-1.14664 0.42665,-2.07997 1.28,-2.8 0.87998,-0.71997 1.89331,-1.07997 3.04,-1.08 1.14665,3e-5 2.14664,0.37337 3,1.12 0.85331,0.72003 1.27998,1.64003 1.28,2.76 -2e-5,0.9067 -0.29336,1.85336 -0.88,2.84 2.29331,0.93336 3.43997,2.53336 3.44,4.8 -3e-5,0.93335 -0.24003,1.82669 -0.72,2.68 -0.56003,0.90669 -1.26669,1.49335 -2.12,1.76 2.66664,1.36002 4.47997,2.98668 5.44,4.88 0.8533,1.70668 1.27997,3.80001 1.28,6.28 -3e-5,0.85334 -0.0267,1.62667 -0.08,2.32 h -21.36" />
        <path
           style="font-style:normal;font-variant:normal;font-weight:normal;font-stretch:normal;font-size:40px;line-height:125%;font-family:'Chess Cases';-inkscape-font-specification:'Chess Cases';text-align:start;letter-spacing:0px;word-spacing:0px;writing-mode:lr-tb;text-anchor:start;fill:#000000;fill-opacity:1;stroke:none"
           inkscape:connector-curvature="0"
           id="path3902-9-9-5-6-0"
           d="m 307.0284,181.07646 c -3e-5,-2.82666 -0.5867,-5.05333 -1.76,-6.68 -0.72003,-1.01332 -1.86669,-1.97332 -3.44,-2.88 -1.30669,-0.77332 -1.96002,-1.47999 -1.96,-2.12 -2e-5,-0.23999 0.0666,-0.42665 0.2,-0.56 0.15998,-0.13332 0.42664,-0.30665 0.8,-0.52 0.71998,-0.42665 1.22664,-0.85332 1.52,-1.28 0.29331,-0.42665 0.43997,-1.03998 0.44,-1.84 -3e-5,-1.46665 -0.78669,-2.66665 -2.36,-3.6 -0.42669,-0.26664 -0.73336,-0.46664 -0.92,-0.6 -0.16002,-0.15998 -0.24002,-0.35998 -0.24,-0.6 -2e-5,-0.61331 0.17331,-1.13331 0.52,-1.56 0.21331,-0.31998 0.34664,-0.54664 0.4,-0.68 0.0533,-0.15997 0.08,-0.41331 0.08,-0.76 -2e-5,-0.55997 -0.24002,-1.03997 -0.72,-1.44 -0.45335,-0.39997 -0.97335,-0.59997 -1.56,-0.6 -0.56002,3e-5 -1.06669,0.20003 -1.52,0.6 -0.45335,0.40003 -0.68002,0.88003 -0.68,1.44 -2e-5,0.50669 0.15998,0.98669 0.48,1.44 0.34665,0.42669 0.51998,0.94669 0.52,1.56 -2e-5,0.24002 -0.0933,0.45336 -0.28,0.64 -0.18669,0.16002 -0.48002,0.34669 -0.88,0.56 -1.54668,0.93335 -2.32002,2.13335 -2.32,3.6 -2e-5,1.30668 0.65332,2.34668 1.96,3.12 0.26665,0.16001 0.49332,0.33335 0.68,0.52 0.18665,0.18668 0.27998,0.37335 0.28,0.56 -2e-5,0.64001 -0.65335,1.34668 -1.96,2.12 -1.60001,0.96001 -2.74668,1.93334 -3.44,2.92 -1.14668,1.62667 -1.72001,3.84001 -1.72,6.64 h 17.88 m -19.64,2 c -0.0267,-0.61333 -0.04,-1.38667 -0.04,-2.32 -1e-5,-2.45333 0.42666,-4.55999 1.28,-6.32 0.95999,-1.89332 2.75999,-3.50665 5.4,-4.84 -0.88002,-0.26665 -1.57335,-0.85332 -2.08,-1.76 -0.48001,-0.79998 -0.72001,-1.69332 -0.72,-2.68 -1e-5,-2.26665 1.13332,-3.86664 3.4,-4.8 -0.56002,-0.98664 -0.84002,-1.93331 -0.84,-2.84 -2e-5,-1.14664 0.42665,-2.07997 1.28,-2.8 0.87998,-0.71997 1.89331,-1.07997 3.04,-1.08 1.14665,3e-5 2.14664,0.37336 3,1.12 0.85331,0.72003 1.27998,1.64003 1.28,2.76 -2e-5,0.90669 -0.29336,1.85336 -0.88,2.84 2.29331,0.93336 3.43997,2.53335 3.44,4.8 -3e-5,0.93335 -0.24003,1.82668 -0.72,2.68 -0.56003,0.90668 -1.26669,1.49335 -2.12,1.76 2.66664,1.36001 4.47997,2.98668 5.44,4.88 0.8533,1.70667 1.27997,3.80001 1.28,6.28 -3e-5,0.85334 -0.0267,1.62667 -0.08,2.32 h -21.36" />
      </g>
      <g
         id="g4203-0-6-0-9-6-9"
         transform="translate(1381.9695,445.53314)">
        <path
           style="font-style:normal;font-variant:normal;font-weight:normal;font-stretch:normal;font-size:40px;line-height:125%;font-family:'Chess Cases';-inkscape-font-specification:'Chess Cases';text-align:start;letter-spacing:0px;word-spacing:0px;writing-mode:lr-tb;text-anchor:start;fill:#000000;fill-opacity:0.50196078;stroke:none;filter:url(#filter4054-5-3-1-99-2-8)"
           sodipodi:nodetypes="cscccccccccccccccccc"
           inkscape:connector-curvature="0"
           id="path3889-0-7-4-8-0-1-0"
           d="m 287.3884,183.07646 c -0.0267,-0.61333 -0.04,-1.38666 -0.04,-2.32 -1e-5,-2.45332 0.42666,-4.55999 1.28,-6.32 0.95999,-1.89332 2.75999,-3.50665 5.4,-4.84 -0.88002,-0.26665 -1.57335,-0.85331 -2.08,-1.76 -0.48001,-0.79998 -0.72001,-1.69331 -0.72,-2.68 -1e-5,-2.26664 1.13332,-3.86664 3.4,-4.8 -0.56002,-0.98664 -0.84002,-1.9333 -0.84,-2.84 -2e-5,-1.14664 0.42665,-2.07997 1.28,-2.8 0.87998,-0.71997 1.89331,-1.07997 3.04,-1.08 1.14665,3e-5 2.14664,0.37337 3,1.12 0.85331,0.72003 1.27998,1.64003 1.28,2.76 -2e-5,0.9067 -0.29336,1.85336 -0.88,2.84 2.29331,0.93336 3.43997,2.53336 3.44,4.8 -3e-5,0.93335 -0.24003,1.82669 -0.72,2.68 -0.56003,0.90669 -1.26669,1.49335 -2.12,1.76 2.66664,1.36002 4.47997,2.98668 5.44,4.88 0.8533,1.70668 1.27997,3.80001 1.28,6.28 -3e-5,0.85334 -0.0267,1.62667 -0.08,2.32 h -21.36" />
        <path
           style="font-style:normal;font-variant:normal;font-weight:normal;font-stretch:normal;font-size:40px;line-height:125%;font-family:'Chess Cases';-inkscape-font-specification:'Chess Cases';text-align:start;letter-spacing:0px;word-spacing:0px;writing-mode:lr-tb;text-anchor:start;fill:#efd6a2;fill-opacity:1;stroke:none"
           sodipodi:nodetypes="cscccccccccccccccccc"
           inkscape:connector-curvature="0"
           id="path3889-4-3-8-9-9-42"
           d="m 287.3884,183.07646 c -0.0267,-0.61333 -0.04,-1.38666 -0.04,-2.32 -1e-5,-2.45332 0.42666,-4.55999 1.28,-6.32 0.95999,-1.89332 2.75999,-3.50665 5.4,-4.84 -0.88002,-0.26665 -1.57335,-0.85331 -2.08,-1.76 -0.48001,-0.79998 -0.72001,-1.69331 -0.72,-2.68 -1e-5,-2.26664 1.13332,-3.86664 3.4,-4.8 -0.56002,-0.98664 -0.84002,-1.9333 -0.84,-2.84 -2e-5,-1.14664 0.42665,-2.07997 1.28,-2.8 0.87998,-0.71997 1.89331,-1.07997 3.04,-1.08 1.14665,3e-5 2.14664,0.37337 3,1.12 0.85331,0.72003 1.27998,1.64003 1.28,2.76 -2e-5,0.9067 -0.29336,1.85336 -0.88,2.84 2.29331,0.93336 3.43997,2.53336 3.44,4.8 -3e-5,0.93335 -0.24003,1.82669 -0.72,2.68 -0.56003,0.90669 -1.26669,1.49335 -2.12,1.76 2.66664,1.36002 4.47997,2.98668 5.44,4.88 0.8533,1.70668 1.27997,3.80001 1.28,6.28 -3e-5,0.85334 -0.0267,1.62667 -0.08,2.32 h -21.36" />
        <path
           style="font-style:normal;font-variant:normal;font-weight:normal;font-stretch:normal;font-size:40px;line-height:125%;font-family:'Chess Cases';-inkscape-font-specification:'Chess Cases';text-align:start;letter-spacing:0px;word-spacing:0px;writing-mode:lr-tb;text-anchor:start;fill:#000000;fill-opacity:1;stroke:none"
           inkscape:connector-curvature="0"
           id="path3902-9-9-5-1-5-6"
           d="m 307.0284,181.07646 c -3e-5,-2.82666 -0.5867,-5.05333 -1.76,-6.68 -0.72003,-1.01332 -1.86669,-1.97332 -3.44,-2.88 -1.30669,-0.77332 -1.96002,-1.47999 -1.96,-2.12 -2e-5,-0.23999 0.0666,-0.42665 0.2,-0.56 0.15998,-0.13332 0.42664,-0.30665 0.8,-0.52 0.71998,-0.42665 1.22664,-0.85332 1.52,-1.28 0.29331,-0.42665 0.43997,-1.03998 0.44,-1.84 -3e-5,-1.46665 -0.78669,-2.66665 -2.36,-3.6 -0.42669,-0.26664 -0.73336,-0.46664 -0.92,-0.6 -0.16002,-0.15998 -0.24002,-0.35998 -0.24,-0.6 -2e-5,-0.61331 0.17331,-1.13331 0.52,-1.56 0.21331,-0.31998 0.34664,-0.54664 0.4,-0.68 0.0533,-0.15997 0.08,-0.41331 0.08,-0.76 -2e-5,-0.55997 -0.24002,-1.03997 -0.72,-1.44 -0.45335,-0.39997 -0.97335,-0.59997 -1.56,-0.6 -0.56002,3e-5 -1.06669,0.20003 -1.52,0.6 -0.45335,0.40003 -0.68002,0.88003 -0.68,1.44 -2e-5,0.50669 0.15998,0.98669 0.48,1.44 0.34665,0.42669 0.51998,0.94669 0.52,1.56 -2e-5,0.24002 -0.0933,0.45336 -0.28,0.64 -0.18669,0.16002 -0.48002,0.34669 -0.88,0.56 -1.54668,0.93335 -2.32002,2.13335 -2.32,3.6 -2e-5,1.30668 0.65332,2.34668 1.96,3.12 0.26665,0.16001 0.49332,0.33335 0.68,0.52 0.18665,0.18668 0.27998,0.37335 0.28,0.56 -2e-5,0.64001 -0.65335,1.34668 -1.96,2.12 -1.60001,0.96001 -2.74668,1.93334 -3.44,2.92 -1.14668,1.62667 -1.72001,3.84001 -1.72,6.64 h 17.88 m -19.64,2 c -0.0267,-0.61333 -0.04,-1.38667 -0.04,-2.32 -1e-5,-2.45333 0.42666,-4.55999 1.28,-6.32 0.95999,-1.89332 2.75999,-3.50665 5.4,-4.84 -0.88002,-0.26665 -1.57335,-0.85332 -2.08,-1.76 -0.48001,-0.79998 -0.72001,-1.69332 -0.72,-2.68 -1e-5,-2.26665 1.13332,-3.86664 3.4,-4.8 -0.56002,-0.98664 -0.84002,-1.93331 -0.84,-2.84 -2e-5,-1.14664 0.42665,-2.07997 1.28,-2.8 0.87998,-0.71997 1.89331,-1.07997 3.04,-1.08 1.14665,3e-5 2.14664,0.37336 3,1.12 0.85331,0.72003 1.27998,1.64003 1.28,2.76 -2e-5,0.90669 -0.29336,1.85336 -0.88,2.84 2.29331,0.93336 3.43997,2.53335 3.44,4.8 -3e-5,0.93335 -0.24003,1.82668 -0.72,2.68 -0.56003,0.90668 -1.26669,1.49335 -2.12,1.76 2.66664,1.36001 4.47997,2.98668 5.44,4.88 0.8533,1.70667 1.27997,3.80001 1.28,6.28 -3e-5,0.85334 -0.0267,1.62667 -0.08,2.32 h -21.36" />
      </g>
      <g
         id="g4203-0-6-0-89-5-8"
         transform="translate(1427.9985,445.53314)">
        <path
           style="font-style:normal;font-variant:normal;font-weight:normal;font-stretch:normal;font-size:40px;line-height:125%;font-family:'Chess Cases';-inkscape-font-specification:'Chess Cases';text-align:start;letter-spacing:0px;word-spacing:0px;writing-mode:lr-tb;text-anchor:start;fill:#000000;fill-opacity:0.50196078;stroke:none;filter:url(#filter4054-5-3-1-5-0-7)"
           sodipodi:nodetypes="cscccccccccccccccccc"
           inkscape:connector-curvature="0"
           id="path3889-0-7-4-8-8-0-9"
           d="m 287.3884,183.07646 c -0.0267,-0.61333 -0.04,-1.38666 -0.04,-2.32 -1e-5,-2.45332 0.42666,-4.55999 1.28,-6.32 0.95999,-1.89332 2.75999,-3.50665 5.4,-4.84 -0.88002,-0.26665 -1.57335,-0.85331 -2.08,-1.76 -0.48001,-0.79998 -0.72001,-1.69331 -0.72,-2.68 -1e-5,-2.26664 1.13332,-3.86664 3.4,-4.8 -0.56002,-0.98664 -0.84002,-1.9333 -0.84,-2.84 -2e-5,-1.14664 0.42665,-2.07997 1.28,-2.8 0.87998,-0.71997 1.89331,-1.07997 3.04,-1.08 1.14665,3e-5 2.14664,0.37337 3,1.12 0.85331,0.72003 1.27998,1.64003 1.28,2.76 -2e-5,0.9067 -0.29336,1.85336 -0.88,2.84 2.29331,0.93336 3.43997,2.53336 3.44,4.8 -3e-5,0.93335 -0.24003,1.82669 -0.72,2.68 -0.56003,0.90669 -1.26669,1.49335 -2.12,1.76 2.66664,1.36002 4.47997,2.98668 5.44,4.88 0.8533,1.70668 1.27997,3.80001 1.28,6.28 -3e-5,0.85334 -0.0267,1.62667 -0.08,2.32 h -21.36" />
        <path
           style="font-style:normal;font-variant:normal;font-weight:normal;font-stretch:normal;font-size:40px;line-height:125%;font-family:'Chess Cases';-inkscape-font-specification:'Chess Cases';text-align:start;letter-spacing:0px;word-spacing:0px;writing-mode:lr-tb;text-anchor:start;fill:#efd6a2;fill-opacity:1;stroke:none"
           sodipodi:nodetypes="cscccccccccccccccccc"
           inkscape:connector-curvature="0"
           id="path3889-4-3-8-99-2-3"
           d="m 287.3884,183.07646 c -0.0267,-0.61333 -0.04,-1.38666 -0.04,-2.32 -1e-5,-2.45332 0.42666,-4.55999 1.28,-6.32 0.95999,-1.89332 2.75999,-3.50665 5.4,-4.84 -0.88002,-0.26665 -1.57335,-0.85331 -2.08,-1.76 -0.48001,-0.79998 -0.72001,-1.69331 -0.72,-2.68 -1e-5,-2.26664 1.13332,-3.86664 3.4,-4.8 -0.56002,-0.98664 -0.84002,-1.9333 -0.84,-2.84 -2e-5,-1.14664 0.42665,-2.07997 1.28,-2.8 0.87998,-0.71997 1.89331,-1.07997 3.04,-1.08 1.14665,3e-5 2.14664,0.37337 3,1.12 0.85331,0.72003 1.27998,1.64003 1.28,2.76 -2e-5,0.9067 -0.29336,1.85336 -0.88,2.84 2.29331,0.93336 3.43997,2.53336 3.44,4.8 -3e-5,0.93335 -0.24003,1.82669 -0.72,2.68 -0.56003,0.90669 -1.26669,1.49335 -2.12,1.76 2.66664,1.36002 4.47997,2.98668 5.44,4.88 0.8533,1.70668 1.27997,3.80001 1.28,6.28 -3e-5,0.85334 -0.0267,1.62667 -0.08,2.32 h -21.36" />
        <path
           style="font-style:normal;font-variant:normal;font-weight:normal;font-stretch:normal;font-size:40px;line-height:125%;font-family:'Chess Cases';-inkscape-font-specification:'Chess Cases';text-align:start;letter-spacing:0px;word-spacing:0px;writing-mode:lr-tb;text-anchor:start;fill:#000000;fill-opacity:1;stroke:none"
           inkscape:connector-curvature="0"
           id="path3902-9-9-5-9-8-5"
           d="m 307.0284,181.07646 c -3e-5,-2.82666 -0.5867,-5.05333 -1.76,-6.68 -0.72003,-1.01332 -1.86669,-1.97332 -3.44,-2.88 -1.30669,-0.77332 -1.96002,-1.47999 -1.96,-2.12 -2e-5,-0.23999 0.0666,-0.42665 0.2,-0.56 0.15998,-0.13332 0.42664,-0.30665 0.8,-0.52 0.71998,-0.42665 1.22664,-0.85332 1.52,-1.28 0.29331,-0.42665 0.43997,-1.03998 0.44,-1.84 -3e-5,-1.46665 -0.78669,-2.66665 -2.36,-3.6 -0.42669,-0.26664 -0.73336,-0.46664 -0.92,-0.6 -0.16002,-0.15998 -0.24002,-0.35998 -0.24,-0.6 -2e-5,-0.61331 0.17331,-1.13331 0.52,-1.56 0.21331,-0.31998 0.34664,-0.54664 0.4,-0.68 0.0533,-0.15997 0.08,-0.41331 0.08,-0.76 -2e-5,-0.55997 -0.24002,-1.03997 -0.72,-1.44 -0.45335,-0.39997 -0.97335,-0.59997 -1.56,-0.6 -0.56002,3e-5 -1.06669,0.20003 -1.52,0.6 -0.45335,0.40003 -0.68002,0.88003 -0.68,1.44 -2e-5,0.50669 0.15998,0.98669 0.48,1.44 0.34665,0.42669 0.51998,0.94669 0.52,1.56 -2e-5,0.24002 -0.0933,0.45336 -0.28,0.64 -0.18669,0.16002 -0.48002,0.34669 -0.88,0.56 -1.54668,0.93335 -2.32002,2.13335 -2.32,3.6 -2e-5,1.30668 0.65332,2.34668 1.96,3.12 0.26665,0.16001 0.49332,0.33335 0.68,0.52 0.18665,0.18668 0.27998,0.37335 0.28,0.56 -2e-5,0.64001 -0.65335,1.34668 -1.96,2.12 -1.60001,0.96001 -2.74668,1.93334 -3.44,2.92 -1.14668,1.62667 -1.72001,3.84001 -1.72,6.64 h 17.88 m -19.64,2 c -0.0267,-0.61333 -0.04,-1.38667 -0.04,-2.32 -1e-5,-2.45333 0.42666,-4.55999 1.28,-6.32 0.95999,-1.89332 2.75999,-3.50665 5.4,-4.84 -0.88002,-0.26665 -1.57335,-0.85332 -2.08,-1.76 -0.48001,-0.79998 -0.72001,-1.69332 -0.72,-2.68 -1e-5,-2.26665 1.13332,-3.86664 3.4,-4.8 -0.56002,-0.98664 -0.84002,-1.93331 -0.84,-2.84 -2e-5,-1.14664 0.42665,-2.07997 1.28,-2.8 0.87998,-0.71997 1.89331,-1.07997 3.04,-1.08 1.14665,3e-5 2.14664,0.37336 3,1.12 0.85331,0.72003 1.27998,1.64003 1.28,2.76 -2e-5,0.90669 -0.29336,1.85336 -0.88,2.84 2.29331,0.93336 3.43997,2.53335 3.44,4.8 -3e-5,0.93335 -0.24003,1.82668 -0.72,2.68 -0.56003,0.90668 -1.26669,1.49335 -2.12,1.76 2.66664,1.36001 4.47997,2.98668 5.44,4.88 0.8533,1.70667 1.27997,3.80001 1.28,6.28 -3e-5,0.85334 -0.0267,1.62667 -0.08,2.32 h -21.36" />
      </g>
      <g
         id="g4203-0-6-0-8-4-0"
         transform="translate(1335.9406,445.53317)">
        <path
           style="font-style:normal;font-variant:normal;font-weight:normal;font-stretch:normal;font-size:40px;line-height:125%;font-family:'Chess Cases';-inkscape-font-specification:'Chess Cases';text-align:start;letter-spacing:0px;word-spacing:0px;writing-mode:lr-tb;text-anchor:start;fill:#000000;fill-opacity:0.50196078;stroke:none;filter:url(#filter4054-5-3-1-4-6-6)"
           sodipodi:nodetypes="cscccccccccccccccccc"
           inkscape:connector-curvature="0"
           id="path3889-0-7-4-8-2-8-8"
           d="m 287.3884,183.07646 c -0.0267,-0.61333 -0.04,-1.38666 -0.04,-2.32 -1e-5,-2.45332 0.42666,-4.55999 1.28,-6.32 0.95999,-1.89332 2.75999,-3.50665 5.4,-4.84 -0.88002,-0.26665 -1.57335,-0.85331 -2.08,-1.76 -0.48001,-0.79998 -0.72001,-1.69331 -0.72,-2.68 -1e-5,-2.26664 1.13332,-3.86664 3.4,-4.8 -0.56002,-0.98664 -0.84002,-1.9333 -0.84,-2.84 -2e-5,-1.14664 0.42665,-2.07997 1.28,-2.8 0.87998,-0.71997 1.89331,-1.07997 3.04,-1.08 1.14665,3e-5 2.14664,0.37337 3,1.12 0.85331,0.72003 1.27998,1.64003 1.28,2.76 -2e-5,0.9067 -0.29336,1.85336 -0.88,2.84 2.29331,0.93336 3.43997,2.53336 3.44,4.8 -3e-5,0.93335 -0.24003,1.82669 -0.72,2.68 -0.56003,0.90669 -1.26669,1.49335 -2.12,1.76 2.66664,1.36002 4.47997,2.98668 5.44,4.88 0.8533,1.70668 1.27997,3.80001 1.28,6.28 -3e-5,0.85334 -0.0267,1.62667 -0.08,2.32 h -21.36" />
        <path
           style="font-style:normal;font-variant:normal;font-weight:normal;font-stretch:normal;font-size:40px;line-height:125%;font-family:'Chess Cases';-inkscape-font-specification:'Chess Cases';text-align:start;letter-spacing:0px;word-spacing:0px;writing-mode:lr-tb;text-anchor:start;fill:#efd6a2;fill-opacity:1;stroke:none"
           sodipodi:nodetypes="cscccccccccccccccccc"
           inkscape:connector-curvature="0"
           id="path3889-4-3-8-2-1-8"
           d="m 287.3884,183.07646 c -0.0267,-0.61333 -0.04,-1.38666 -0.04,-2.32 -1e-5,-2.45332 0.42666,-4.55999 1.28,-6.32 0.95999,-1.89332 2.75999,-3.50665 5.4,-4.84 -0.88002,-0.26665 -1.57335,-0.85331 -2.08,-1.76 -0.48001,-0.79998 -0.72001,-1.69331 -0.72,-2.68 -1e-5,-2.26664 1.13332,-3.86664 3.4,-4.8 -0.56002,-0.98664 -0.84002,-1.9333 -0.84,-2.84 -2e-5,-1.14664 0.42665,-2.07997 1.28,-2.8 0.87998,-0.71997 1.89331,-1.07997 3.04,-1.08 1.14665,3e-5 2.14664,0.37337 3,1.12 0.85331,0.72003 1.27998,1.64003 1.28,2.76 -2e-5,0.9067 -0.29336,1.85336 -0.88,2.84 2.29331,0.93336 3.43997,2.53336 3.44,4.8 -3e-5,0.93335 -0.24003,1.82669 -0.72,2.68 -0.56003,0.90669 -1.26669,1.49335 -2.12,1.76 2.66664,1.36002 4.47997,2.98668 5.44,4.88 0.8533,1.70668 1.27997,3.80001 1.28,6.28 -3e-5,0.85334 -0.0267,1.62667 -0.08,2.32 h -21.36" />
        <path
           style="font-style:normal;font-variant:normal;font-weight:normal;font-stretch:normal;font-size:40px;line-height:125%;font-family:'Chess Cases';-inkscape-font-specification:'Chess Cases';text-align:start;letter-spacing:0px;word-spacing:0px;writing-mode:lr-tb;text-anchor:start;fill:#000000;fill-opacity:1;stroke:none"
           inkscape:connector-curvature="0"
           id="path3902-9-9-5-5-4-7"
           d="m 307.0284,181.07646 c -3e-5,-2.82666 -0.5867,-5.05333 -1.76,-6.68 -0.72003,-1.01332 -1.86669,-1.97332 -3.44,-2.88 -1.30669,-0.77332 -1.96002,-1.47999 -1.96,-2.12 -2e-5,-0.23999 0.0666,-0.42665 0.2,-0.56 0.15998,-0.13332 0.42664,-0.30665 0.8,-0.52 0.71998,-0.42665 1.22664,-0.85332 1.52,-1.28 0.29331,-0.42665 0.43997,-1.03998 0.44,-1.84 -3e-5,-1.46665 -0.78669,-2.66665 -2.36,-3.6 -0.42669,-0.26664 -0.73336,-0.46664 -0.92,-0.6 -0.16002,-0.15998 -0.24002,-0.35998 -0.24,-0.6 -2e-5,-0.61331 0.17331,-1.13331 0.52,-1.56 0.21331,-0.31998 0.34664,-0.54664 0.4,-0.68 0.0533,-0.15997 0.08,-0.41331 0.08,-0.76 -2e-5,-0.55997 -0.24002,-1.03997 -0.72,-1.44 -0.45335,-0.39997 -0.97335,-0.59997 -1.56,-0.6 -0.56002,3e-5 -1.06669,0.20003 -1.52,0.6 -0.45335,0.40003 -0.68002,0.88003 -0.68,1.44 -2e-5,0.50669 0.15998,0.98669 0.48,1.44 0.34665,0.42669 0.51998,0.94669 0.52,1.56 -2e-5,0.24002 -0.0933,0.45336 -0.28,0.64 -0.18669,0.16002 -0.48002,0.34669 -0.88,0.56 -1.54668,0.93335 -2.32002,2.13335 -2.32,3.6 -2e-5,1.30668 0.65332,2.34668 1.96,3.12 0.26665,0.16001 0.49332,0.33335 0.68,0.52 0.18665,0.18668 0.27998,0.37335 0.28,0.56 -2e-5,0.64001 -0.65335,1.34668 -1.96,2.12 -1.60001,0.96001 -2.74668,1.93334 -3.44,2.92 -1.14668,1.62667 -1.72001,3.84001 -1.72,6.64 h 17.88 m -19.64,2 c -0.0267,-0.61333 -0.04,-1.38667 -0.04,-2.32 -1e-5,-2.45333 0.42666,-4.55999 1.28,-6.32 0.95999,-1.89332 2.75999,-3.50665 5.4,-4.84 -0.88002,-0.26665 -1.57335,-0.85332 -2.08,-1.76 -0.48001,-0.79998 -0.72001,-1.69332 -0.72,-2.68 -1e-5,-2.26665 1.13332,-3.86664 3.4,-4.8 -0.56002,-0.98664 -0.84002,-1.93331 -0.84,-2.84 -2e-5,-1.14664 0.42665,-2.07997 1.28,-2.8 0.87998,-0.71997 1.89331,-1.07997 3.04,-1.08 1.14665,3e-5 2.14664,0.37336 3,1.12 0.85331,0.72003 1.27998,1.64003 1.28,2.76 -2e-5,0.90669 -0.29336,1.85336 -0.88,2.84 2.29331,0.93336 3.43997,2.53335 3.44,4.8 -3e-5,0.93335 -0.24003,1.82668 -0.72,2.68 -0.56003,0.90668 -1.26669,1.49335 -2.12,1.76 2.66664,1.36001 4.47997,2.98668 5.44,4.88 0.8533,1.70667 1.27997,3.80001 1.28,6.28 -3e-5,0.85334 -0.0267,1.62667 -0.08,2.32 h -21.36" />
      </g>
      <g
         transform="rotate(-90,986.20643,-127.60157)"
         style="stroke:#d21e00;stroke-width:2.8125;stroke-miterlimit:4;stroke-dasharray:none;stroke-opacity:1"
         id="g10167-0-6-8-6-2">
        <path
           style="fill:none;fill-opacity:1;stroke:#d21e00;stroke-width:2.8125;stroke-linecap:butt;stroke-linejoin:miter;stroke-miterlimit:4;stroke-dasharray:none;stroke-opacity:1"
           d="m 265.78008,520.59812 56.07157,0.0499"
           id="path10159-4-4-2-1-8"
           inkscape:connector-curvature="0"
           sodipodi:nodetypes="cc" />
        <path
           style="fill:none;fill-opacity:1;stroke:#d21e00;stroke-width:2.8125;stroke-linecap:round;stroke-linejoin:round;stroke-miterlimit:4;stroke-dasharray:none;stroke-opacity:1"
           d="m 313.12882,526.06699 9.0531,-5.27567 -9.29406,-5.37934"
           id="path10163-7-4-3-3-7"
           inkscape:connector-curvature="0"
           sodipodi:nodetypes="ccc" />
      </g>
      <g
         transform="rotate(-30,1112.2677,-2028.2117)"
         style="stroke:#d21e00;stroke-width:2.8125;stroke-miterlimit:4;stroke-dasharray:none;stroke-opacity:1"
         id="g10167-0-6-8-6-2-5">
        <path
           style="fill:none;fill-opacity:1;stroke:#d21e00;stroke-width:2.8125;stroke-linecap:butt;stroke-linejoin:miter;stroke-miterlimit:4;stroke-dasharray:none;stroke-opacity:1"
           d="m 265.78008,520.59812 56.07157,0.0499"
           id="path10159-4-4-2-1-8-7"
           inkscape:connector-curvature="0"
           sodipodi:nodetypes="cc" />
        <path
           style="fill:none;fill-opacity:1;stroke:#d21e00;stroke-width:2.8125;stroke-linecap:round;stroke-linejoin:round;stroke-miterlimit:4;stroke-dasharray:none;stroke-opacity:1"
           d="m 313.12882,526.06699 9.0531,-5.27567 -9.29406,-5.37934"
           id="path10163-7-4-3-3-7-2"
           inkscape:connector-curvature="0"
           sodipodi:nodetypes="ccc" />
      </g>
      <g
         transform="rotate(-150,951.0162,380.97099)"
         style="stroke:#d21e00;stroke-width:2.8125;stroke-miterlimit:4;stroke-dasharray:none;stroke-opacity:1"
         id="g10167-0-6-8-6-2-5-4">
        <path
           style="fill:none;fill-opacity:1;stroke:#d21e00;stroke-width:2.8125;stroke-linecap:butt;stroke-linejoin:miter;stroke-miterlimit:4;stroke-dasharray:none;stroke-opacity:1"
           d="m 265.78008,520.59812 56.07157,0.0499"
           id="path10159-4-4-2-1-8-7-0"
           inkscape:connector-curvature="0"
           sodipodi:nodetypes="cc" />
        <path
           style="fill:none;fill-opacity:1;stroke:#d21e00;stroke-width:2.8125;stroke-linecap:round;stroke-linejoin:round;stroke-miterlimit:4;stroke-dasharray:none;stroke-opacity:1"
           d="m 313.12882,526.06699 9.0531,-5.27567 -9.29406,-5.37934"
           id="path10163-7-4-3-3-7-2-1"
           inkscape:connector-curvature="0"
           sodipodi:nodetypes="ccc" />
      </g>
      <g
         transform="rotate(-60,989.46641,-687.39501)"
         style="stroke:#0050ac;stroke-width:2.8125;stroke-miterlimit:4;stroke-dasharray:none;stroke-opacity:1"
         id="g10167-0-6-5-2-6">
        <path
           style="fill:none;fill-opacity:1;stroke:#0050ac;stroke-width:2.8125;stroke-linecap:butt;stroke-linejoin:miter;stroke-miterlimit:4;stroke-dasharray:none;stroke-opacity:1"
           d="M 204.96345,521.84939 321.85165,520.648"
           id="path10159-4-4-1-0-8"
           inkscape:connector-curvature="0"
           sodipodi:nodetypes="cc" />
        <path
           style="fill:none;fill-opacity:1;stroke:#0050ac;stroke-width:2.8125;stroke-linecap:round;stroke-linejoin:round;stroke-miterlimit:4;stroke-dasharray:none;stroke-opacity:1"
           d="m 313.12882,526.06699 9.0531,-5.27567 -9.29406,-5.37934"
           id="path10163-7-4-7-4-0"
           inkscape:connector-curvature="0"
           sodipodi:nodetypes="ccc" />
        <path
           style="fill:none;fill-opacity:1;stroke:#0050ac;stroke-width:2.8125;stroke-linecap:round;stroke-linejoin:round;stroke-miterlimit:4;stroke-dasharray:none;stroke-opacity:1"
           d="m 267.31441,526.23471 9.0531,-5.2757 -9.294,-5.3793"
           id="path10163-7-4-7-4-0-6"
           inkscape:connector-curvature="0"
           sodipodi:nodetypes="ccc" />
      </g>
      <g
         transform="rotate(-120,936.31565,148.95434)"
         style="stroke:#0050ac;stroke-width:2.8125;stroke-miterlimit:4;stroke-dasharray:none;stroke-opacity:1"
         id="g10167-0-6-5-2-6-9">
        <path
           style="fill:none;fill-opacity:1;stroke:#0050ac;stroke-width:2.8125;stroke-linecap:butt;stroke-linejoin:miter;stroke-miterlimit:4;stroke-dasharray:none;stroke-opacity:1"
           d="M 204.96345,521.84939 321.85165,520.648"
           id="path10159-4-4-1-0-8-4"
           inkscape:connector-curvature="0"
           sodipodi:nodetypes="cc" />
        <path
           style="fill:none;fill-opacity:1;stroke:#0050ac;stroke-width:2.8125;stroke-linecap:round;stroke-linejoin:round;stroke-miterlimit:4;stroke-dasharray:none;stroke-opacity:1"
           d="m 313.12882,526.06699 9.0531,-5.27567 -9.29406,-5.37934"
           id="path10163-7-4-7-4-0-60"
           inkscape:connector-curvature="0"
           sodipodi:nodetypes="ccc" />
        <path
           style="fill:none;fill-opacity:1;stroke:#0050ac;stroke-width:2.8125;stroke-linecap:round;stroke-linejoin:round;stroke-miterlimit:4;stroke-dasharray:none;stroke-opacity:1"
           d="m 267.31441,526.23471 9.0531,-5.2757 -9.294,-5.3793"
           id="path10163-7-4-7-4-0-6-0"
           inkscape:connector-curvature="0"
           sodipodi:nodetypes="ccc" />
      </g>
    </g>
  </g>
</svg>
