<?xml version="1.0" encoding="UTF-8" standalone="no"?>
<!-- Created with Inkscape (http://www.inkscape.org/) -->

<svg
   xmlns:dc="http://purl.org/dc/elements/1.1/"
   xmlns:cc="http://creativecommons.org/ns#"
   xmlns:rdf="http://www.w3.org/1999/02/22-rdf-syntax-ns#"
   xmlns:svg="http://www.w3.org/2000/svg"
   xmlns="http://www.w3.org/2000/svg"
   xmlns:sodipodi="http://sodipodi.sourceforge.net/DTD/sodipodi-0.dtd"
   xmlns:inkscape="http://www.inkscape.org/namespaces/inkscape"
   width="68.022408mm"
   height="78.221916mm"
   viewBox="0 0 68.022408 78.221916"
   version="1.1"
   id="svg4605"
   inkscape:version="0.92.3 (2405546, 2018-03-11)"
   sodipodi:docname="move_bishop.svg">
  <defs
     id="defs4599">
    <filter
       inkscape:collect="always"
       id="filter4054-5-94"
       x="-0.025609033"
       width="1.0512182"
       y="-0.16676886"
       height="1.3335377"
       style="color-interpolation-filters:sRGB">
      <feGaussianBlur
         inkscape:collect="always"
         stdDeviation="2.40981"
         id="feGaussianBlur4056-9-79" />
    </filter>
  </defs>
  <sodipodi:namedview
     id="base"
     pagecolor="#ffffff"
     bordercolor="#666666"
     borderopacity="1.0"
     inkscape:pageopacity="0.0"
     inkscape:pageshadow="2"
     inkscape:zoom="0.35"
     inkscape:cx="-664.31088"
     inkscape:cy="299.24951"
     inkscape:document-units="mm"
     inkscape:current-layer="layer1"
     showgrid="false"
     inkscape:window-width="1920"
     inkscape:window-height="1046"
     inkscape:window-x="-11"
     inkscape:window-y="-11"
     inkscape:window-maximized="1" />
  <metadata
     id="metadata4602">
    <rdf:RDF>
      <cc:Work
         rdf:about="">
        <dc:format>image/svg+xml</dc:format>
        <dc:type
           rdf:resource="http://purl.org/dc/dcmitype/StillImage" />
        <dc:title></dc:title>
      </cc:Work>
    </rdf:RDF>
  </metadata>
  <g
     inkscape:label="Ebene 1"
     inkscape:groupmode="layer"
     id="layer1"
     transform="translate(45.350485,-149.78785)">
    <g
       transform="matrix(0.28222223,0,0,0.28222223,-349.04967,311.86789)"
       id="g13970">
      <path
         inkscape:connector-curvature="0"
         id="path3065-1-0"
         d="m 1127.7081,-528.8386 23.0145,-13.2874 23.0145,13.2874 v 26.5748 l -23.0145,13.2874 -23.0145,-13.2874 z"
         style="fill:#352411;fill-opacity:1;stroke:#000000;stroke-width:1px;stroke-linecap:butt;stroke-linejoin:miter;stroke-opacity:1" />
      <path
         inkscape:connector-curvature="0"
         id="path3065-3-19-9"
         d="m 1219.766,-528.8386 23.0144,-13.2874 23.0145,13.2874 v 26.5748 l -23.0145,13.2874 -23.0144,-13.2874 z"
         style="fill:#c48240;fill-opacity:1;stroke:#000000;stroke-width:1px;stroke-linecap:butt;stroke-linejoin:miter;stroke-opacity:1" />
      <path
         inkscape:connector-curvature="0"
         id="path3065-5-3-7"
         d="m 1173.7371,-528.8386 23.0144,-13.2874 23.0145,13.2874 v 26.5748 l -23.0145,13.2874 -23.0144,-13.2874 z"
         style="fill:#f4edde;fill-opacity:1;stroke:#000000;stroke-width:1px;stroke-linecap:butt;stroke-linejoin:miter;stroke-opacity:1" />
      <path
         inkscape:connector-curvature="0"
         id="path3065-3-0-2"
         d="m 1150.7227,-488.9764 23.0144,-13.2874 23.0145,13.2874 v 26.5748 l -23.0145,13.2874 -23.0144,-13.2874 z"
         style="fill:#c48240;fill-opacity:1;stroke:#000000;stroke-width:1px;stroke-linecap:butt;stroke-linejoin:miter;stroke-opacity:1" />
      <path
         inkscape:connector-curvature="0"
         id="path3065-5-84-8"
         d="m 1104.6937,-488.9764 23.0145,-13.2874 23.0145,13.2874 v 26.5748 l -23.0145,13.2874 -23.0145,-13.2874 z"
         style="fill:#f4edde;fill-opacity:1;stroke:#000000;stroke-width:1px;stroke-linecap:butt;stroke-linejoin:miter;stroke-opacity:1" />
      <path
         inkscape:connector-curvature="0"
         id="path3065-88-7"
         d="m 1196.7516,-488.9764 23.0144,-13.2874 23.0145,13.2874 v 26.5748 l -23.0145,13.2874 -23.0144,-13.2874 z"
         style="fill:#352411;fill-opacity:1;stroke:#000000;stroke-width:1px;stroke-linecap:butt;stroke-linejoin:miter;stroke-opacity:1" />
      <path
         inkscape:connector-curvature="0"
         id="path3065-5-25-34"
         d="m 1242.7805,-488.9764 23.0144,-13.2874 23.0145,13.2874 v 26.5748 l -23.0145,13.2874 -23.0144,-13.2874 z"
         style="fill:#f4edde;fill-opacity:1;stroke:#000000;stroke-width:1px;stroke-linecap:butt;stroke-linejoin:miter;stroke-opacity:1" />
      <path
         inkscape:connector-curvature="0"
         id="path3065-41-41"
         d="m 1127.7082,-449.1142 23.0145,-13.2874 23.0144,13.2874 v 26.5748 l -23.0144,13.2874 -23.0145,-13.2874 z"
         style="fill:#352411;fill-opacity:1;stroke:#000000;stroke-width:1px;stroke-linecap:butt;stroke-linejoin:miter;stroke-opacity:1" />
      <path
         inkscape:connector-curvature="0"
         id="path3065-3-80-4"
         d="m 1219.766,-449.1142 23.0145,-13.2874 23.0144,13.2874 v 26.5748 l -23.0144,13.2874 -23.0145,-13.2874 z"
         style="fill:#c48240;fill-opacity:1;stroke:#000000;stroke-width:1px;stroke-linecap:butt;stroke-linejoin:miter;stroke-opacity:1" />
      <path
         inkscape:connector-curvature="0"
         id="path3065-3-05-7"
         d="m 1081.6793,-449.1142 23.0144,-13.2874 23.0145,13.2874 v 26.5748 l -23.0145,13.2874 -23.0144,-13.2874 z"
         style="fill:#c48240;fill-opacity:1;stroke:#000000;stroke-width:1px;stroke-linecap:butt;stroke-linejoin:miter;stroke-opacity:1" />
      <path
         inkscape:connector-curvature="0"
         id="path3065-3-52-0"
         d="m 1150.7227,-409.252 23.0144,-13.2874 23.0145,13.2874 v 26.5748 l -23.0145,13.2874 -23.0144,-13.2874 z"
         style="fill:#c48240;fill-opacity:1;stroke:#000000;stroke-width:1px;stroke-linecap:butt;stroke-linejoin:miter;stroke-opacity:1" />
      <path
         inkscape:connector-curvature="0"
         id="path3065-5-91-8"
         d="m 1104.6937,-409.252 23.0145,-13.2874 23.0145,13.2874 v 26.5748 l -23.0145,13.2874 -23.0145,-13.2874 z"
         style="fill:#f4edde;fill-opacity:1;stroke:#000000;stroke-width:1px;stroke-linecap:butt;stroke-linejoin:miter;stroke-opacity:1" />
      <path
         inkscape:connector-curvature="0"
         id="path3065-60-0"
         d="m 1196.7516,-409.252 23.0144,-13.2874 23.0145,13.2874 v 26.5748 l -23.0145,13.2874 -23.0144,-13.2874 z"
         style="fill:#352411;fill-opacity:1;stroke:#000000;stroke-width:1px;stroke-linecap:butt;stroke-linejoin:miter;stroke-opacity:1" />
      <path
         inkscape:connector-curvature="0"
         id="path3065-5-0-0"
         d="m 1242.7805,-409.252 23.0144,-13.2874 23.0145,13.2874 v 26.5748 l -23.0145,13.2874 -23.0144,-13.2874 z"
         style="fill:#f4edde;fill-opacity:1;stroke:#000000;stroke-width:1px;stroke-linecap:butt;stroke-linejoin:miter;stroke-opacity:1" />
      <path
         inkscape:connector-curvature="0"
         id="path3065-40-36"
         d="m 1127.7082,-369.3898 23.0145,-13.2874 23.0144,13.2874 v 26.5748 l -23.0144,13.2874 -23.0145,-13.2874 z"
         style="fill:#352411;fill-opacity:1;stroke:#000000;stroke-width:1px;stroke-linecap:butt;stroke-linejoin:miter;stroke-opacity:1" />
      <path
         inkscape:connector-curvature="0"
         id="path3065-3-00-1"
         d="m 1219.766,-369.3898 23.0145,-13.2874 23.0144,13.2874 v 26.5748 l -23.0144,13.2874 -23.0145,-13.2874 z"
         style="fill:#c48240;fill-opacity:1;stroke:#000000;stroke-width:1px;stroke-linecap:butt;stroke-linejoin:miter;stroke-opacity:1" />
      <path
         inkscape:connector-curvature="0"
         id="path3065-5-69-0"
         d="m 1173.7371,-369.3898 23.0145,-13.2874 23.0144,13.2874 v 26.5748 l -23.0144,13.2874 -23.0145,-13.2874 z"
         style="fill:#f4edde;fill-opacity:1;stroke:#000000;stroke-width:1px;stroke-linecap:butt;stroke-linejoin:miter;stroke-opacity:1" />
      <path
         inkscape:connector-curvature="0"
         id="path3065-60-5-5"
         d="m 1265.7949,-449.1143 23.0145,-13.2873 23.0144,13.2873 v 26.5749 l -23.0144,13.2874 -23.0145,-13.2874 z"
         style="fill:#352411;fill-opacity:1;stroke:#000000;stroke-width:1px;stroke-linecap:butt;stroke-linejoin:miter;stroke-opacity:1" />
      <path
         inkscape:connector-curvature="0"
         id="path3065-5-72-3"
         d="m 1173.7371,-449.1142 23.0145,-13.2874 23.0144,13.2874 v 26.5748 l -23.0144,13.2874 -23.0145,-13.2874 z"
         style="fill:#f4edde;fill-opacity:1;stroke:#000000;stroke-width:1px;stroke-linecap:butt;stroke-linejoin:miter;stroke-opacity:1" />
      <g
         id="g10167-0-9-5"
         style="stroke:#0050ac;stroke-width:2.8125;stroke-miterlimit:4;stroke-dasharray:none;stroke-opacity:1"
         transform="rotate(-30,-1094.5055,-1845.855)">
        <path
           sodipodi:nodetypes="cc"
           inkscape:connector-curvature="0"
           id="path10159-4-1-5"
           d="M 184.83354,520.81962 321.85165,520.648"
           style="fill:none;fill-opacity:1;stroke:#0050ac;stroke-width:2.8125;stroke-linecap:butt;stroke-linejoin:miter;stroke-miterlimit:4;stroke-dasharray:none;stroke-opacity:1" />
        <path
           sodipodi:nodetypes="ccc"
           inkscape:connector-curvature="0"
           id="path10163-7-1-41"
           d="m 313.12882,526.06699 9.0531,-5.27567 -9.29406,-5.37934"
           style="fill:none;fill-opacity:1;stroke:#0050ac;stroke-width:2.8125;stroke-linecap:round;stroke-linejoin:round;stroke-miterlimit:4;stroke-dasharray:none;stroke-opacity:1" />
      </g>
      <g
         id="g10167-0-8-6"
         style="stroke:#0050ac;stroke-width:2.8125;stroke-miterlimit:4;stroke-dasharray:none;stroke-opacity:1"
         transform="rotate(-90,212.65039,-463.36169)">
        <path
           sodipodi:nodetypes="cc"
           inkscape:connector-curvature="0"
           id="path10159-4-2-7"
           d="M 184.83354,520.81962 321.85165,520.648"
           style="fill:none;fill-opacity:1;stroke:#0050ac;stroke-width:2.8125;stroke-linecap:butt;stroke-linejoin:miter;stroke-miterlimit:4;stroke-dasharray:none;stroke-opacity:1" />
        <path
           sodipodi:nodetypes="ccc"
           inkscape:connector-curvature="0"
           id="path10163-7-5-3"
           d="m 313.12882,526.06699 9.0531,-5.27567 -9.29406,-5.37934"
           style="fill:none;fill-opacity:1;stroke:#0050ac;stroke-width:2.8125;stroke-linecap:round;stroke-linejoin:round;stroke-miterlimit:4;stroke-dasharray:none;stroke-opacity:1" />
      </g>
      <g
         id="g10167-0-0-5-0"
         style="stroke:#0050ac;stroke-width:2.8125;stroke-miterlimit:4;stroke-dasharray:none;stroke-opacity:1"
         transform="rotate(-150,562.49889,-92.980882)">
        <path
           sodipodi:nodetypes="cc"
           inkscape:connector-curvature="0"
           id="path10159-4-8-6-6"
           d="M 184.83354,520.81962 321.85165,520.648"
           style="fill:none;fill-opacity:1;stroke:#0050ac;stroke-width:2.8125;stroke-linecap:butt;stroke-linejoin:miter;stroke-miterlimit:4;stroke-dasharray:none;stroke-opacity:1" />
        <path
           sodipodi:nodetypes="ccc"
           inkscape:connector-curvature="0"
           id="path10163-7-0-2-9"
           d="m 313.12882,526.06699 9.0531,-5.27567 -9.29406,-5.37934"
           style="fill:none;fill-opacity:1;stroke:#0050ac;stroke-width:2.8125;stroke-linecap:round;stroke-linejoin:round;stroke-miterlimit:4;stroke-dasharray:none;stroke-opacity:1" />
      </g>
      <g
         id="g10167-0-9-2-7"
         style="stroke:#0050ac;stroke-width:2.8125;stroke-miterlimit:4;stroke-dasharray:none;stroke-opacity:1"
         transform="rotate(150,818.93569,178.11371)">
        <path
           sodipodi:nodetypes="cc"
           inkscape:connector-curvature="0"
           id="path10159-4-1-3-2"
           d="M 184.83354,520.81962 321.85165,520.648"
           style="fill:none;fill-opacity:1;stroke:#0050ac;stroke-width:2.8125;stroke-linecap:butt;stroke-linejoin:miter;stroke-miterlimit:4;stroke-dasharray:none;stroke-opacity:1" />
        <path
           sodipodi:nodetypes="ccc"
           inkscape:connector-curvature="0"
           id="path10163-7-1-4-5"
           d="m 313.12882,526.06699 9.0531,-5.27567 -9.29406,-5.37934"
           style="fill:none;fill-opacity:1;stroke:#0050ac;stroke-width:2.8125;stroke-linecap:round;stroke-linejoin:round;stroke-miterlimit:4;stroke-dasharray:none;stroke-opacity:1" />
      </g>
      <g
         id="g10167-0-7-3"
         style="stroke:#0050ac;stroke-width:2.8125;stroke-miterlimit:4;stroke-dasharray:none;stroke-opacity:1"
         transform="rotate(90,1168.9671,548.24399)">
        <path
           sodipodi:nodetypes="cc"
           inkscape:connector-curvature="0"
           id="path10159-4-7-4"
           d="M 184.83354,520.81962 321.85165,520.648"
           style="fill:none;fill-opacity:1;stroke:#0050ac;stroke-width:2.8125;stroke-linecap:butt;stroke-linejoin:miter;stroke-miterlimit:4;stroke-dasharray:none;stroke-opacity:1" />
        <path
           sodipodi:nodetypes="ccc"
           inkscape:connector-curvature="0"
           id="path10163-7-6-3"
           d="m 313.12882,526.06699 9.0531,-5.27567 -9.29406,-5.37934"
           style="fill:none;fill-opacity:1;stroke:#0050ac;stroke-width:2.8125;stroke-linecap:round;stroke-linejoin:round;stroke-miterlimit:4;stroke-dasharray:none;stroke-opacity:1" />
      </g>
      <g
         id="g10167-0-0-0-3"
         style="stroke:#0050ac;stroke-width:2.8125;stroke-miterlimit:4;stroke-dasharray:none;stroke-opacity:1"
         transform="rotate(30,2475.7208,1930.8236)">
        <path
           sodipodi:nodetypes="cc"
           inkscape:connector-curvature="0"
           id="path10159-4-8-7-5"
           d="M 184.83354,520.81962 321.85165,520.648"
           style="fill:none;fill-opacity:1;stroke:#0050ac;stroke-width:2.8125;stroke-linecap:butt;stroke-linejoin:miter;stroke-miterlimit:4;stroke-dasharray:none;stroke-opacity:1" />
        <path
           sodipodi:nodetypes="ccc"
           inkscape:connector-curvature="0"
           id="path10163-7-0-1-8"
           d="m 313.12882,526.06699 9.0531,-5.27567 -9.29406,-5.37934"
           style="fill:none;fill-opacity:1;stroke:#0050ac;stroke-width:2.8125;stroke-linecap:round;stroke-linejoin:round;stroke-miterlimit:4;stroke-dasharray:none;stroke-opacity:1" />
      </g>
      <path
         d="m 1175.7142,-435.82666 a 21.037361,20.437618 0 0 1 20.9327,-20.43737 21.037361,20.437618 0 0 1 21.141,20.23392 21.037361,20.437618 0 0 1 -20.7222,20.63879 21.037361,20.437618 0 0 1 -21.3473,-20.02846"
         sodipodi:open="true"
         sodipodi:end="3.1216829"
         sodipodi:start="3.1415927"
         sodipodi:ry="20.437618"
         sodipodi:rx="21.037361"
         sodipodi:cy="-435.82666"
         sodipodi:cx="1196.7516"
         sodipodi:type="arc"
         id="path10681-0"
         style="opacity:1;fill:#f2ece0;fill-opacity:1;stroke:none;stroke-width:3.99064231;stroke-linecap:round;stroke-linejoin:round;stroke-miterlimit:4;stroke-dasharray:none;stroke-opacity:1" />
      <g
         id="g4198-8-8"
         transform="translate(945.67563,-601.56326)">
        <path
           style="font-style:normal;font-variant:normal;font-weight:normal;font-stretch:normal;font-size:40px;line-height:125%;font-family:'Chess Cases';-inkscape-font-specification:'Chess Cases';text-align:start;letter-spacing:0px;word-spacing:0px;writing-mode:lr-tb;text-anchor:start;fill:#000000;fill-opacity:0.50196078;stroke:none;filter:url(#filter4054-5-94)"
           sodipodi:nodetypes="ccccccccsccccscccccccccccccccsscccccc"
           inkscape:connector-curvature="0"
           id="path3887-2-3-8"
           d="m 251.076,178.99646 c -1.28002,1.33334 -3.25335,2.13334 -5.92,2.4 -1.25335,0.10667 -3.12001,0.34667 -5.6,0.72 -0.69334,0.16 -1.08001,0.48 -1.16,0.96 -0.88001,-0.37333 -1.69334,-1.21333 -2.44,-2.52 -0.37334,-0.61333 -0.72,-1.13333 -1.04,-1.56 1.11999,-2.10666 2.49333,-3.15999 4.12,-3.16 0.31999,1e-5 0.79999,0.0267 1.44,0.08 0.66666,0.0533 1.15999,0.08 1.48,0.08 1.49332,10e-6 3.09332,-0.31999 4.8,-0.96 -2.34668,-0.26666 -3.52001,-0.97332 -3.52,-2.12 -1e-5,-0.34665 0.15999,-0.97332 0.48,-1.88 0.34665,-0.93332 0.51999,-1.61332 0.52,-2.04 -2.00001,-2.18665 -3.00001,-4.25331 -3,-6.2 -1e-5,-2.18664 1.07999,-4.18664 3.24,-6 1.89332,-1.59997 3.29332,-2.43997 4.2,-2.52 -0.72002,-0.87997 -1.08002,-1.82663 -1.08,-2.84 -2e-5,-0.95996 0.34665,-1.71996 1.04,-2.28 0.61331,-0.50663 1.42665,-0.75996 2.44,-0.76 0.98665,4e-5 1.79998,0.28004 2.44,0.84 0.66664,0.53337 0.99998,1.2667 1,2.2 -2e-5,1.01337 -0.34669,1.96003 -1.04,2.84 0.95998,0.1067 2.37331,0.96003 4.24,2.56 2.1333,1.78669 3.19997,3.77336 3.2,5.96 -3e-5,1.92002 -1.00003,3.98669 -3,6.2 -3e-5,0.42668 0.15997,1.10668 0.48,2.04 0.34664,0.90668 0.51997,1.53335 0.52,1.88 -3e-5,1.14668 -1.18669,1.85334 -3.56,2.12 1.70664,0.64001 3.30664,0.96001 4.8,0.96 0.34664,10e-6 0.83997,-0.0267 1.48,-0.08 0.63997,-0.0533 1.1333,-0.08 1.48,-0.08 1.62663,1e-5 2.99996,1.05334 4.12,3.16 -0.5067,0.77334 -1.00004,1.54667 -1.48,2.32 -0.56003,0.82667 -1.2267,1.41334 -2,1.76 -0.1067,-0.56 -0.7467,-0.94666 -1.92,-1.16 -0.2667,-0.0533 -1.09336,-0.14666 -2.48,-0.28 -4.16002,-0.37333 -6.92002,-1.25333 -8.28,-2.64" />
        <path
           style="font-style:normal;font-variant:normal;font-weight:normal;font-stretch:normal;font-size:40px;line-height:125%;font-family:'Chess Cases';-inkscape-font-specification:'Chess Cases';text-align:start;letter-spacing:0px;word-spacing:0px;writing-mode:lr-tb;text-anchor:start;fill:#aa7540;fill-opacity:1;stroke:none"
           sodipodi:nodetypes="ccccccccsccccscccccccccccccccsscccccc"
           inkscape:connector-curvature="0"
           id="path3887-0-2"
           d="m 251.076,178.99646 c -1.28002,1.33334 -3.25335,2.13334 -5.92,2.4 -1.25335,0.10667 -3.12001,0.34667 -5.6,0.72 -0.69334,0.16 -1.08001,0.48 -1.16,0.96 -0.88001,-0.37333 -1.69334,-1.21333 -2.44,-2.52 -0.37334,-0.61333 -0.72,-1.13333 -1.04,-1.56 1.11999,-2.10666 2.49333,-3.15999 4.12,-3.16 0.31999,1e-5 0.79999,0.0267 1.44,0.08 0.66666,0.0533 1.15999,0.08 1.48,0.08 1.49332,10e-6 3.09332,-0.31999 4.8,-0.96 -2.34668,-0.26666 -3.52001,-0.97332 -3.52,-2.12 -1e-5,-0.34665 0.15999,-0.97332 0.48,-1.88 0.34665,-0.93332 0.51999,-1.61332 0.52,-2.04 -2.00001,-2.18665 -3.00001,-4.25331 -3,-6.2 -1e-5,-2.18664 1.07999,-4.18664 3.24,-6 1.89332,-1.59997 3.29332,-2.43997 4.2,-2.52 -0.72002,-0.87997 -1.08002,-1.82663 -1.08,-2.84 -2e-5,-0.95996 0.34665,-1.71996 1.04,-2.28 0.61331,-0.50663 1.42665,-0.75996 2.44,-0.76 0.98665,4e-5 1.79998,0.28004 2.44,0.84 0.66664,0.53337 0.99998,1.2667 1,2.2 -2e-5,1.01337 -0.34669,1.96003 -1.04,2.84 0.95998,0.1067 2.37331,0.96003 4.24,2.56 2.1333,1.78669 3.19997,3.77336 3.2,5.96 -3e-5,1.92002 -1.00003,3.98669 -3,6.2 -3e-5,0.42668 0.15997,1.10668 0.48,2.04 0.34664,0.90668 0.51997,1.53335 0.52,1.88 -3e-5,1.14668 -1.18669,1.85334 -3.56,2.12 1.70664,0.64001 3.30664,0.96001 4.8,0.96 0.34664,10e-6 0.83997,-0.0267 1.48,-0.08 0.63997,-0.0533 1.1333,-0.08 1.48,-0.08 1.62663,1e-5 2.99996,1.05334 4.12,3.16 -0.5067,0.77334 -1.00004,1.54667 -1.48,2.32 -0.56003,0.82667 -1.2267,1.41334 -2,1.76 -0.1067,-0.56 -0.7467,-0.94666 -1.92,-1.16 -0.2667,-0.0533 -1.09336,-0.14666 -2.48,-0.28 -4.16002,-0.37333 -6.92002,-1.25333 -8.28,-2.64" />
        <path
           style="font-style:normal;font-variant:normal;font-weight:normal;font-stretch:normal;font-size:40px;line-height:125%;font-family:'Chess Cases';-inkscape-font-specification:'Chess Cases';text-align:start;letter-spacing:0px;word-spacing:0px;writing-mode:lr-tb;text-anchor:start;fill:#000000;fill-opacity:1;stroke:none"
           inkscape:connector-curvature="0"
           id="path3900-9-4"
           d="m 251.076,168.35646 c -1.68002,1e-5 -3.14668,-0.0667 -4.4,-0.2 -0.40002,-0.0267 -0.74668,-0.0667 -1.04,-0.12 0.21332,0.40001 0.31998,0.81335 0.32,1.24 -2e-5,0.45335 -0.0933,0.86668 -0.28,1.24 0.55998,-0.18666 1.74665,-0.33332 3.56,-0.44 0.55998,-0.0266 1.17331,-0.04 1.84,-0.04 2.63998,1e-5 4.43998,0.16001 5.4,0.48 -0.21336,-0.37332 -0.32003,-0.78665 -0.32,-1.24 -3e-5,-0.39999 0.10664,-0.81332 0.32,-1.24 -1.54669,0.21335 -3.34669,0.32001 -5.4,0.32 m 0,-18.12 c -0.42669,3e-5 -0.80002,0.16003 -1.12,0.48 -0.29335,0.29336 -0.44002,0.6267 -0.44,1 -2e-5,0.4267 0.14665,0.7867 0.44,1.08 0.31998,0.2667 0.69331,0.40003 1.12,0.4 0.39998,3e-5 0.75998,-0.1333 1.08,-0.4 0.31998,-0.2933 0.47998,-0.6533 0.48,-1.08 -2e-5,-0.39997 -0.16002,-0.74664 -0.48,-1.04 -0.32002,-0.2933 -0.68002,-0.43997 -1.08,-0.44 m 0,21.28 c -1.09335,1e-5 -2.73335,0.10668 -4.92,0.32 -0.64001,0.13334 -0.96001,0.45334 -0.96,0.96 -1e-5,0.42668 0.90665,0.68001 2.72,0.76 -0.37335,-0.0267 0.67998,-0.04 3.16,-0.04 3.89331,1e-5 5.83997,-0.23999 5.84,-0.72 -3e-5,-0.61332 -0.61336,-0.99999 -1.84,-1.16 -0.21336,-0.0267 -1.05336,-0.0533 -2.52,-0.08 -0.26669,1e-5 -0.62669,-0.0133 -1.08,-0.04 h -0.4 m -0.04,-4.6 c 3.70664,1e-5 5.98664,-0.34665 6.84,-1.04 0.58664,-0.45332 0.99997,-1.61332 1.24,-3.48 -0.13336,-1.65331 -1.21336,-3.25331 -3.24,-4.8 -1.92002,-1.46664 -3.54669,-2.27997 -4.88,-2.44 -1.28002,0.16003 -2.86668,0.97336 -4.76,2.44 -2.00001,1.54669 -3.06668,3.14669 -3.2,4.8 0.13332,0.98669 0.25332,1.66668 0.36,2.04 0.23999,0.77335 0.62665,1.32002 1.16,1.64 0.90665,0.56002 3.06665,0.84001 6.48,0.84 m -0.88,-2.44 v -2.24 h -1.68 v -1.92 h 1.68 v -2.16 h 1.84 v 2.16 h 1.68 v 1.92 h -1.68 v 2.24 h -1.84 m 0.84,10.16 c -0.21335,1e-5 -0.65335,0.25334 -1.32,0.76 -0.45335,0.34667 -0.90668,0.68001 -1.36,1 -0.45335,0.32001 -0.89335,0.50667 -1.32,0.56 -0.98668,0.34667 -2.21335,0.58667 -3.68,0.72 -0.21335,0 -0.74668,0.0267 -1.6,0.08 -1.28001,0.0533 -2.08001,0.10667 -2.4,0.16 -1.06667,0.24 -1.60001,0.69334 -1.6,1.36 0.13333,0.66667 0.47999,1 1.04,1 0.13333,0 0.50666,-0.0533 1.12,-0.16 0.77332,-0.16 1.29332,-0.24 1.56,-0.24 1.59999,0 3.41332,-0.24 5.44,-0.72 2.13332,-0.53333 3.53331,-1.42666 4.2,-2.68 0.39998,0.77334 1.14665,1.42667 2.24,1.96 1.27998,0.61334 2.86664,1.02667 4.76,1.24 l 1.32,0.16 c 0.4533,0.0267 0.87997,0.04 1.28,0.04 0.2933,0 0.82664,0.08 1.6,0.24 0.58663,0.10667 0.94663,0.16 1.08,0.16 0.58663,0 0.94663,-0.33333 1.08,-1 -3e-5,-0.66666 -0.53337,-1.12 -1.6,-1.36 -0.3467,-0.0533 -1.1467,-0.10666 -2.4,-0.16 -0.61336,-0.0267 -1.60003,-0.10666 -2.96,-0.24 -0.69336,-0.08 -1.46669,-0.26666 -2.32,-0.56 -0.42669,-0.08 -0.85336,-0.25333 -1.28,-0.52 -0.26669,-0.13333 -0.70669,-0.43999 -1.32,-0.92 -0.72002,-0.58666 -1.24002,-0.87999 -1.56,-0.88 m 0.08,4.36 c -1.28002,1.33333 -3.25335,2.13333 -5.92,2.4 -1.25335,0.10667 -3.12001,0.34667 -5.6,0.72 -0.69334,0.16 -1.08001,0.48 -1.16,0.96 -0.88001,-0.37333 -1.69334,-1.21333 -2.44,-2.52 -0.37334,-0.61333 -0.72,-1.13333 -1.04,-1.56 1.11999,-2.10666 2.49333,-3.15999 4.12,-3.16 0.31999,1e-5 0.79999,0.0267 1.44,0.08 0.66666,0.0533 1.15999,0.08 1.48,0.08 1.49332,10e-6 3.09332,-0.31999 4.8,-0.96 -2.34668,-0.26666 -3.52001,-0.97333 -3.52,-2.12 -1e-5,-0.34666 0.15999,-0.97332 0.48,-1.88 0.34665,-0.93332 0.51999,-1.61332 0.52,-2.04 -2.00001,-2.18665 -3.00001,-4.25332 -3,-6.2 -1e-5,-2.18665 1.07999,-4.18664 3.24,-6 1.89332,-1.59997 3.29332,-2.43997 4.2,-2.52 -0.72002,-0.87997 -1.08002,-1.82664 -1.08,-2.84 -2e-5,-0.95997 0.34665,-1.71997 1.04,-2.28 0.61331,-0.50663 1.42665,-0.75997 2.44,-0.76 0.98665,3e-5 1.79998,0.28003 2.44,0.84 0.66664,0.53337 0.99998,1.2667 1,2.2 -2e-5,1.01336 -0.34669,1.96003 -1.04,2.84 0.95998,0.10669 2.37331,0.96003 4.24,2.56 2.1333,1.78669 3.19997,3.77335 3.2,5.96 -3e-5,1.92002 -1.00003,3.98668 -3,6.2 -3e-5,0.42668 0.15997,1.10668 0.48,2.04 0.34664,0.90668 0.51997,1.53334 0.52,1.88 -3e-5,1.14667 -1.18669,1.85334 -3.56,2.12 1.70664,0.64001 3.30664,0.96001 4.8,0.96 0.34664,10e-6 0.83997,-0.0267 1.48,-0.08 0.63997,-0.0533 1.1333,-0.08 1.48,-0.08 1.62663,1e-5 2.99996,1.05334 4.12,3.16 -0.5067,0.77334 -1.00004,1.54667 -1.48,2.32 -0.56003,0.82667 -1.2267,1.41333 -2,1.76 -0.1067,-0.56 -0.7467,-0.94667 -1.92,-1.16 -0.2667,-0.0533 -1.09336,-0.14667 -2.48,-0.28 -4.16002,-0.37333 -6.92002,-1.25333 -8.28,-2.64" />
      </g>
    </g>
  </g>
</svg>
